<?xml version="1.0" encoding="utf-8" standalone="no"?>
<!DOCTYPE svg PUBLIC "-//W3C//DTD SVG 1.1//EN"
  "http://www.w3.org/Graphics/SVG/1.1/DTD/svg11.dtd">
<svg height="864pt" version="1.1" viewBox="0 0 1152 864" width="1152pt" xmlns="http://www.w3.org/2000/svg" xmlns:xlink="http://www.w3.org/1999/xlink">
 <metadata>
  <rdf:RDF xmlns:cc="http://creativecommons.org/ns#" xmlns:dc="http://purl.org/dc/elements/1.1/" xmlns:rdf="http://www.w3.org/1999/02/22-rdf-syntax-ns#">
   <cc:Work>
    <dc:type rdf:resource="http://purl.org/dc/dcmitype/StillImage"/>
    <dc:date>2022-04-09T18:35:21.405245</dc:date>
    <dc:format>image/svg+xml</dc:format>
    <dc:creator>
     <cc:Agent>
      <dc:title>Matplotlib v3.4.3, https://matplotlib.org/</dc:title>
     </cc:Agent>
    </dc:creator>
   </cc:Work>
  </rdf:RDF>
 </metadata>
 <defs>
  <style type="text/css">*{stroke-linecap:butt;stroke-linejoin:round;}</style>
 </defs>
 <g id="figure_1">
  <g id="patch_1">
   <path d="M 0 864 
L 1152 864 
L 1152 0 
L 0 0 
z
" style="fill:none;"/>
  </g>
  <g id="axes_1">
   <g id="patch_2">
    <path d="M 144 756 
L 1036.8 756 
L 1036.8 103.68 
L 144 103.68 
z
" style="fill:#ffffff;"/>
   </g>
   <g id="PolyCollection_1">
    <defs>
     <path d="M 184.581818 -108.007705 
L 184.581818 -108 
L 188.660393 -108 
L 192.738968 -108 
L 196.817542 -108 
L 200.896117 -108 
L 204.974692 -108 
L 209.053266 -108 
L 213.131841 -108 
L 217.210416 -108 
L 221.28899 -108 
L 225.367565 -108 
L 229.44614 -108 
L 233.524714 -108 
L 237.603289 -108 
L 241.681864 -108 
L 245.760439 -108 
L 249.839013 -108 
L 253.917588 -108 
L 257.996163 -108 
L 262.074737 -108 
L 266.153312 -108 
L 270.231887 -108 
L 274.310461 -108 
L 278.389036 -108 
L 282.467611 -108 
L 286.546185 -108 
L 290.62476 -108 
L 294.703335 -108 
L 298.78191 -108 
L 302.860484 -108 
L 306.939059 -108 
L 311.017634 -108 
L 315.096208 -108 
L 319.174783 -108 
L 323.253358 -108 
L 327.331932 -108 
L 331.410507 -108 
L 335.489082 -108 
L 339.567656 -108 
L 343.646231 -108 
L 347.724806 -108 
L 351.803381 -108 
L 355.881955 -108 
L 359.96053 -108 
L 364.039105 -108 
L 368.117679 -108 
L 372.196254 -108 
L 376.274829 -108 
L 380.353403 -108 
L 384.431978 -108 
L 388.510553 -108 
L 392.589127 -108 
L 396.667702 -108 
L 400.746277 -108 
L 404.824852 -108 
L 408.903426 -108 
L 412.982001 -108 
L 417.060576 -108 
L 421.13915 -108 
L 425.217725 -108 
L 429.2963 -108 
L 433.374874 -108 
L 437.453449 -108 
L 441.532024 -108 
L 445.610598 -108 
L 449.689173 -108 
L 453.767748 -108 
L 457.846323 -108 
L 461.924897 -108 
L 466.003472 -108 
L 470.082047 -108 
L 474.160621 -108 
L 478.239196 -108 
L 482.317771 -108 
L 486.396345 -108 
L 490.47492 -108 
L 494.553495 -108 
L 498.632069 -108 
L 502.710644 -108 
L 506.789219 -108 
L 510.867794 -108 
L 514.946368 -108 
L 519.024943 -108 
L 523.103518 -108 
L 527.182092 -108 
L 531.260667 -108 
L 535.339242 -108 
L 539.417816 -108 
L 543.496391 -108 
L 547.574966 -108 
L 551.65354 -108 
L 555.732115 -108 
L 559.81069 -108 
L 563.889265 -108 
L 567.967839 -108 
L 572.046414 -108 
L 576.124989 -108 
L 580.203563 -108 
L 584.282138 -108 
L 588.360713 -108 
L 592.439287 -108 
L 596.517862 -108 
L 600.596437 -108 
L 604.675011 -108 
L 608.753586 -108 
L 612.832161 -108 
L 616.910735 -108 
L 620.98931 -108 
L 625.067885 -108 
L 629.14646 -108 
L 633.225034 -108 
L 637.303609 -108 
L 641.382184 -108 
L 645.460758 -108 
L 649.539333 -108 
L 653.617908 -108 
L 657.696482 -108 
L 661.775057 -108 
L 665.853632 -108 
L 669.932206 -108 
L 674.010781 -108 
L 678.089356 -108 
L 682.167931 -108 
L 686.246505 -108 
L 690.32508 -108 
L 694.403655 -108 
L 698.482229 -108 
L 702.560804 -108 
L 706.639379 -108 
L 710.717953 -108 
L 714.796528 -108 
L 718.875103 -108 
L 722.953677 -108 
L 727.032252 -108 
L 731.110827 -108 
L 735.189402 -108 
L 739.267976 -108 
L 743.346551 -108 
L 747.425126 -108 
L 751.5037 -108 
L 755.582275 -108 
L 759.66085 -108 
L 763.739424 -108 
L 767.817999 -108 
L 771.896574 -108 
L 775.975148 -108 
L 780.053723 -108 
L 784.132298 -108 
L 788.210873 -108 
L 792.289447 -108 
L 796.368022 -108 
L 800.446597 -108 
L 804.525171 -108 
L 808.603746 -108 
L 812.682321 -108 
L 816.760895 -108 
L 820.83947 -108 
L 824.918045 -108 
L 828.996619 -108 
L 833.075194 -108 
L 837.153769 -108 
L 841.232344 -108 
L 845.310918 -108 
L 849.389493 -108 
L 853.468068 -108 
L 857.546642 -108 
L 861.625217 -108 
L 865.703792 -108 
L 869.782366 -108 
L 873.860941 -108 
L 877.939516 -108 
L 882.01809 -108 
L 886.096665 -108 
L 890.17524 -108 
L 894.253815 -108 
L 898.332389 -108 
L 902.410964 -108 
L 906.489539 -108 
L 910.568113 -108 
L 914.646688 -108 
L 918.725263 -108 
L 922.803837 -108 
L 926.882412 -108 
L 930.960987 -108 
L 935.039561 -108 
L 939.118136 -108 
L 943.196711 -108 
L 947.275286 -108 
L 951.35386 -108 
L 955.432435 -108 
L 959.51101 -108 
L 963.589584 -108 
L 967.668159 -108 
L 971.746734 -108 
L 975.825308 -108 
L 979.903883 -108 
L 983.982458 -108 
L 988.061032 -108 
L 992.139607 -108 
L 996.218182 -108 
L 996.218182 -108.024453 
L 996.218182 -108.024453 
L 992.139607 -113.844152 
L 988.061032 -301.012305 
L 983.982458 -729.257143 
L 979.903883 -299.211215 
L 975.825308 -121.815513 
L 971.746734 -113.912366 
L 967.668159 -112.440224 
L 963.589584 -110.660574 
L 959.51101 -109.200145 
L 955.432435 -109.199488 
L 951.35386 -108.81834 
L 947.275286 -108.44603 
L 943.196711 -111.74424 
L 939.118136 -111.412673 
L 935.039561 -108.470558 
L 930.960987 -110.626712 
L 926.882412 -111.451362 
L 922.803837 -108.45875 
L 918.725263 -108.670961 
L 914.646688 -109.303227 
L 910.568113 -108.232904 
L 906.489539 -108.144519 
L 902.410964 -108.708794 
L 898.332389 -108.760635 
L 894.253815 -108.561931 
L 890.17524 -108.058159 
L 886.096665 -108.000553 
L 882.01809 -108 
L 877.939516 -108.000002 
L 873.860941 -108.001378 
L 869.782366 -108.098252 
L 865.703792 -108.63167 
L 861.625217 -108.366252 
L 857.546642 -108.019439 
L 853.468068 -108.051317 
L 849.389493 -108.82489 
L 845.310918 -109.197931 
L 841.232344 -108.156894 
L 837.153769 -108.001853 
L 833.075194 -108.000002 
L 828.996619 -108.000307 
L 824.918045 -108.040917 
L 820.83947 -108.491106 
L 816.760895 -108.531604 
L 812.682321 -108.051897 
L 808.603746 -108.000457 
L 804.525171 -108.000001 
L 800.446597 -108.000863 
L 796.368022 -108.07607 
L 792.289447 -108.686823 
L 788.210873 -109.450952 
L 784.132298 -109.04308 
L 780.053723 -108.09054 
L 775.975148 -108.000725 
L 771.896574 -108.000001 
L 767.817999 -108 
L 763.739424 -108 
L 759.66085 -108 
L 755.582275 -108 
L 751.5037 -108 
L 747.425126 -108 
L 743.346551 -108.000008 
L 739.267976 -108.004703 
L 735.189402 -108.263662 
L 731.110827 -109.333045 
L 727.032252 -108.607829 
L 722.953677 -108.024995 
L 718.875103 -108.000093 
L 714.796528 -108 
L 710.717953 -108 
L 706.639379 -108 
L 702.560804 -108 
L 698.482229 -108 
L 694.403655 -108 
L 690.32508 -108 
L 686.246505 -108 
L 682.167931 -108.000001 
L 678.089356 -108.001316 
L 674.010781 -108.128697 
L 669.932206 -109.134956 
L 665.853632 -108.911009 
L 661.775057 -108.421983 
L 657.696482 -109.376582 
L 653.617908 -108.480056 
L 649.539333 -108.222652 
L 645.460758 -110.074275 
L 641.382184 -109.991774 
L 637.303609 -108.188307 
L 633.225034 -108.010396 
L 629.14646 -108.719492 
L 625.067885 -113.416707 
L 620.98931 -111.67778 
L 616.910735 -108.225204 
L 612.832161 -108.001244 
L 608.753586 -108.000001 
L 604.675011 -108 
L 600.596437 -108 
L 596.517862 -108 
L 592.439287 -108.000007 
L 588.360713 -108.005579 
L 584.282138 -108.396429 
L 580.203563 -110.628154 
L 576.124989 -110.502925 
L 572.046414 -109.078726 
L 567.967839 -108.087274 
L 563.889265 -108.00068 
L 559.81069 -108.000001 
L 555.732115 -108.00017 
L 551.65354 -108.036801 
L 547.574966 -108.722333 
L 543.496391 -109.396205 
L 539.417816 -108.863406 
L 535.339242 -108.318231 
L 531.260667 -108.013569 
L 527.182092 -108.000053 
L 523.103518 -108 
L 519.024943 -108 
L 514.946368 -108 
L 510.867794 -108 
L 506.789219 -108 
L 502.710644 -108 
L 498.632069 -108 
L 494.553495 -108 
L 490.47492 -108 
L 486.396345 -108 
L 482.317771 -108 
L 478.239196 -108 
L 474.160621 -108 
L 470.082047 -108 
L 466.003472 -108 
L 461.924897 -108 
L 457.846323 -108 
L 453.767748 -108 
L 449.689173 -108 
L 445.610598 -108 
L 441.532024 -108 
L 437.453449 -108 
L 433.374874 -108 
L 429.2963 -108.000033 
L 425.217725 -108.010027 
L 421.13915 -108.274649 
L 417.060576 -108.678431 
L 412.982001 -108.151696 
L 408.903426 -108.061481 
L 404.824852 -108.55158 
L 400.746277 -108.469464 
L 396.667702 -108.036036 
L 392.589127 -108.000249 
L 388.510553 -108 
L 384.431978 -108 
L 380.353403 -108 
L 376.274829 -108 
L 372.196254 -108 
L 368.117679 -108 
L 364.039105 -108.000162 
L 359.96053 -108.045785 
L 355.881955 -109.167961 
L 351.803381 -110.687051 
L 347.724806 -108.557531 
L 343.646231 -108.015616 
L 339.567656 -108.334259 
L 335.489082 -109.943667 
L 331.410507 -109.019349 
L 327.331932 -108.048213 
L 323.253358 -108.000206 
L 319.174783 -108 
L 315.096208 -108.000378 
L 311.017634 -108.046367 
L 306.939059 -108.512454 
L 302.860484 -108.510787 
L 298.78191 -108.045916 
L 294.703335 -108.000372 
L 290.62476 -108 
L 286.546185 -108 
L 282.467611 -108 
L 278.389036 -108 
L 274.310461 -108 
L 270.231887 -108 
L 266.153312 -108 
L 262.074737 -108 
L 257.996163 -108 
L 253.917588 -108 
L 249.839013 -108.000242 
L 245.760439 -108.035379 
L 241.681864 -108.466354 
L 237.603289 -108.562363 
L 233.524714 -108.482492 
L 229.44614 -110.018966 
L 225.367565 -108.868461 
L 221.28899 -108.0337 
L 217.210416 -108.000118 
L 213.131841 -108 
L 209.053266 -108.000007 
L 204.974692 -108.003531 
L 200.896117 -108.167491 
L 196.817542 -108.85989 
L 192.738968 -108.945482 
L 188.660393 -108.250708 
L 184.581818 -108.007705 
z
" id="m8b871d746b" style="stroke:#1f77b4;"/>
    </defs>
    <g clip-path="url(#p1ef46997a3)">
     <use style="fill:#1f77b4;fill-opacity:0.25;stroke:#1f77b4;" x="0" xlink:href="#m8b871d746b" y="864"/>
    </g>
   </g>
   <g id="matplotlib.axis_1">
    <g id="xtick_1">
     <g id="line2d_1">
      <defs>
       <path d="M 0 0 
L 0 3.5 
" id="m723002b094" style="stroke:#000000;stroke-width:0.8;"/>
      </defs>
      <g>
       <use style="stroke:#000000;stroke-width:0.8;" x="189.585911" xlink:href="#m723002b094" y="756"/>
      </g>
     </g>
     <g id="text_1">
      <!-- 0 -->
      <g transform="translate(186.404661 770.598438)scale(0.1 -0.1)">
       <defs>
        <path d="M 2034 4250 
Q 1547 4250 1301 3770 
Q 1056 3291 1056 2328 
Q 1056 1369 1301 889 
Q 1547 409 2034 409 
Q 2525 409 2770 889 
Q 3016 1369 3016 2328 
Q 3016 3291 2770 3770 
Q 2525 4250 2034 4250 
z
M 2034 4750 
Q 2819 4750 3233 4129 
Q 3647 3509 3647 2328 
Q 3647 1150 3233 529 
Q 2819 -91 2034 -91 
Q 1250 -91 836 529 
Q 422 1150 422 2328 
Q 422 3509 836 4129 
Q 1250 4750 2034 4750 
z
" id="DejaVuSans-30" transform="scale(0.015625)"/>
       </defs>
       <use xlink:href="#DejaVuSans-30"/>
      </g>
     </g>
    </g>
    <g id="xtick_2">
     <g id="line2d_2">
      <g>
       <use style="stroke:#000000;stroke-width:0.8;" x="291.536168" xlink:href="#m723002b094" y="756"/>
      </g>
     </g>
     <g id="text_2">
      <!-- 20 -->
      <g transform="translate(285.173668 770.598438)scale(0.1 -0.1)">
       <defs>
        <path d="M 1228 531 
L 3431 531 
L 3431 0 
L 469 0 
L 469 531 
Q 828 903 1448 1529 
Q 2069 2156 2228 2338 
Q 2531 2678 2651 2914 
Q 2772 3150 2772 3378 
Q 2772 3750 2511 3984 
Q 2250 4219 1831 4219 
Q 1534 4219 1204 4116 
Q 875 4013 500 3803 
L 500 4441 
Q 881 4594 1212 4672 
Q 1544 4750 1819 4750 
Q 2544 4750 2975 4387 
Q 3406 4025 3406 3419 
Q 3406 3131 3298 2873 
Q 3191 2616 2906 2266 
Q 2828 2175 2409 1742 
Q 1991 1309 1228 531 
z
" id="DejaVuSans-32" transform="scale(0.015625)"/>
       </defs>
       <use xlink:href="#DejaVuSans-32"/>
       <use x="63.623047" xlink:href="#DejaVuSans-30"/>
      </g>
     </g>
    </g>
    <g id="xtick_3">
     <g id="line2d_3">
      <g>
       <use style="stroke:#000000;stroke-width:0.8;" x="393.486425" xlink:href="#m723002b094" y="756"/>
      </g>
     </g>
     <g id="text_3">
      <!-- 40 -->
      <g transform="translate(387.123925 770.598438)scale(0.1 -0.1)">
       <defs>
        <path d="M 2419 4116 
L 825 1625 
L 2419 1625 
L 2419 4116 
z
M 2253 4666 
L 3047 4666 
L 3047 1625 
L 3713 1625 
L 3713 1100 
L 3047 1100 
L 3047 0 
L 2419 0 
L 2419 1100 
L 313 1100 
L 313 1709 
L 2253 4666 
z
" id="DejaVuSans-34" transform="scale(0.015625)"/>
       </defs>
       <use xlink:href="#DejaVuSans-34"/>
       <use x="63.623047" xlink:href="#DejaVuSans-30"/>
      </g>
     </g>
    </g>
    <g id="xtick_4">
     <g id="line2d_4">
      <g>
       <use style="stroke:#000000;stroke-width:0.8;" x="495.436682" xlink:href="#m723002b094" y="756"/>
      </g>
     </g>
     <g id="text_4">
      <!-- 60 -->
      <g transform="translate(489.074182 770.598438)scale(0.1 -0.1)">
       <defs>
        <path d="M 2113 2584 
Q 1688 2584 1439 2293 
Q 1191 2003 1191 1497 
Q 1191 994 1439 701 
Q 1688 409 2113 409 
Q 2538 409 2786 701 
Q 3034 994 3034 1497 
Q 3034 2003 2786 2293 
Q 2538 2584 2113 2584 
z
M 3366 4563 
L 3366 3988 
Q 3128 4100 2886 4159 
Q 2644 4219 2406 4219 
Q 1781 4219 1451 3797 
Q 1122 3375 1075 2522 
Q 1259 2794 1537 2939 
Q 1816 3084 2150 3084 
Q 2853 3084 3261 2657 
Q 3669 2231 3669 1497 
Q 3669 778 3244 343 
Q 2819 -91 2113 -91 
Q 1303 -91 875 529 
Q 447 1150 447 2328 
Q 447 3434 972 4092 
Q 1497 4750 2381 4750 
Q 2619 4750 2861 4703 
Q 3103 4656 3366 4563 
z
" id="DejaVuSans-36" transform="scale(0.015625)"/>
       </defs>
       <use xlink:href="#DejaVuSans-36"/>
       <use x="63.623047" xlink:href="#DejaVuSans-30"/>
      </g>
     </g>
    </g>
    <g id="xtick_5">
     <g id="line2d_5">
      <g>
       <use style="stroke:#000000;stroke-width:0.8;" x="597.386939" xlink:href="#m723002b094" y="756"/>
      </g>
     </g>
     <g id="text_5">
      <!-- 80 -->
      <g transform="translate(591.024439 770.598438)scale(0.1 -0.1)">
       <defs>
        <path d="M 2034 2216 
Q 1584 2216 1326 1975 
Q 1069 1734 1069 1313 
Q 1069 891 1326 650 
Q 1584 409 2034 409 
Q 2484 409 2743 651 
Q 3003 894 3003 1313 
Q 3003 1734 2745 1975 
Q 2488 2216 2034 2216 
z
M 1403 2484 
Q 997 2584 770 2862 
Q 544 3141 544 3541 
Q 544 4100 942 4425 
Q 1341 4750 2034 4750 
Q 2731 4750 3128 4425 
Q 3525 4100 3525 3541 
Q 3525 3141 3298 2862 
Q 3072 2584 2669 2484 
Q 3125 2378 3379 2068 
Q 3634 1759 3634 1313 
Q 3634 634 3220 271 
Q 2806 -91 2034 -91 
Q 1263 -91 848 271 
Q 434 634 434 1313 
Q 434 1759 690 2068 
Q 947 2378 1403 2484 
z
M 1172 3481 
Q 1172 3119 1398 2916 
Q 1625 2713 2034 2713 
Q 2441 2713 2670 2916 
Q 2900 3119 2900 3481 
Q 2900 3844 2670 4047 
Q 2441 4250 2034 4250 
Q 1625 4250 1398 4047 
Q 1172 3844 1172 3481 
z
" id="DejaVuSans-38" transform="scale(0.015625)"/>
       </defs>
       <use xlink:href="#DejaVuSans-38"/>
       <use x="63.623047" xlink:href="#DejaVuSans-30"/>
      </g>
     </g>
    </g>
    <g id="xtick_6">
     <g id="line2d_6">
      <g>
       <use style="stroke:#000000;stroke-width:0.8;" x="699.337196" xlink:href="#m723002b094" y="756"/>
      </g>
     </g>
     <g id="text_6">
      <!-- 100 -->
      <g transform="translate(689.793446 770.598438)scale(0.1 -0.1)">
       <defs>
        <path d="M 794 531 
L 1825 531 
L 1825 4091 
L 703 3866 
L 703 4441 
L 1819 4666 
L 2450 4666 
L 2450 531 
L 3481 531 
L 3481 0 
L 794 0 
L 794 531 
z
" id="DejaVuSans-31" transform="scale(0.015625)"/>
       </defs>
       <use xlink:href="#DejaVuSans-31"/>
       <use x="63.623047" xlink:href="#DejaVuSans-30"/>
       <use x="127.246094" xlink:href="#DejaVuSans-30"/>
      </g>
     </g>
    </g>
    <g id="xtick_7">
     <g id="line2d_7">
      <g>
       <use style="stroke:#000000;stroke-width:0.8;" x="801.287453" xlink:href="#m723002b094" y="756"/>
      </g>
     </g>
     <g id="text_7">
      <!-- 120 -->
      <g transform="translate(791.743703 770.598438)scale(0.1 -0.1)">
       <use xlink:href="#DejaVuSans-31"/>
       <use x="63.623047" xlink:href="#DejaVuSans-32"/>
       <use x="127.246094" xlink:href="#DejaVuSans-30"/>
      </g>
     </g>
    </g>
    <g id="xtick_8">
     <g id="line2d_8">
      <g>
       <use style="stroke:#000000;stroke-width:0.8;" x="903.237711" xlink:href="#m723002b094" y="756"/>
      </g>
     </g>
     <g id="text_8">
      <!-- 140 -->
      <g transform="translate(893.693961 770.598438)scale(0.1 -0.1)">
       <use xlink:href="#DejaVuSans-31"/>
       <use x="63.623047" xlink:href="#DejaVuSans-34"/>
       <use x="127.246094" xlink:href="#DejaVuSans-30"/>
      </g>
     </g>
    </g>
    <g id="xtick_9">
     <g id="line2d_9">
      <g>
       <use style="stroke:#000000;stroke-width:0.8;" x="1005.187968" xlink:href="#m723002b094" y="756"/>
      </g>
     </g>
     <g id="text_9">
      <!-- 160 -->
      <g transform="translate(995.644218 770.598438)scale(0.1 -0.1)">
       <use xlink:href="#DejaVuSans-31"/>
       <use x="63.623047" xlink:href="#DejaVuSans-36"/>
       <use x="127.246094" xlink:href="#DejaVuSans-30"/>
      </g>
     </g>
    </g>
    <g id="text_10">
     <!-- Image Score -->
     <g transform="translate(546.647812 787.315938)scale(0.14 -0.14)">
      <defs>
       <path d="M 628 4666 
L 1259 4666 
L 1259 0 
L 628 0 
L 628 4666 
z
" id="DejaVuSans-49" transform="scale(0.015625)"/>
       <path d="M 3328 2828 
Q 3544 3216 3844 3400 
Q 4144 3584 4550 3584 
Q 5097 3584 5394 3201 
Q 5691 2819 5691 2113 
L 5691 0 
L 5113 0 
L 5113 2094 
Q 5113 2597 4934 2840 
Q 4756 3084 4391 3084 
Q 3944 3084 3684 2787 
Q 3425 2491 3425 1978 
L 3425 0 
L 2847 0 
L 2847 2094 
Q 2847 2600 2669 2842 
Q 2491 3084 2119 3084 
Q 1678 3084 1418 2786 
Q 1159 2488 1159 1978 
L 1159 0 
L 581 0 
L 581 3500 
L 1159 3500 
L 1159 2956 
Q 1356 3278 1631 3431 
Q 1906 3584 2284 3584 
Q 2666 3584 2933 3390 
Q 3200 3197 3328 2828 
z
" id="DejaVuSans-6d" transform="scale(0.015625)"/>
       <path d="M 2194 1759 
Q 1497 1759 1228 1600 
Q 959 1441 959 1056 
Q 959 750 1161 570 
Q 1363 391 1709 391 
Q 2188 391 2477 730 
Q 2766 1069 2766 1631 
L 2766 1759 
L 2194 1759 
z
M 3341 1997 
L 3341 0 
L 2766 0 
L 2766 531 
Q 2569 213 2275 61 
Q 1981 -91 1556 -91 
Q 1019 -91 701 211 
Q 384 513 384 1019 
Q 384 1609 779 1909 
Q 1175 2209 1959 2209 
L 2766 2209 
L 2766 2266 
Q 2766 2663 2505 2880 
Q 2244 3097 1772 3097 
Q 1472 3097 1187 3025 
Q 903 2953 641 2809 
L 641 3341 
Q 956 3463 1253 3523 
Q 1550 3584 1831 3584 
Q 2591 3584 2966 3190 
Q 3341 2797 3341 1997 
z
" id="DejaVuSans-61" transform="scale(0.015625)"/>
       <path d="M 2906 1791 
Q 2906 2416 2648 2759 
Q 2391 3103 1925 3103 
Q 1463 3103 1205 2759 
Q 947 2416 947 1791 
Q 947 1169 1205 825 
Q 1463 481 1925 481 
Q 2391 481 2648 825 
Q 2906 1169 2906 1791 
z
M 3481 434 
Q 3481 -459 3084 -895 
Q 2688 -1331 1869 -1331 
Q 1566 -1331 1297 -1286 
Q 1028 -1241 775 -1147 
L 775 -588 
Q 1028 -725 1275 -790 
Q 1522 -856 1778 -856 
Q 2344 -856 2625 -561 
Q 2906 -266 2906 331 
L 2906 616 
Q 2728 306 2450 153 
Q 2172 0 1784 0 
Q 1141 0 747 490 
Q 353 981 353 1791 
Q 353 2603 747 3093 
Q 1141 3584 1784 3584 
Q 2172 3584 2450 3431 
Q 2728 3278 2906 2969 
L 2906 3500 
L 3481 3500 
L 3481 434 
z
" id="DejaVuSans-67" transform="scale(0.015625)"/>
       <path d="M 3597 1894 
L 3597 1613 
L 953 1613 
Q 991 1019 1311 708 
Q 1631 397 2203 397 
Q 2534 397 2845 478 
Q 3156 559 3463 722 
L 3463 178 
Q 3153 47 2828 -22 
Q 2503 -91 2169 -91 
Q 1331 -91 842 396 
Q 353 884 353 1716 
Q 353 2575 817 3079 
Q 1281 3584 2069 3584 
Q 2775 3584 3186 3129 
Q 3597 2675 3597 1894 
z
M 3022 2063 
Q 3016 2534 2758 2815 
Q 2500 3097 2075 3097 
Q 1594 3097 1305 2825 
Q 1016 2553 972 2059 
L 3022 2063 
z
" id="DejaVuSans-65" transform="scale(0.015625)"/>
       <path id="DejaVuSans-20" transform="scale(0.015625)"/>
       <path d="M 3425 4513 
L 3425 3897 
Q 3066 4069 2747 4153 
Q 2428 4238 2131 4238 
Q 1616 4238 1336 4038 
Q 1056 3838 1056 3469 
Q 1056 3159 1242 3001 
Q 1428 2844 1947 2747 
L 2328 2669 
Q 3034 2534 3370 2195 
Q 3706 1856 3706 1288 
Q 3706 609 3251 259 
Q 2797 -91 1919 -91 
Q 1588 -91 1214 -16 
Q 841 59 441 206 
L 441 856 
Q 825 641 1194 531 
Q 1563 422 1919 422 
Q 2459 422 2753 634 
Q 3047 847 3047 1241 
Q 3047 1584 2836 1778 
Q 2625 1972 2144 2069 
L 1759 2144 
Q 1053 2284 737 2584 
Q 422 2884 422 3419 
Q 422 4038 858 4394 
Q 1294 4750 2059 4750 
Q 2388 4750 2728 4690 
Q 3069 4631 3425 4513 
z
" id="DejaVuSans-53" transform="scale(0.015625)"/>
       <path d="M 3122 3366 
L 3122 2828 
Q 2878 2963 2633 3030 
Q 2388 3097 2138 3097 
Q 1578 3097 1268 2742 
Q 959 2388 959 1747 
Q 959 1106 1268 751 
Q 1578 397 2138 397 
Q 2388 397 2633 464 
Q 2878 531 3122 666 
L 3122 134 
Q 2881 22 2623 -34 
Q 2366 -91 2075 -91 
Q 1284 -91 818 406 
Q 353 903 353 1747 
Q 353 2603 823 3093 
Q 1294 3584 2113 3584 
Q 2378 3584 2631 3529 
Q 2884 3475 3122 3366 
z
" id="DejaVuSans-63" transform="scale(0.015625)"/>
       <path d="M 1959 3097 
Q 1497 3097 1228 2736 
Q 959 2375 959 1747 
Q 959 1119 1226 758 
Q 1494 397 1959 397 
Q 2419 397 2687 759 
Q 2956 1122 2956 1747 
Q 2956 2369 2687 2733 
Q 2419 3097 1959 3097 
z
M 1959 3584 
Q 2709 3584 3137 3096 
Q 3566 2609 3566 1747 
Q 3566 888 3137 398 
Q 2709 -91 1959 -91 
Q 1206 -91 779 398 
Q 353 888 353 1747 
Q 353 2609 779 3096 
Q 1206 3584 1959 3584 
z
" id="DejaVuSans-6f" transform="scale(0.015625)"/>
       <path d="M 2631 2963 
Q 2534 3019 2420 3045 
Q 2306 3072 2169 3072 
Q 1681 3072 1420 2755 
Q 1159 2438 1159 1844 
L 1159 0 
L 581 0 
L 581 3500 
L 1159 3500 
L 1159 2956 
Q 1341 3275 1631 3429 
Q 1922 3584 2338 3584 
Q 2397 3584 2469 3576 
Q 2541 3569 2628 3553 
L 2631 2963 
z
" id="DejaVuSans-72" transform="scale(0.015625)"/>
      </defs>
      <use xlink:href="#DejaVuSans-49"/>
      <use x="29.492188" xlink:href="#DejaVuSans-6d"/>
      <use x="126.904297" xlink:href="#DejaVuSans-61"/>
      <use x="188.183594" xlink:href="#DejaVuSans-67"/>
      <use x="251.660156" xlink:href="#DejaVuSans-65"/>
      <use x="313.183594" xlink:href="#DejaVuSans-20"/>
      <use x="344.970703" xlink:href="#DejaVuSans-53"/>
      <use x="408.447266" xlink:href="#DejaVuSans-63"/>
      <use x="463.427734" xlink:href="#DejaVuSans-6f"/>
      <use x="524.609375" xlink:href="#DejaVuSans-72"/>
      <use x="563.472656" xlink:href="#DejaVuSans-65"/>
     </g>
    </g>
   </g>
   <g id="matplotlib.axis_2">
    <g id="ytick_1">
     <g id="line2d_10">
      <defs>
       <path d="M 0 0 
L -3.5 0 
" id="m1efc464e43" style="stroke:#000000;stroke-width:0.8;"/>
      </defs>
      <g>
       <use style="stroke:#000000;stroke-width:0.8;" x="144" xlink:href="#m1efc464e43" y="756"/>
      </g>
     </g>
     <g id="text_11">
      <!-- 0.0 -->
      <g transform="translate(121.096875 759.799219)scale(0.1 -0.1)">
       <defs>
        <path d="M 684 794 
L 1344 794 
L 1344 0 
L 684 0 
L 684 794 
z
" id="DejaVuSans-2e" transform="scale(0.015625)"/>
       </defs>
       <use xlink:href="#DejaVuSans-30"/>
       <use x="63.623047" xlink:href="#DejaVuSans-2e"/>
       <use x="95.410156" xlink:href="#DejaVuSans-30"/>
      </g>
     </g>
    </g>
    <g id="ytick_2">
     <g id="line2d_11">
      <g>
       <use style="stroke:#000000;stroke-width:0.8;" x="144" xlink:href="#m1efc464e43" y="666.636777"/>
      </g>
     </g>
     <g id="text_12">
      <!-- 0.1 -->
      <g transform="translate(121.096875 670.435996)scale(0.1 -0.1)">
       <use xlink:href="#DejaVuSans-30"/>
       <use x="63.623047" xlink:href="#DejaVuSans-2e"/>
       <use x="95.410156" xlink:href="#DejaVuSans-31"/>
      </g>
     </g>
    </g>
    <g id="ytick_3">
     <g id="line2d_12">
      <g>
       <use style="stroke:#000000;stroke-width:0.8;" x="144" xlink:href="#m1efc464e43" y="577.273555"/>
      </g>
     </g>
     <g id="text_13">
      <!-- 0.2 -->
      <g transform="translate(121.096875 581.072773)scale(0.1 -0.1)">
       <use xlink:href="#DejaVuSans-30"/>
       <use x="63.623047" xlink:href="#DejaVuSans-2e"/>
       <use x="95.410156" xlink:href="#DejaVuSans-32"/>
      </g>
     </g>
    </g>
    <g id="ytick_4">
     <g id="line2d_13">
      <g>
       <use style="stroke:#000000;stroke-width:0.8;" x="144" xlink:href="#m1efc464e43" y="487.910332"/>
      </g>
     </g>
     <g id="text_14">
      <!-- 0.3 -->
      <g transform="translate(121.096875 491.709551)scale(0.1 -0.1)">
       <defs>
        <path d="M 2597 2516 
Q 3050 2419 3304 2112 
Q 3559 1806 3559 1356 
Q 3559 666 3084 287 
Q 2609 -91 1734 -91 
Q 1441 -91 1130 -33 
Q 819 25 488 141 
L 488 750 
Q 750 597 1062 519 
Q 1375 441 1716 441 
Q 2309 441 2620 675 
Q 2931 909 2931 1356 
Q 2931 1769 2642 2001 
Q 2353 2234 1838 2234 
L 1294 2234 
L 1294 2753 
L 1863 2753 
Q 2328 2753 2575 2939 
Q 2822 3125 2822 3475 
Q 2822 3834 2567 4026 
Q 2313 4219 1838 4219 
Q 1578 4219 1281 4162 
Q 984 4106 628 3988 
L 628 4550 
Q 988 4650 1302 4700 
Q 1616 4750 1894 4750 
Q 2613 4750 3031 4423 
Q 3450 4097 3450 3541 
Q 3450 3153 3228 2886 
Q 3006 2619 2597 2516 
z
" id="DejaVuSans-33" transform="scale(0.015625)"/>
       </defs>
       <use xlink:href="#DejaVuSans-30"/>
       <use x="63.623047" xlink:href="#DejaVuSans-2e"/>
       <use x="95.410156" xlink:href="#DejaVuSans-33"/>
      </g>
     </g>
    </g>
    <g id="ytick_5">
     <g id="line2d_14">
      <g>
       <use style="stroke:#000000;stroke-width:0.8;" x="144" xlink:href="#m1efc464e43" y="398.547109"/>
      </g>
     </g>
     <g id="text_15">
      <!-- 0.4 -->
      <g transform="translate(121.096875 402.346328)scale(0.1 -0.1)">
       <use xlink:href="#DejaVuSans-30"/>
       <use x="63.623047" xlink:href="#DejaVuSans-2e"/>
       <use x="95.410156" xlink:href="#DejaVuSans-34"/>
      </g>
     </g>
    </g>
    <g id="ytick_6">
     <g id="line2d_15">
      <g>
       <use style="stroke:#000000;stroke-width:0.8;" x="144" xlink:href="#m1efc464e43" y="309.183886"/>
      </g>
     </g>
     <g id="text_16">
      <!-- 0.5 -->
      <g transform="translate(121.096875 312.983105)scale(0.1 -0.1)">
       <defs>
        <path d="M 691 4666 
L 3169 4666 
L 3169 4134 
L 1269 4134 
L 1269 2991 
Q 1406 3038 1543 3061 
Q 1681 3084 1819 3084 
Q 2600 3084 3056 2656 
Q 3513 2228 3513 1497 
Q 3513 744 3044 326 
Q 2575 -91 1722 -91 
Q 1428 -91 1123 -41 
Q 819 9 494 109 
L 494 744 
Q 775 591 1075 516 
Q 1375 441 1709 441 
Q 2250 441 2565 725 
Q 2881 1009 2881 1497 
Q 2881 1984 2565 2268 
Q 2250 2553 1709 2553 
Q 1456 2553 1204 2497 
Q 953 2441 691 2322 
L 691 4666 
z
" id="DejaVuSans-35" transform="scale(0.015625)"/>
       </defs>
       <use xlink:href="#DejaVuSans-30"/>
       <use x="63.623047" xlink:href="#DejaVuSans-2e"/>
       <use x="95.410156" xlink:href="#DejaVuSans-35"/>
      </g>
     </g>
    </g>
    <g id="ytick_7">
     <g id="line2d_16">
      <g>
       <use style="stroke:#000000;stroke-width:0.8;" x="144" xlink:href="#m1efc464e43" y="219.820664"/>
      </g>
     </g>
     <g id="text_17">
      <!-- 0.6 -->
      <g transform="translate(121.096875 223.619882)scale(0.1 -0.1)">
       <use xlink:href="#DejaVuSans-30"/>
       <use x="63.623047" xlink:href="#DejaVuSans-2e"/>
       <use x="95.410156" xlink:href="#DejaVuSans-36"/>
      </g>
     </g>
    </g>
    <g id="ytick_8">
     <g id="line2d_17">
      <g>
       <use style="stroke:#000000;stroke-width:0.8;" x="144" xlink:href="#m1efc464e43" y="130.457441"/>
      </g>
     </g>
     <g id="text_18">
      <!-- 0.7 -->
      <g transform="translate(121.096875 134.25666)scale(0.1 -0.1)">
       <defs>
        <path d="M 525 4666 
L 3525 4666 
L 3525 4397 
L 1831 0 
L 1172 0 
L 2766 4134 
L 525 4134 
L 525 4666 
z
" id="DejaVuSans-37" transform="scale(0.015625)"/>
       </defs>
       <use xlink:href="#DejaVuSans-30"/>
       <use x="63.623047" xlink:href="#DejaVuSans-2e"/>
       <use x="95.410156" xlink:href="#DejaVuSans-37"/>
      </g>
     </g>
    </g>
    <g id="text_19">
     <!-- Density -->
     <g transform="translate(114.185312 456.452031)rotate(-90)scale(0.14 -0.14)">
      <defs>
       <path d="M 1259 4147 
L 1259 519 
L 2022 519 
Q 2988 519 3436 956 
Q 3884 1394 3884 2338 
Q 3884 3275 3436 3711 
Q 2988 4147 2022 4147 
L 1259 4147 
z
M 628 4666 
L 1925 4666 
Q 3281 4666 3915 4102 
Q 4550 3538 4550 2338 
Q 4550 1131 3912 565 
Q 3275 0 1925 0 
L 628 0 
L 628 4666 
z
" id="DejaVuSans-44" transform="scale(0.015625)"/>
       <path d="M 3513 2113 
L 3513 0 
L 2938 0 
L 2938 2094 
Q 2938 2591 2744 2837 
Q 2550 3084 2163 3084 
Q 1697 3084 1428 2787 
Q 1159 2491 1159 1978 
L 1159 0 
L 581 0 
L 581 3500 
L 1159 3500 
L 1159 2956 
Q 1366 3272 1645 3428 
Q 1925 3584 2291 3584 
Q 2894 3584 3203 3211 
Q 3513 2838 3513 2113 
z
" id="DejaVuSans-6e" transform="scale(0.015625)"/>
       <path d="M 2834 3397 
L 2834 2853 
Q 2591 2978 2328 3040 
Q 2066 3103 1784 3103 
Q 1356 3103 1142 2972 
Q 928 2841 928 2578 
Q 928 2378 1081 2264 
Q 1234 2150 1697 2047 
L 1894 2003 
Q 2506 1872 2764 1633 
Q 3022 1394 3022 966 
Q 3022 478 2636 193 
Q 2250 -91 1575 -91 
Q 1294 -91 989 -36 
Q 684 19 347 128 
L 347 722 
Q 666 556 975 473 
Q 1284 391 1588 391 
Q 1994 391 2212 530 
Q 2431 669 2431 922 
Q 2431 1156 2273 1281 
Q 2116 1406 1581 1522 
L 1381 1569 
Q 847 1681 609 1914 
Q 372 2147 372 2553 
Q 372 3047 722 3315 
Q 1072 3584 1716 3584 
Q 2034 3584 2315 3537 
Q 2597 3491 2834 3397 
z
" id="DejaVuSans-73" transform="scale(0.015625)"/>
       <path d="M 603 3500 
L 1178 3500 
L 1178 0 
L 603 0 
L 603 3500 
z
M 603 4863 
L 1178 4863 
L 1178 4134 
L 603 4134 
L 603 4863 
z
" id="DejaVuSans-69" transform="scale(0.015625)"/>
       <path d="M 1172 4494 
L 1172 3500 
L 2356 3500 
L 2356 3053 
L 1172 3053 
L 1172 1153 
Q 1172 725 1289 603 
Q 1406 481 1766 481 
L 2356 481 
L 2356 0 
L 1766 0 
Q 1100 0 847 248 
Q 594 497 594 1153 
L 594 3053 
L 172 3053 
L 172 3500 
L 594 3500 
L 594 4494 
L 1172 4494 
z
" id="DejaVuSans-74" transform="scale(0.015625)"/>
       <path d="M 2059 -325 
Q 1816 -950 1584 -1140 
Q 1353 -1331 966 -1331 
L 506 -1331 
L 506 -850 
L 844 -850 
Q 1081 -850 1212 -737 
Q 1344 -625 1503 -206 
L 1606 56 
L 191 3500 
L 800 3500 
L 1894 763 
L 2988 3500 
L 3597 3500 
L 2059 -325 
z
" id="DejaVuSans-79" transform="scale(0.015625)"/>
      </defs>
      <use xlink:href="#DejaVuSans-44"/>
      <use x="77.001953" xlink:href="#DejaVuSans-65"/>
      <use x="138.525391" xlink:href="#DejaVuSans-6e"/>
      <use x="201.904297" xlink:href="#DejaVuSans-73"/>
      <use x="254.003906" xlink:href="#DejaVuSans-69"/>
      <use x="281.787109" xlink:href="#DejaVuSans-74"/>
      <use x="320.996094" xlink:href="#DejaVuSans-79"/>
     </g>
    </g>
   </g>
   <g id="patch_3">
    <path d="M 144 756 
L 144 103.68 
" style="fill:none;stroke:#000000;stroke-linecap:square;stroke-linejoin:miter;stroke-width:0.8;"/>
   </g>
   <g id="patch_4">
    <path d="M 1036.8 756 
L 1036.8 103.68 
" style="fill:none;stroke:#000000;stroke-linecap:square;stroke-linejoin:miter;stroke-width:0.8;"/>
   </g>
   <g id="patch_5">
    <path d="M 144 756 
L 1036.8 756 
" style="fill:none;stroke:#000000;stroke-linecap:square;stroke-linejoin:miter;stroke-width:0.8;"/>
   </g>
   <g id="patch_6">
    <path d="M 144 103.68 
L 1036.8 103.68 
" style="fill:none;stroke:#000000;stroke-linecap:square;stroke-linejoin:miter;stroke-width:0.8;"/>
   </g>
   <g id="text_20">
    <!-- Quality of image -->
    <g transform="translate(515.811094 97.68)scale(0.18 -0.18)">
     <defs>
      <path d="M 2522 4238 
Q 1834 4238 1429 3725 
Q 1025 3213 1025 2328 
Q 1025 1447 1429 934 
Q 1834 422 2522 422 
Q 3209 422 3611 934 
Q 4013 1447 4013 2328 
Q 4013 3213 3611 3725 
Q 3209 4238 2522 4238 
z
M 3406 84 
L 4238 -825 
L 3475 -825 
L 2784 -78 
Q 2681 -84 2626 -87 
Q 2572 -91 2522 -91 
Q 1538 -91 948 567 
Q 359 1225 359 2328 
Q 359 3434 948 4092 
Q 1538 4750 2522 4750 
Q 3503 4750 4090 4092 
Q 4678 3434 4678 2328 
Q 4678 1516 4351 937 
Q 4025 359 3406 84 
z
" id="DejaVuSans-51" transform="scale(0.015625)"/>
      <path d="M 544 1381 
L 544 3500 
L 1119 3500 
L 1119 1403 
Q 1119 906 1312 657 
Q 1506 409 1894 409 
Q 2359 409 2629 706 
Q 2900 1003 2900 1516 
L 2900 3500 
L 3475 3500 
L 3475 0 
L 2900 0 
L 2900 538 
Q 2691 219 2414 64 
Q 2138 -91 1772 -91 
Q 1169 -91 856 284 
Q 544 659 544 1381 
z
M 1991 3584 
L 1991 3584 
z
" id="DejaVuSans-75" transform="scale(0.015625)"/>
      <path d="M 603 4863 
L 1178 4863 
L 1178 0 
L 603 0 
L 603 4863 
z
" id="DejaVuSans-6c" transform="scale(0.015625)"/>
      <path d="M 2375 4863 
L 2375 4384 
L 1825 4384 
Q 1516 4384 1395 4259 
Q 1275 4134 1275 3809 
L 1275 3500 
L 2222 3500 
L 2222 3053 
L 1275 3053 
L 1275 0 
L 697 0 
L 697 3053 
L 147 3053 
L 147 3500 
L 697 3500 
L 697 3744 
Q 697 4328 969 4595 
Q 1241 4863 1831 4863 
L 2375 4863 
z
" id="DejaVuSans-66" transform="scale(0.015625)"/>
     </defs>
     <use xlink:href="#DejaVuSans-51"/>
     <use x="78.710938" xlink:href="#DejaVuSans-75"/>
     <use x="142.089844" xlink:href="#DejaVuSans-61"/>
     <use x="203.369141" xlink:href="#DejaVuSans-6c"/>
     <use x="231.152344" xlink:href="#DejaVuSans-69"/>
     <use x="258.935547" xlink:href="#DejaVuSans-74"/>
     <use x="298.144531" xlink:href="#DejaVuSans-79"/>
     <use x="357.324219" xlink:href="#DejaVuSans-20"/>
     <use x="389.111328" xlink:href="#DejaVuSans-6f"/>
     <use x="450.292969" xlink:href="#DejaVuSans-66"/>
     <use x="485.498047" xlink:href="#DejaVuSans-20"/>
     <use x="517.285156" xlink:href="#DejaVuSans-69"/>
     <use x="545.068359" xlink:href="#DejaVuSans-6d"/>
     <use x="642.480469" xlink:href="#DejaVuSans-61"/>
     <use x="703.759766" xlink:href="#DejaVuSans-67"/>
     <use x="767.236328" xlink:href="#DejaVuSans-65"/>
    </g>
   </g>
  </g>
 </g>
 <defs>
  <clipPath id="p1ef46997a3">
   <rect height="652.32" width="892.8" x="144" y="103.68"/>
  </clipPath>
 </defs>
</svg>
