<?xml version="1.0" encoding="utf-8" standalone="no"?>
<!DOCTYPE svg PUBLIC "-//W3C//DTD SVG 1.1//EN"
  "http://www.w3.org/Graphics/SVG/1.1/DTD/svg11.dtd">
<svg height="864pt" version="1.1" viewBox="0 0 1152 864" width="1152pt" xmlns="http://www.w3.org/2000/svg" xmlns:xlink="http://www.w3.org/1999/xlink">
 <metadata>
  <rdf:RDF xmlns:cc="http://creativecommons.org/ns#" xmlns:dc="http://purl.org/dc/elements/1.1/" xmlns:rdf="http://www.w3.org/1999/02/22-rdf-syntax-ns#">
   <cc:Work>
    <dc:type rdf:resource="http://purl.org/dc/dcmitype/StillImage"/>
    <dc:date>2022-04-10T23:38:17.647212</dc:date>
    <dc:format>image/svg+xml</dc:format>
    <dc:creator>
     <cc:Agent>
      <dc:title>Matplotlib v3.4.3, https://matplotlib.org/</dc:title>
     </cc:Agent>
    </dc:creator>
   </cc:Work>
  </rdf:RDF>
 </metadata>
 <defs>
  <style type="text/css">*{stroke-linecap:butt;stroke-linejoin:round;}</style>
 </defs>
 <g id="figure_1">
  <g id="patch_1">
   <path d="M 0 864 
L 1152 864 
L 1152 0 
L 0 0 
z
" style="fill:none;"/>
  </g>
  <g id="axes_1">
   <g id="patch_2">
    <path d="M 144 756 
L 1036.8 756 
L 1036.8 103.68 
L 144 103.68 
z
" style="fill:#ffffff;"/>
   </g>
   <g id="matplotlib.axis_1">
    <g id="xtick_1">
     <g id="line2d_1">
      <defs>
       <path d="M 0 0 
L 0 3.5 
" id="md4ed40f904" style="stroke:#000000;stroke-width:0.8;"/>
      </defs>
      <g>
       <use style="stroke:#000000;stroke-width:0.8;" x="176.029485" xlink:href="#md4ed40f904" y="756"/>
      </g>
     </g>
     <g id="text_1">
      <!-- −5000 -->
      <g transform="translate(159.114641 770.598438)scale(0.1 -0.1)">
       <defs>
        <path d="M 678 2272 
L 4684 2272 
L 4684 1741 
L 678 1741 
L 678 2272 
z
" id="DejaVuSans-2212" transform="scale(0.015625)"/>
        <path d="M 691 4666 
L 3169 4666 
L 3169 4134 
L 1269 4134 
L 1269 2991 
Q 1406 3038 1543 3061 
Q 1681 3084 1819 3084 
Q 2600 3084 3056 2656 
Q 3513 2228 3513 1497 
Q 3513 744 3044 326 
Q 2575 -91 1722 -91 
Q 1428 -91 1123 -41 
Q 819 9 494 109 
L 494 744 
Q 775 591 1075 516 
Q 1375 441 1709 441 
Q 2250 441 2565 725 
Q 2881 1009 2881 1497 
Q 2881 1984 2565 2268 
Q 2250 2553 1709 2553 
Q 1456 2553 1204 2497 
Q 953 2441 691 2322 
L 691 4666 
z
" id="DejaVuSans-35" transform="scale(0.015625)"/>
        <path d="M 2034 4250 
Q 1547 4250 1301 3770 
Q 1056 3291 1056 2328 
Q 1056 1369 1301 889 
Q 1547 409 2034 409 
Q 2525 409 2770 889 
Q 3016 1369 3016 2328 
Q 3016 3291 2770 3770 
Q 2525 4250 2034 4250 
z
M 2034 4750 
Q 2819 4750 3233 4129 
Q 3647 3509 3647 2328 
Q 3647 1150 3233 529 
Q 2819 -91 2034 -91 
Q 1250 -91 836 529 
Q 422 1150 422 2328 
Q 422 3509 836 4129 
Q 1250 4750 2034 4750 
z
" id="DejaVuSans-30" transform="scale(0.015625)"/>
       </defs>
       <use xlink:href="#DejaVuSans-2212"/>
       <use x="83.789062" xlink:href="#DejaVuSans-35"/>
       <use x="147.412109" xlink:href="#DejaVuSans-30"/>
       <use x="211.035156" xlink:href="#DejaVuSans-30"/>
       <use x="274.658203" xlink:href="#DejaVuSans-30"/>
      </g>
     </g>
    </g>
    <g id="xtick_2">
     <g id="line2d_2">
      <g>
       <use style="stroke:#000000;stroke-width:0.8;" x="277.477852" xlink:href="#md4ed40f904" y="756"/>
      </g>
     </g>
     <g id="text_2">
      <!-- 0 -->
      <g transform="translate(274.296602 770.598438)scale(0.1 -0.1)">
       <use xlink:href="#DejaVuSans-30"/>
      </g>
     </g>
    </g>
    <g id="xtick_3">
     <g id="line2d_3">
      <g>
       <use style="stroke:#000000;stroke-width:0.8;" x="378.92622" xlink:href="#md4ed40f904" y="756"/>
      </g>
     </g>
     <g id="text_3">
      <!-- 5000 -->
      <g transform="translate(366.20122 770.598438)scale(0.1 -0.1)">
       <use xlink:href="#DejaVuSans-35"/>
       <use x="63.623047" xlink:href="#DejaVuSans-30"/>
       <use x="127.246094" xlink:href="#DejaVuSans-30"/>
       <use x="190.869141" xlink:href="#DejaVuSans-30"/>
      </g>
     </g>
    </g>
    <g id="xtick_4">
     <g id="line2d_4">
      <g>
       <use style="stroke:#000000;stroke-width:0.8;" x="480.374587" xlink:href="#md4ed40f904" y="756"/>
      </g>
     </g>
     <g id="text_4">
      <!-- 10000 -->
      <g transform="translate(464.468337 770.598438)scale(0.1 -0.1)">
       <defs>
        <path d="M 794 531 
L 1825 531 
L 1825 4091 
L 703 3866 
L 703 4441 
L 1819 4666 
L 2450 4666 
L 2450 531 
L 3481 531 
L 3481 0 
L 794 0 
L 794 531 
z
" id="DejaVuSans-31" transform="scale(0.015625)"/>
       </defs>
       <use xlink:href="#DejaVuSans-31"/>
       <use x="63.623047" xlink:href="#DejaVuSans-30"/>
       <use x="127.246094" xlink:href="#DejaVuSans-30"/>
       <use x="190.869141" xlink:href="#DejaVuSans-30"/>
       <use x="254.492188" xlink:href="#DejaVuSans-30"/>
      </g>
     </g>
    </g>
    <g id="xtick_5">
     <g id="line2d_5">
      <g>
       <use style="stroke:#000000;stroke-width:0.8;" x="581.822955" xlink:href="#md4ed40f904" y="756"/>
      </g>
     </g>
     <g id="text_5">
      <!-- 15000 -->
      <g transform="translate(565.916705 770.598438)scale(0.1 -0.1)">
       <use xlink:href="#DejaVuSans-31"/>
       <use x="63.623047" xlink:href="#DejaVuSans-35"/>
       <use x="127.246094" xlink:href="#DejaVuSans-30"/>
       <use x="190.869141" xlink:href="#DejaVuSans-30"/>
       <use x="254.492188" xlink:href="#DejaVuSans-30"/>
      </g>
     </g>
    </g>
    <g id="xtick_6">
     <g id="line2d_6">
      <g>
       <use style="stroke:#000000;stroke-width:0.8;" x="683.271322" xlink:href="#md4ed40f904" y="756"/>
      </g>
     </g>
     <g id="text_6">
      <!-- 20000 -->
      <g transform="translate(667.365072 770.598438)scale(0.1 -0.1)">
       <defs>
        <path d="M 1228 531 
L 3431 531 
L 3431 0 
L 469 0 
L 469 531 
Q 828 903 1448 1529 
Q 2069 2156 2228 2338 
Q 2531 2678 2651 2914 
Q 2772 3150 2772 3378 
Q 2772 3750 2511 3984 
Q 2250 4219 1831 4219 
Q 1534 4219 1204 4116 
Q 875 4013 500 3803 
L 500 4441 
Q 881 4594 1212 4672 
Q 1544 4750 1819 4750 
Q 2544 4750 2975 4387 
Q 3406 4025 3406 3419 
Q 3406 3131 3298 2873 
Q 3191 2616 2906 2266 
Q 2828 2175 2409 1742 
Q 1991 1309 1228 531 
z
" id="DejaVuSans-32" transform="scale(0.015625)"/>
       </defs>
       <use xlink:href="#DejaVuSans-32"/>
       <use x="63.623047" xlink:href="#DejaVuSans-30"/>
       <use x="127.246094" xlink:href="#DejaVuSans-30"/>
       <use x="190.869141" xlink:href="#DejaVuSans-30"/>
       <use x="254.492188" xlink:href="#DejaVuSans-30"/>
      </g>
     </g>
    </g>
    <g id="xtick_7">
     <g id="line2d_7">
      <g>
       <use style="stroke:#000000;stroke-width:0.8;" x="784.719689" xlink:href="#md4ed40f904" y="756"/>
      </g>
     </g>
     <g id="text_7">
      <!-- 25000 -->
      <g transform="translate(768.813439 770.598438)scale(0.1 -0.1)">
       <use xlink:href="#DejaVuSans-32"/>
       <use x="63.623047" xlink:href="#DejaVuSans-35"/>
       <use x="127.246094" xlink:href="#DejaVuSans-30"/>
       <use x="190.869141" xlink:href="#DejaVuSans-30"/>
       <use x="254.492188" xlink:href="#DejaVuSans-30"/>
      </g>
     </g>
    </g>
    <g id="xtick_8">
     <g id="line2d_8">
      <g>
       <use style="stroke:#000000;stroke-width:0.8;" x="886.168057" xlink:href="#md4ed40f904" y="756"/>
      </g>
     </g>
     <g id="text_8">
      <!-- 30000 -->
      <g transform="translate(870.261807 770.598438)scale(0.1 -0.1)">
       <defs>
        <path d="M 2597 2516 
Q 3050 2419 3304 2112 
Q 3559 1806 3559 1356 
Q 3559 666 3084 287 
Q 2609 -91 1734 -91 
Q 1441 -91 1130 -33 
Q 819 25 488 141 
L 488 750 
Q 750 597 1062 519 
Q 1375 441 1716 441 
Q 2309 441 2620 675 
Q 2931 909 2931 1356 
Q 2931 1769 2642 2001 
Q 2353 2234 1838 2234 
L 1294 2234 
L 1294 2753 
L 1863 2753 
Q 2328 2753 2575 2939 
Q 2822 3125 2822 3475 
Q 2822 3834 2567 4026 
Q 2313 4219 1838 4219 
Q 1578 4219 1281 4162 
Q 984 4106 628 3988 
L 628 4550 
Q 988 4650 1302 4700 
Q 1616 4750 1894 4750 
Q 2613 4750 3031 4423 
Q 3450 4097 3450 3541 
Q 3450 3153 3228 2886 
Q 3006 2619 2597 2516 
z
" id="DejaVuSans-33" transform="scale(0.015625)"/>
       </defs>
       <use xlink:href="#DejaVuSans-33"/>
       <use x="63.623047" xlink:href="#DejaVuSans-30"/>
       <use x="127.246094" xlink:href="#DejaVuSans-30"/>
       <use x="190.869141" xlink:href="#DejaVuSans-30"/>
       <use x="254.492188" xlink:href="#DejaVuSans-30"/>
      </g>
     </g>
    </g>
    <g id="xtick_9">
     <g id="line2d_9">
      <g>
       <use style="stroke:#000000;stroke-width:0.8;" x="987.616424" xlink:href="#md4ed40f904" y="756"/>
      </g>
     </g>
     <g id="text_9">
      <!-- 35000 -->
      <g transform="translate(971.710174 770.598438)scale(0.1 -0.1)">
       <use xlink:href="#DejaVuSans-33"/>
       <use x="63.623047" xlink:href="#DejaVuSans-35"/>
       <use x="127.246094" xlink:href="#DejaVuSans-30"/>
       <use x="190.869141" xlink:href="#DejaVuSans-30"/>
       <use x="254.492188" xlink:href="#DejaVuSans-30"/>
      </g>
     </g>
    </g>
    <g id="text_10">
     <!-- grayscale value -->
     <g transform="translate(535.262969 787.315938)scale(0.14 -0.14)">
      <defs>
       <path d="M 2906 1791 
Q 2906 2416 2648 2759 
Q 2391 3103 1925 3103 
Q 1463 3103 1205 2759 
Q 947 2416 947 1791 
Q 947 1169 1205 825 
Q 1463 481 1925 481 
Q 2391 481 2648 825 
Q 2906 1169 2906 1791 
z
M 3481 434 
Q 3481 -459 3084 -895 
Q 2688 -1331 1869 -1331 
Q 1566 -1331 1297 -1286 
Q 1028 -1241 775 -1147 
L 775 -588 
Q 1028 -725 1275 -790 
Q 1522 -856 1778 -856 
Q 2344 -856 2625 -561 
Q 2906 -266 2906 331 
L 2906 616 
Q 2728 306 2450 153 
Q 2172 0 1784 0 
Q 1141 0 747 490 
Q 353 981 353 1791 
Q 353 2603 747 3093 
Q 1141 3584 1784 3584 
Q 2172 3584 2450 3431 
Q 2728 3278 2906 2969 
L 2906 3500 
L 3481 3500 
L 3481 434 
z
" id="DejaVuSans-67" transform="scale(0.015625)"/>
       <path d="M 2631 2963 
Q 2534 3019 2420 3045 
Q 2306 3072 2169 3072 
Q 1681 3072 1420 2755 
Q 1159 2438 1159 1844 
L 1159 0 
L 581 0 
L 581 3500 
L 1159 3500 
L 1159 2956 
Q 1341 3275 1631 3429 
Q 1922 3584 2338 3584 
Q 2397 3584 2469 3576 
Q 2541 3569 2628 3553 
L 2631 2963 
z
" id="DejaVuSans-72" transform="scale(0.015625)"/>
       <path d="M 2194 1759 
Q 1497 1759 1228 1600 
Q 959 1441 959 1056 
Q 959 750 1161 570 
Q 1363 391 1709 391 
Q 2188 391 2477 730 
Q 2766 1069 2766 1631 
L 2766 1759 
L 2194 1759 
z
M 3341 1997 
L 3341 0 
L 2766 0 
L 2766 531 
Q 2569 213 2275 61 
Q 1981 -91 1556 -91 
Q 1019 -91 701 211 
Q 384 513 384 1019 
Q 384 1609 779 1909 
Q 1175 2209 1959 2209 
L 2766 2209 
L 2766 2266 
Q 2766 2663 2505 2880 
Q 2244 3097 1772 3097 
Q 1472 3097 1187 3025 
Q 903 2953 641 2809 
L 641 3341 
Q 956 3463 1253 3523 
Q 1550 3584 1831 3584 
Q 2591 3584 2966 3190 
Q 3341 2797 3341 1997 
z
" id="DejaVuSans-61" transform="scale(0.015625)"/>
       <path d="M 2059 -325 
Q 1816 -950 1584 -1140 
Q 1353 -1331 966 -1331 
L 506 -1331 
L 506 -850 
L 844 -850 
Q 1081 -850 1212 -737 
Q 1344 -625 1503 -206 
L 1606 56 
L 191 3500 
L 800 3500 
L 1894 763 
L 2988 3500 
L 3597 3500 
L 2059 -325 
z
" id="DejaVuSans-79" transform="scale(0.015625)"/>
       <path d="M 2834 3397 
L 2834 2853 
Q 2591 2978 2328 3040 
Q 2066 3103 1784 3103 
Q 1356 3103 1142 2972 
Q 928 2841 928 2578 
Q 928 2378 1081 2264 
Q 1234 2150 1697 2047 
L 1894 2003 
Q 2506 1872 2764 1633 
Q 3022 1394 3022 966 
Q 3022 478 2636 193 
Q 2250 -91 1575 -91 
Q 1294 -91 989 -36 
Q 684 19 347 128 
L 347 722 
Q 666 556 975 473 
Q 1284 391 1588 391 
Q 1994 391 2212 530 
Q 2431 669 2431 922 
Q 2431 1156 2273 1281 
Q 2116 1406 1581 1522 
L 1381 1569 
Q 847 1681 609 1914 
Q 372 2147 372 2553 
Q 372 3047 722 3315 
Q 1072 3584 1716 3584 
Q 2034 3584 2315 3537 
Q 2597 3491 2834 3397 
z
" id="DejaVuSans-73" transform="scale(0.015625)"/>
       <path d="M 3122 3366 
L 3122 2828 
Q 2878 2963 2633 3030 
Q 2388 3097 2138 3097 
Q 1578 3097 1268 2742 
Q 959 2388 959 1747 
Q 959 1106 1268 751 
Q 1578 397 2138 397 
Q 2388 397 2633 464 
Q 2878 531 3122 666 
L 3122 134 
Q 2881 22 2623 -34 
Q 2366 -91 2075 -91 
Q 1284 -91 818 406 
Q 353 903 353 1747 
Q 353 2603 823 3093 
Q 1294 3584 2113 3584 
Q 2378 3584 2631 3529 
Q 2884 3475 3122 3366 
z
" id="DejaVuSans-63" transform="scale(0.015625)"/>
       <path d="M 603 4863 
L 1178 4863 
L 1178 0 
L 603 0 
L 603 4863 
z
" id="DejaVuSans-6c" transform="scale(0.015625)"/>
       <path d="M 3597 1894 
L 3597 1613 
L 953 1613 
Q 991 1019 1311 708 
Q 1631 397 2203 397 
Q 2534 397 2845 478 
Q 3156 559 3463 722 
L 3463 178 
Q 3153 47 2828 -22 
Q 2503 -91 2169 -91 
Q 1331 -91 842 396 
Q 353 884 353 1716 
Q 353 2575 817 3079 
Q 1281 3584 2069 3584 
Q 2775 3584 3186 3129 
Q 3597 2675 3597 1894 
z
M 3022 2063 
Q 3016 2534 2758 2815 
Q 2500 3097 2075 3097 
Q 1594 3097 1305 2825 
Q 1016 2553 972 2059 
L 3022 2063 
z
" id="DejaVuSans-65" transform="scale(0.015625)"/>
       <path id="DejaVuSans-20" transform="scale(0.015625)"/>
       <path d="M 191 3500 
L 800 3500 
L 1894 563 
L 2988 3500 
L 3597 3500 
L 2284 0 
L 1503 0 
L 191 3500 
z
" id="DejaVuSans-76" transform="scale(0.015625)"/>
       <path d="M 544 1381 
L 544 3500 
L 1119 3500 
L 1119 1403 
Q 1119 906 1312 657 
Q 1506 409 1894 409 
Q 2359 409 2629 706 
Q 2900 1003 2900 1516 
L 2900 3500 
L 3475 3500 
L 3475 0 
L 2900 0 
L 2900 538 
Q 2691 219 2414 64 
Q 2138 -91 1772 -91 
Q 1169 -91 856 284 
Q 544 659 544 1381 
z
M 1991 3584 
L 1991 3584 
z
" id="DejaVuSans-75" transform="scale(0.015625)"/>
      </defs>
      <use xlink:href="#DejaVuSans-67"/>
      <use x="63.476562" xlink:href="#DejaVuSans-72"/>
      <use x="104.589844" xlink:href="#DejaVuSans-61"/>
      <use x="165.869141" xlink:href="#DejaVuSans-79"/>
      <use x="225.048828" xlink:href="#DejaVuSans-73"/>
      <use x="277.148438" xlink:href="#DejaVuSans-63"/>
      <use x="332.128906" xlink:href="#DejaVuSans-61"/>
      <use x="393.408203" xlink:href="#DejaVuSans-6c"/>
      <use x="421.191406" xlink:href="#DejaVuSans-65"/>
      <use x="482.714844" xlink:href="#DejaVuSans-20"/>
      <use x="514.501953" xlink:href="#DejaVuSans-76"/>
      <use x="573.681641" xlink:href="#DejaVuSans-61"/>
      <use x="634.960938" xlink:href="#DejaVuSans-6c"/>
      <use x="662.744141" xlink:href="#DejaVuSans-75"/>
      <use x="726.123047" xlink:href="#DejaVuSans-65"/>
     </g>
    </g>
   </g>
   <g id="matplotlib.axis_2">
    <g id="ytick_1">
     <g id="line2d_10">
      <defs>
       <path d="M 0 0 
L -3.5 0 
" id="m5bd2344141" style="stroke:#000000;stroke-width:0.8;"/>
      </defs>
      <g>
       <use style="stroke:#000000;stroke-width:0.8;" x="144" xlink:href="#m5bd2344141" y="756"/>
      </g>
     </g>
     <g id="text_11">
      <!-- 0.0000 -->
      <g transform="translate(102.009375 759.799219)scale(0.1 -0.1)">
       <defs>
        <path d="M 684 794 
L 1344 794 
L 1344 0 
L 684 0 
L 684 794 
z
" id="DejaVuSans-2e" transform="scale(0.015625)"/>
       </defs>
       <use xlink:href="#DejaVuSans-30"/>
       <use x="63.623047" xlink:href="#DejaVuSans-2e"/>
       <use x="95.410156" xlink:href="#DejaVuSans-30"/>
       <use x="159.033203" xlink:href="#DejaVuSans-30"/>
       <use x="222.65625" xlink:href="#DejaVuSans-30"/>
       <use x="286.279297" xlink:href="#DejaVuSans-30"/>
      </g>
     </g>
    </g>
    <g id="ytick_2">
     <g id="line2d_11">
      <g>
       <use style="stroke:#000000;stroke-width:0.8;" x="144" xlink:href="#m5bd2344141" y="647.216336"/>
      </g>
     </g>
     <g id="text_12">
      <!-- 0.0001 -->
      <g transform="translate(102.009375 651.015555)scale(0.1 -0.1)">
       <use xlink:href="#DejaVuSans-30"/>
       <use x="63.623047" xlink:href="#DejaVuSans-2e"/>
       <use x="95.410156" xlink:href="#DejaVuSans-30"/>
       <use x="159.033203" xlink:href="#DejaVuSans-30"/>
       <use x="222.65625" xlink:href="#DejaVuSans-30"/>
       <use x="286.279297" xlink:href="#DejaVuSans-31"/>
      </g>
     </g>
    </g>
    <g id="ytick_3">
     <g id="line2d_12">
      <g>
       <use style="stroke:#000000;stroke-width:0.8;" x="144" xlink:href="#m5bd2344141" y="538.432672"/>
      </g>
     </g>
     <g id="text_13">
      <!-- 0.0002 -->
      <g transform="translate(102.009375 542.231891)scale(0.1 -0.1)">
       <use xlink:href="#DejaVuSans-30"/>
       <use x="63.623047" xlink:href="#DejaVuSans-2e"/>
       <use x="95.410156" xlink:href="#DejaVuSans-30"/>
       <use x="159.033203" xlink:href="#DejaVuSans-30"/>
       <use x="222.65625" xlink:href="#DejaVuSans-30"/>
       <use x="286.279297" xlink:href="#DejaVuSans-32"/>
      </g>
     </g>
    </g>
    <g id="ytick_4">
     <g id="line2d_13">
      <g>
       <use style="stroke:#000000;stroke-width:0.8;" x="144" xlink:href="#m5bd2344141" y="429.649008"/>
      </g>
     </g>
     <g id="text_14">
      <!-- 0.0003 -->
      <g transform="translate(102.009375 433.448227)scale(0.1 -0.1)">
       <use xlink:href="#DejaVuSans-30"/>
       <use x="63.623047" xlink:href="#DejaVuSans-2e"/>
       <use x="95.410156" xlink:href="#DejaVuSans-30"/>
       <use x="159.033203" xlink:href="#DejaVuSans-30"/>
       <use x="222.65625" xlink:href="#DejaVuSans-30"/>
       <use x="286.279297" xlink:href="#DejaVuSans-33"/>
      </g>
     </g>
    </g>
    <g id="ytick_5">
     <g id="line2d_14">
      <g>
       <use style="stroke:#000000;stroke-width:0.8;" x="144" xlink:href="#m5bd2344141" y="320.865344"/>
      </g>
     </g>
     <g id="text_15">
      <!-- 0.0004 -->
      <g transform="translate(102.009375 324.664563)scale(0.1 -0.1)">
       <defs>
        <path d="M 2419 4116 
L 825 1625 
L 2419 1625 
L 2419 4116 
z
M 2253 4666 
L 3047 4666 
L 3047 1625 
L 3713 1625 
L 3713 1100 
L 3047 1100 
L 3047 0 
L 2419 0 
L 2419 1100 
L 313 1100 
L 313 1709 
L 2253 4666 
z
" id="DejaVuSans-34" transform="scale(0.015625)"/>
       </defs>
       <use xlink:href="#DejaVuSans-30"/>
       <use x="63.623047" xlink:href="#DejaVuSans-2e"/>
       <use x="95.410156" xlink:href="#DejaVuSans-30"/>
       <use x="159.033203" xlink:href="#DejaVuSans-30"/>
       <use x="222.65625" xlink:href="#DejaVuSans-30"/>
       <use x="286.279297" xlink:href="#DejaVuSans-34"/>
      </g>
     </g>
    </g>
    <g id="ytick_6">
     <g id="line2d_15">
      <g>
       <use style="stroke:#000000;stroke-width:0.8;" x="144" xlink:href="#m5bd2344141" y="212.08168"/>
      </g>
     </g>
     <g id="text_16">
      <!-- 0.0005 -->
      <g transform="translate(102.009375 215.880899)scale(0.1 -0.1)">
       <use xlink:href="#DejaVuSans-30"/>
       <use x="63.623047" xlink:href="#DejaVuSans-2e"/>
       <use x="95.410156" xlink:href="#DejaVuSans-30"/>
       <use x="159.033203" xlink:href="#DejaVuSans-30"/>
       <use x="222.65625" xlink:href="#DejaVuSans-30"/>
       <use x="286.279297" xlink:href="#DejaVuSans-35"/>
      </g>
     </g>
    </g>
    <g id="text_17">
     <!-- density -->
     <g transform="translate(95.097813 455.505937)rotate(-90)scale(0.14 -0.14)">
      <defs>
       <path d="M 2906 2969 
L 2906 4863 
L 3481 4863 
L 3481 0 
L 2906 0 
L 2906 525 
Q 2725 213 2448 61 
Q 2172 -91 1784 -91 
Q 1150 -91 751 415 
Q 353 922 353 1747 
Q 353 2572 751 3078 
Q 1150 3584 1784 3584 
Q 2172 3584 2448 3432 
Q 2725 3281 2906 2969 
z
M 947 1747 
Q 947 1113 1208 752 
Q 1469 391 1925 391 
Q 2381 391 2643 752 
Q 2906 1113 2906 1747 
Q 2906 2381 2643 2742 
Q 2381 3103 1925 3103 
Q 1469 3103 1208 2742 
Q 947 2381 947 1747 
z
" id="DejaVuSans-64" transform="scale(0.015625)"/>
       <path d="M 3513 2113 
L 3513 0 
L 2938 0 
L 2938 2094 
Q 2938 2591 2744 2837 
Q 2550 3084 2163 3084 
Q 1697 3084 1428 2787 
Q 1159 2491 1159 1978 
L 1159 0 
L 581 0 
L 581 3500 
L 1159 3500 
L 1159 2956 
Q 1366 3272 1645 3428 
Q 1925 3584 2291 3584 
Q 2894 3584 3203 3211 
Q 3513 2838 3513 2113 
z
" id="DejaVuSans-6e" transform="scale(0.015625)"/>
       <path d="M 603 3500 
L 1178 3500 
L 1178 0 
L 603 0 
L 603 3500 
z
M 603 4863 
L 1178 4863 
L 1178 4134 
L 603 4134 
L 603 4863 
z
" id="DejaVuSans-69" transform="scale(0.015625)"/>
       <path d="M 1172 4494 
L 1172 3500 
L 2356 3500 
L 2356 3053 
L 1172 3053 
L 1172 1153 
Q 1172 725 1289 603 
Q 1406 481 1766 481 
L 2356 481 
L 2356 0 
L 1766 0 
Q 1100 0 847 248 
Q 594 497 594 1153 
L 594 3053 
L 172 3053 
L 172 3500 
L 594 3500 
L 594 4494 
L 1172 4494 
z
" id="DejaVuSans-74" transform="scale(0.015625)"/>
      </defs>
      <use xlink:href="#DejaVuSans-64"/>
      <use x="63.476562" xlink:href="#DejaVuSans-65"/>
      <use x="125" xlink:href="#DejaVuSans-6e"/>
      <use x="188.378906" xlink:href="#DejaVuSans-73"/>
      <use x="240.478516" xlink:href="#DejaVuSans-69"/>
      <use x="268.261719" xlink:href="#DejaVuSans-74"/>
      <use x="307.470703" xlink:href="#DejaVuSans-79"/>
     </g>
    </g>
   </g>
   <g id="line2d_16">
    <path clip-path="url(#pf9cfb80f54)" d="M 184.581818 755.839356 
L 192.738968 755.639446 
L 200.896117 755.231281 
L 204.974692 754.898224 
L 209.053266 754.439784 
L 213.131841 753.816553 
L 217.210416 752.979657 
L 221.28899 751.869522 
L 225.367565 750.414869 
L 229.44614 748.532157 
L 233.524714 746.125709 
L 237.603289 743.08883 
L 241.681864 739.30624 
L 245.760439 734.658118 
L 249.839013 729.026016 
L 253.917588 722.300761 
L 257.996163 714.39226 
L 262.074737 705.240891 
L 266.153312 694.829815 
L 270.231887 683.197269 
L 274.310461 670.447565 
L 278.389036 656.759371 
L 286.546185 627.672729 
L 290.62476 613.011094 
L 294.703335 598.861546 
L 298.78191 585.713023 
L 302.860484 574.059651 
L 306.939059 564.37017 
L 311.017634 557.056395 
L 315.096208 552.443677 
L 319.174783 550.746292 
L 323.253358 552.05037 
L 327.331932 556.306256 
L 331.410507 563.331216 
L 335.489082 572.822299 
L 339.567656 584.378078 
L 343.646231 597.527042 
L 347.724806 611.759809 
L 359.96053 655.972032 
L 364.039105 669.776508 
L 368.117679 682.57502 
L 372.196254 694.170914 
L 376.274829 704.451836 
L 380.353403 713.381613 
L 384.431978 720.988196 
L 388.510553 727.349434 
L 392.589127 732.578269 
L 396.667702 736.808709 
L 400.746277 740.183556 
L 404.824852 742.844479 
L 408.903426 744.924656 
L 412.982001 746.543912 
L 417.060576 747.806066 
L 421.13915 748.798068 
L 425.217725 749.590466 
L 433.374874 750.785277 
L 441.532024 751.688626 
L 453.767748 752.802649 
L 470.082047 754.030357 
L 482.317771 754.711071 
L 490.47492 754.996856 
L 498.632069 755.09708 
L 506.789219 754.941775 
L 514.946368 754.422876 
L 519.024943 753.980505 
L 523.103518 753.385571 
L 527.182092 752.612405 
L 531.260667 751.634501 
L 535.339242 750.426188 
L 539.417816 748.964797 
L 543.496391 747.23323 
L 547.574966 745.222783 
L 551.65354 742.936011 
L 555.732115 740.389341 
L 559.81069 737.615128 
L 567.967839 731.598836 
L 576.124989 725.476858 
L 580.203563 722.616513 
L 584.282138 720.029885 
L 588.360713 717.818884 
L 592.439287 716.075018 
L 596.517862 714.873045 
L 600.596437 714.265547 
L 604.675011 714.279003 
L 608.753586 714.91173 
L 612.832161 716.133944 
L 616.910735 717.889918 
L 620.98931 720.102015 
L 625.067885 722.676195 
L 629.14646 725.508442 
L 645.460758 737.353616 
L 649.539333 740.008439 
L 653.617908 742.419152 
L 657.696482 744.555553 
L 661.775057 746.40408 
L 665.853632 747.965741 
L 669.932206 749.253451 
L 674.010781 750.289078 
L 678.089356 751.100491 
L 682.167931 751.718816 
L 686.246505 752.176069 
L 694.403655 752.728844 
L 702.560804 752.971833 
L 714.796528 753.071752 
L 739.267976 753.013349 
L 792.289447 752.704292 
L 808.603746 753.007445 
L 841.232344 753.683051 
L 890.17524 754.376186 
L 951.35386 755.807295 
L 975.825308 755.963995 
L 996.218182 755.994096 
L 996.218182 755.994096 
" style="fill:none;stroke:#1f77b4;stroke-linecap:square;stroke-width:1.5;"/>
   </g>
   <g id="line2d_17">
    <path clip-path="url(#pf9cfb80f54)" d="M 248.86753 755.556594 
L 250.813861 755.192097 
L 252.760192 754.578516 
L 254.706522 753.582558 
L 256.652853 752.021697 
L 258.599183 749.655942 
L 260.545514 746.180817 
L 262.491845 741.221037 
L 264.438175 734.323528 
L 266.384506 724.948479 
L 268.330836 712.459045 
L 270.277167 696.114642 
L 272.223498 675.079125 
L 274.169828 648.461394 
L 276.116159 615.408381 
L 278.062489 575.264998 
L 280.00882 527.799678 
L 281.955151 473.468861 
L 285.847812 350.873223 
L 287.794142 288.652666 
L 289.740473 231.395743 
L 291.686804 183.851845 
L 293.633134 150.479426 
L 295.579465 134.742857 
L 297.525795 138.505122 
L 299.472126 161.659007 
L 301.418457 202.089319 
L 303.364787 255.980083 
L 307.257448 384.019662 
L 309.203779 447.853695 
L 311.15011 505.814027 
L 313.09644 555.068498 
L 315.042771 594.136626 
L 316.989101 622.773659 
L 318.935432 641.711573 
L 320.881763 652.338073 
L 322.828093 656.383471 
L 324.774424 655.661933 
L 326.720754 651.887569 
L 332.559746 635.981662 
L 334.506077 632.41733 
L 336.452407 630.731387 
L 338.398738 631.201006 
L 340.345068 633.915349 
L 342.291399 638.79676 
L 344.23773 645.624189 
L 346.18406 654.061391 
L 348.130391 663.690899 
L 355.915713 705.101299 
L 357.862044 714.243141 
L 359.808374 722.392204 
L 361.754705 729.451593 
L 363.701036 735.404917 
L 365.647366 740.300203 
L 367.593697 744.231208 
L 369.540027 747.318865 
L 371.486358 749.694964 
L 373.432689 751.489345 
L 375.379019 752.821116 
L 377.32535 753.793712 
L 379.27168 754.493124 
L 381.218011 754.988413 
L 385.110672 755.569937 
L 389.003333 755.833025 
L 394.842325 755.967068 
L 412.359301 755.999958 
L 484.373533 755.928554 
L 492.158855 755.66171 
L 497.997847 755.228401 
L 505.783169 754.389741 
L 517.461153 752.931497 
L 523.300145 751.990424 
L 534.978128 749.779254 
L 538.870789 749.475783 
L 542.763451 749.496885 
L 550.548773 749.747005 
L 556.387765 749.595396 
L 560.280426 749.497058 
L 564.173087 749.631839 
L 568.065748 750.110538 
L 571.958409 750.903102 
L 581.690062 753.229088 
L 585.582724 753.913496 
L 589.475385 754.384482 
L 593.368046 754.670396 
L 599.207038 754.854057 
L 608.938691 755.049782 
L 618.670344 755.569859 
L 626.455666 755.881354 
L 636.187319 755.990059 
L 636.187319 755.990059 
" style="fill:none;stroke:#ff7f0e;stroke-linecap:square;stroke-width:1.5;"/>
   </g>
   <g id="patch_3">
    <path d="M 144 756 
L 144 103.68 
" style="fill:none;stroke:#000000;stroke-linecap:square;stroke-linejoin:miter;stroke-width:0.8;"/>
   </g>
   <g id="patch_4">
    <path d="M 1036.8 756 
L 1036.8 103.68 
" style="fill:none;stroke:#000000;stroke-linecap:square;stroke-linejoin:miter;stroke-width:0.8;"/>
   </g>
   <g id="patch_5">
    <path d="M 144 756 
L 1036.8 756 
" style="fill:none;stroke:#000000;stroke-linecap:square;stroke-linejoin:miter;stroke-width:0.8;"/>
   </g>
   <g id="patch_6">
    <path d="M 144 103.68 
L 1036.8 103.68 
" style="fill:none;stroke:#000000;stroke-linecap:square;stroke-linejoin:miter;stroke-width:0.8;"/>
   </g>
   <g id="text_18">
    <!-- mean/std density of images -->
    <g transform="translate(450.996875 97.68)scale(0.2 -0.2)">
     <defs>
      <path d="M 3328 2828 
Q 3544 3216 3844 3400 
Q 4144 3584 4550 3584 
Q 5097 3584 5394 3201 
Q 5691 2819 5691 2113 
L 5691 0 
L 5113 0 
L 5113 2094 
Q 5113 2597 4934 2840 
Q 4756 3084 4391 3084 
Q 3944 3084 3684 2787 
Q 3425 2491 3425 1978 
L 3425 0 
L 2847 0 
L 2847 2094 
Q 2847 2600 2669 2842 
Q 2491 3084 2119 3084 
Q 1678 3084 1418 2786 
Q 1159 2488 1159 1978 
L 1159 0 
L 581 0 
L 581 3500 
L 1159 3500 
L 1159 2956 
Q 1356 3278 1631 3431 
Q 1906 3584 2284 3584 
Q 2666 3584 2933 3390 
Q 3200 3197 3328 2828 
z
" id="DejaVuSans-6d" transform="scale(0.015625)"/>
      <path d="M 1625 4666 
L 2156 4666 
L 531 -594 
L 0 -594 
L 1625 4666 
z
" id="DejaVuSans-2f" transform="scale(0.015625)"/>
      <path d="M 1959 3097 
Q 1497 3097 1228 2736 
Q 959 2375 959 1747 
Q 959 1119 1226 758 
Q 1494 397 1959 397 
Q 2419 397 2687 759 
Q 2956 1122 2956 1747 
Q 2956 2369 2687 2733 
Q 2419 3097 1959 3097 
z
M 1959 3584 
Q 2709 3584 3137 3096 
Q 3566 2609 3566 1747 
Q 3566 888 3137 398 
Q 2709 -91 1959 -91 
Q 1206 -91 779 398 
Q 353 888 353 1747 
Q 353 2609 779 3096 
Q 1206 3584 1959 3584 
z
" id="DejaVuSans-6f" transform="scale(0.015625)"/>
      <path d="M 2375 4863 
L 2375 4384 
L 1825 4384 
Q 1516 4384 1395 4259 
Q 1275 4134 1275 3809 
L 1275 3500 
L 2222 3500 
L 2222 3053 
L 1275 3053 
L 1275 0 
L 697 0 
L 697 3053 
L 147 3053 
L 147 3500 
L 697 3500 
L 697 3744 
Q 697 4328 969 4595 
Q 1241 4863 1831 4863 
L 2375 4863 
z
" id="DejaVuSans-66" transform="scale(0.015625)"/>
     </defs>
     <use xlink:href="#DejaVuSans-6d"/>
     <use x="97.412109" xlink:href="#DejaVuSans-65"/>
     <use x="158.935547" xlink:href="#DejaVuSans-61"/>
     <use x="220.214844" xlink:href="#DejaVuSans-6e"/>
     <use x="283.59375" xlink:href="#DejaVuSans-2f"/>
     <use x="317.285156" xlink:href="#DejaVuSans-73"/>
     <use x="369.384766" xlink:href="#DejaVuSans-74"/>
     <use x="408.59375" xlink:href="#DejaVuSans-64"/>
     <use x="472.070312" xlink:href="#DejaVuSans-20"/>
     <use x="503.857422" xlink:href="#DejaVuSans-64"/>
     <use x="567.333984" xlink:href="#DejaVuSans-65"/>
     <use x="628.857422" xlink:href="#DejaVuSans-6e"/>
     <use x="692.236328" xlink:href="#DejaVuSans-73"/>
     <use x="744.335938" xlink:href="#DejaVuSans-69"/>
     <use x="772.119141" xlink:href="#DejaVuSans-74"/>
     <use x="811.328125" xlink:href="#DejaVuSans-79"/>
     <use x="870.507812" xlink:href="#DejaVuSans-20"/>
     <use x="902.294922" xlink:href="#DejaVuSans-6f"/>
     <use x="963.476562" xlink:href="#DejaVuSans-66"/>
     <use x="998.681641" xlink:href="#DejaVuSans-20"/>
     <use x="1030.46875" xlink:href="#DejaVuSans-69"/>
     <use x="1058.251953" xlink:href="#DejaVuSans-6d"/>
     <use x="1155.664062" xlink:href="#DejaVuSans-61"/>
     <use x="1216.943359" xlink:href="#DejaVuSans-67"/>
     <use x="1280.419922" xlink:href="#DejaVuSans-65"/>
     <use x="1341.943359" xlink:href="#DejaVuSans-73"/>
    </g>
   </g>
   <g id="legend_1">
    <g id="patch_7">
     <path d="M 958.096875 148.77875 
L 1029.8 148.77875 
Q 1031.8 148.77875 1031.8 146.77875 
L 1031.8 110.68 
Q 1031.8 108.68 1029.8 108.68 
L 958.096875 108.68 
Q 956.096875 108.68 956.096875 110.68 
L 956.096875 146.77875 
Q 956.096875 148.77875 958.096875 148.77875 
z
" style="fill:#ffffff;opacity:0.8;stroke:#cccccc;stroke-linejoin:miter;"/>
    </g>
    <g id="line2d_18">
     <path d="M 960.096875 119.817812 
L 980.096875 119.817812 
" style="fill:none;stroke:#1f77b4;stroke-linecap:square;stroke-width:1.5;"/>
    </g>
    <g id="line2d_19"/>
    <g id="text_19">
     <!-- mean -->
     <g transform="translate(988.096875 123.317812)scale(0.14 -0.14)">
      <use xlink:href="#DejaVuSans-6d"/>
      <use x="97.412109" xlink:href="#DejaVuSans-65"/>
      <use x="158.935547" xlink:href="#DejaVuSans-61"/>
      <use x="220.214844" xlink:href="#DejaVuSans-6e"/>
     </g>
    </g>
    <g id="line2d_20">
     <path d="M 960.096875 138.367188 
L 980.096875 138.367188 
" style="fill:none;stroke:#ff7f0e;stroke-linecap:square;stroke-width:1.5;"/>
    </g>
    <g id="line2d_21"/>
    <g id="text_20">
     <!-- std -->
     <g transform="translate(988.096875 141.867188)scale(0.14 -0.14)">
      <use xlink:href="#DejaVuSans-73"/>
      <use x="52.099609" xlink:href="#DejaVuSans-74"/>
      <use x="91.308594" xlink:href="#DejaVuSans-64"/>
     </g>
    </g>
   </g>
  </g>
 </g>
 <defs>
  <clipPath id="pf9cfb80f54">
   <rect height="652.32" width="892.8" x="144" y="103.68"/>
  </clipPath>
 </defs>
</svg>
