<?xml version="1.0" encoding="utf-8" standalone="no"?>
<!DOCTYPE svg PUBLIC "-//W3C//DTD SVG 1.1//EN"
  "http://www.w3.org/Graphics/SVG/1.1/DTD/svg11.dtd">
<svg height="864pt" version="1.1" viewBox="0 0 1152 864" width="1152pt" xmlns="http://www.w3.org/2000/svg" xmlns:xlink="http://www.w3.org/1999/xlink">
 <metadata>
  <rdf:RDF xmlns:cc="http://creativecommons.org/ns#" xmlns:dc="http://purl.org/dc/elements/1.1/" xmlns:rdf="http://www.w3.org/1999/02/22-rdf-syntax-ns#">
   <cc:Work>
    <dc:type rdf:resource="http://purl.org/dc/dcmitype/StillImage"/>
    <dc:date>2022-04-09T18:36:24.413993</dc:date>
    <dc:format>image/svg+xml</dc:format>
    <dc:creator>
     <cc:Agent>
      <dc:title>Matplotlib v3.4.3, https://matplotlib.org/</dc:title>
     </cc:Agent>
    </dc:creator>
   </cc:Work>
  </rdf:RDF>
 </metadata>
 <defs>
  <style type="text/css">*{stroke-linecap:butt;stroke-linejoin:round;}</style>
 </defs>
 <g id="figure_1">
  <g id="patch_1">
   <path d="M 0 864 
L 1152 864 
L 1152 0 
L 0 0 
z
" style="fill:none;"/>
  </g>
  <g id="axes_1">
   <g id="patch_2">
    <path d="M 144 756 
L 1036.8 756 
L 1036.8 103.68 
L 144 103.68 
z
" style="fill:#ffffff;"/>
   </g>
   <g id="PolyCollection_1">
    <defs>
     <path d="M 236.48179 -108.11832 
L 236.48179 -108 
L 240.254715 -108 
L 244.02764 -108 
L 247.800565 -108 
L 251.57349 -108 
L 255.346414 -108 
L 259.119339 -108 
L 262.892264 -108 
L 266.665189 -108 
L 270.438114 -108 
L 274.211038 -108 
L 277.983963 -108 
L 281.756888 -108 
L 285.529813 -108 
L 289.302737 -108 
L 293.075662 -108 
L 296.848587 -108 
L 300.621512 -108 
L 304.394437 -108 
L 308.167361 -108 
L 311.940286 -108 
L 315.713211 -108 
L 319.486136 -108 
L 323.259061 -108 
L 327.031985 -108 
L 330.80491 -108 
L 334.577835 -108 
L 338.35076 -108 
L 342.123685 -108 
L 345.896609 -108 
L 349.669534 -108 
L 353.442459 -108 
L 357.215384 -108 
L 360.988309 -108 
L 364.761233 -108 
L 368.534158 -108 
L 372.307083 -108 
L 376.080008 -108 
L 379.852933 -108 
L 383.625857 -108 
L 387.398782 -108 
L 391.171707 -108 
L 394.944632 -108 
L 398.717557 -108 
L 402.490481 -108 
L 406.263406 -108 
L 410.036331 -108 
L 413.809256 -108 
L 417.58218 -108 
L 421.355105 -108 
L 425.12803 -108 
L 428.900955 -108 
L 432.67388 -108 
L 436.446804 -108 
L 440.219729 -108 
L 443.992654 -108 
L 447.765579 -108 
L 451.538504 -108 
L 455.311428 -108 
L 459.084353 -108 
L 462.857278 -108 
L 466.630203 -108 
L 470.403128 -108 
L 474.176052 -108 
L 477.948977 -108 
L 481.721902 -108 
L 485.494827 -108 
L 489.267752 -108 
L 493.040676 -108 
L 496.813601 -108 
L 500.586526 -108 
L 504.359451 -108 
L 508.132376 -108 
L 511.9053 -108 
L 515.678225 -108 
L 519.45115 -108 
L 523.224075 -108 
L 526.997 -108 
L 530.769924 -108 
L 534.542849 -108 
L 538.315774 -108 
L 542.088699 -108 
L 545.861623 -108 
L 549.634548 -108 
L 553.407473 -108 
L 557.180398 -108 
L 560.953323 -108 
L 564.726247 -108 
L 568.499172 -108 
L 572.272097 -108 
L 576.045022 -108 
L 579.817947 -108 
L 583.590871 -108 
L 587.363796 -108 
L 591.136721 -108 
L 594.909646 -108 
L 598.682571 -108 
L 602.455495 -108 
L 606.22842 -108 
L 610.001345 -108 
L 613.77427 -108 
L 617.547195 -108 
L 621.320119 -108 
L 625.093044 -108 
L 628.865969 -108 
L 632.638894 -108 
L 636.411819 -108 
L 640.184743 -108 
L 643.957668 -108 
L 647.730593 -108 
L 651.503518 -108 
L 655.276442 -108 
L 659.049367 -108 
L 662.822292 -108 
L 666.595217 -108 
L 670.368142 -108 
L 674.141066 -108 
L 677.913991 -108 
L 681.686916 -108 
L 685.459841 -108 
L 689.232766 -108 
L 693.00569 -108 
L 696.778615 -108 
L 700.55154 -108 
L 704.324465 -108 
L 708.09739 -108 
L 711.870314 -108 
L 715.643239 -108 
L 719.416164 -108 
L 723.189089 -108 
L 726.962014 -108 
L 730.734938 -108 
L 734.507863 -108 
L 738.280788 -108 
L 742.053713 -108 
L 745.826638 -108 
L 749.599562 -108 
L 753.372487 -108 
L 757.145412 -108 
L 760.918337 -108 
L 764.691262 -108 
L 768.464186 -108 
L 772.237111 -108 
L 776.010036 -108 
L 779.782961 -108 
L 783.555885 -108 
L 787.32881 -108 
L 791.101735 -108 
L 794.87466 -108 
L 798.647585 -108 
L 802.420509 -108 
L 806.193434 -108 
L 809.966359 -108 
L 813.739284 -108 
L 817.512209 -108 
L 821.285133 -108 
L 825.058058 -108 
L 828.830983 -108 
L 832.603908 -108 
L 836.376833 -108 
L 840.149757 -108 
L 843.922682 -108 
L 847.695607 -108 
L 851.468532 -108 
L 855.241457 -108 
L 859.014381 -108 
L 862.787306 -108 
L 866.560231 -108 
L 870.333156 -108 
L 874.106081 -108 
L 877.879005 -108 
L 881.65193 -108 
L 885.424855 -108 
L 889.19778 -108 
L 892.970705 -108 
L 896.743629 -108 
L 900.516554 -108 
L 904.289479 -108 
L 908.062404 -108 
L 911.835328 -108 
L 915.608253 -108 
L 919.381178 -108 
L 923.154103 -108 
L 926.927028 -108 
L 930.699952 -108 
L 934.472877 -108 
L 938.245802 -108 
L 942.018727 -108 
L 945.791652 -108 
L 949.564576 -108 
L 953.337501 -108 
L 957.110426 -108 
L 960.883351 -108 
L 964.656276 -108 
L 968.4292 -108 
L 972.202125 -108 
L 975.97505 -108 
L 979.747975 -108 
L 983.5209 -108 
L 987.293824 -108 
L 987.293824 -108.121856 
L 987.293824 -108.121856 
L 983.5209 -110.914143 
L 979.747975 -122.757713 
L 975.97505 -137.220509 
L 972.202125 -175.665235 
L 968.4292 -209.116746 
L 964.656276 -216.416752 
L 960.883351 -269.830888 
L 957.110426 -342.259891 
L 953.337501 -427.121553 
L 949.564576 -417.144556 
L 945.791652 -336.143544 
L 942.018727 -430.308482 
L 938.245802 -681.469087 
L 934.472877 -729.257143 
L 930.699952 -684.333318 
L 926.927028 -660.521102 
L 923.154103 -485.635296 
L 919.381178 -371.033338 
L 915.608253 -401.629841 
L 911.835328 -380.875846 
L 908.062404 -323.87927 
L 904.289479 -283.710573 
L 900.516554 -305.488653 
L 896.743629 -322.475147 
L 892.970705 -282.876224 
L 889.19778 -208.522187 
L 885.424855 -202.66455 
L 881.65193 -203.159689 
L 877.879005 -179.458038 
L 874.106081 -181.060707 
L 870.333156 -206.25422 
L 866.560231 -207.025693 
L 862.787306 -199.083432 
L 859.014381 -209.021257 
L 855.241457 -204.091559 
L 851.468532 -206.088257 
L 847.695607 -184.109555 
L 843.922682 -175.205731 
L 840.149757 -182.065426 
L 836.376833 -192.255448 
L 832.603908 -181.159597 
L 828.830983 -169.535157 
L 825.058058 -174.436384 
L 821.285133 -152.497781 
L 817.512209 -143.118456 
L 813.739284 -167.059923 
L 809.966359 -178.237999 
L 806.193434 -163.180824 
L 802.420509 -150.703832 
L 798.647585 -143.614543 
L 794.87466 -149.291491 
L 791.101735 -137.240096 
L 787.32881 -136.945196 
L 783.555885 -143.969968 
L 779.782961 -152.545603 
L 776.010036 -161.767146 
L 772.237111 -136.34343 
L 768.464186 -135.350072 
L 764.691262 -129.888122 
L 760.918337 -113.252711 
L 757.145412 -111.876349 
L 753.372487 -135.725829 
L 749.599562 -161.57714 
L 745.826638 -143.816389 
L 742.053713 -139.578742 
L 738.280788 -146.655741 
L 734.507863 -141.80079 
L 730.734938 -130.221795 
L 726.962014 -120.299128 
L 723.189089 -111.75473 
L 719.416164 -118.446107 
L 715.643239 -128.184896 
L 711.870314 -120.475414 
L 708.09739 -119.444913 
L 704.324465 -114.983353 
L 700.55154 -118.107278 
L 696.778615 -115.073041 
L 693.00569 -108.886695 
L 689.232766 -108.01926 
L 685.459841 -108.000072 
L 681.686916 -108 
L 677.913991 -108.000075 
L 674.141066 -108.023337 
L 670.368142 -109.281226 
L 666.595217 -120.686721 
L 662.822292 -136.031079 
L 659.049367 -135.264631 
L 655.276442 -121.348857 
L 651.503518 -123.437322 
L 647.730593 -129.941842 
L 643.957668 -123.959962 
L 640.184743 -112.820296 
L 636.411819 -108.330581 
L 632.638894 -108.083978 
L 628.865969 -110.092406 
L 625.093044 -117.492609 
L 621.320119 -115.45701 
L 617.547195 -109.014335 
L 613.77427 -108.023891 
L 610.001345 -108.000443 
L 606.22842 -108.071102 
L 602.455495 -110.582366 
L 598.682571 -125.159547 
L 594.909646 -133.29782 
L 591.136721 -121.032407 
L 587.363796 -110.608527 
L 583.590871 -114.559207 
L 579.817947 -128.770128 
L 576.045022 -119.679485 
L 572.272097 -111.469337 
L 568.499172 -117.790213 
L 564.726247 -115.046136 
L 560.953323 -108.879795 
L 557.180398 -108.019022 
L 553.407473 -108.000071 
L 549.634548 -108 
L 545.861623 -108 
L 542.088699 -108 
L 538.315774 -108 
L 534.542849 -108.000001 
L 530.769924 -108.001124 
L 526.997 -108.163757 
L 523.224075 -112.22513 
L 519.45115 -128.231111 
L 515.678225 -131.299043 
L 511.9053 -118.898199 
L 508.132376 -110.971825 
L 504.359451 -116.278522 
L 500.586526 -116.91429 
L 496.813601 -111.2086 
L 493.040676 -116.74454 
L 489.267752 -116.415122 
L 485.494827 -109.410901 
L 481.721902 -108.072001 
L 477.948977 -109.192418 
L 474.176052 -115.927289 
L 470.403128 -117.127116 
L 466.630203 -109.819617 
L 462.857278 -108.062815 
L 459.084353 -108.000377 
L 455.311428 -108.000836 
L 451.538504 -108.110104 
L 447.765579 -110.5123 
L 443.992654 -117.928338 
L 440.219729 -115.013726 
L 436.446804 -112.491957 
L 432.67388 -118.574582 
L 428.900955 -113.234542 
L 425.12803 -108.449388 
L 421.355105 -108.014772 
L 417.58218 -108.509352 
L 413.809256 -113.550811 
L 410.036331 -118.474832 
L 406.263406 -111.422751 
L 402.490481 -108.193661 
L 398.717557 -108.001897 
L 394.944632 -108.000003 
L 391.171707 -108 
L 387.398782 -108 
L 383.625857 -108 
L 379.852933 -108 
L 376.080008 -108 
L 372.307083 -108 
L 368.534158 -108 
L 364.761233 -108 
L 360.988309 -108 
L 357.215384 -108 
L 353.442459 -108 
L 349.669534 -108 
L 345.896609 -108 
L 342.123685 -108 
L 338.35076 -108 
L 334.577835 -108 
L 330.80491 -108 
L 327.031985 -108 
L 323.259061 -108 
L 319.486136 -108 
L 315.713211 -108 
L 311.940286 -108 
L 308.167361 -108 
L 304.394437 -108 
L 300.621512 -108 
L 296.848587 -108 
L 293.075662 -108 
L 289.302737 -108 
L 285.529813 -108 
L 281.756888 -108 
L 277.983963 -108 
L 274.211038 -108 
L 270.438114 -108 
L 266.665189 -108 
L 262.892264 -108 
L 259.119339 -108.000052 
L 255.346414 -108.015138 
L 251.57349 -108.761701 
L 247.800565 -114.636614 
L 244.02764 -118.012589 
L 240.254715 -110.615676 
L 236.48179 -108.11832 
z
" id="m69014f528c" style="stroke:#ff7f0e;"/>
    </defs>
    <g clip-path="url(#p525940a501)">
     <use style="fill:#ff7f0e;fill-opacity:0.25;stroke:#ff7f0e;" x="0" xlink:href="#m69014f528c" y="864"/>
    </g>
   </g>
   <g id="PolyCollection_2">
    <defs>
     <path d="M 184.581818 -108.097717 
L 184.581818 -108 
L 188.660393 -108 
L 192.738968 -108 
L 196.817542 -108 
L 200.896117 -108 
L 204.974692 -108 
L 209.053266 -108 
L 213.131841 -108 
L 217.210416 -108 
L 221.28899 -108 
L 225.367565 -108 
L 229.44614 -108 
L 233.524714 -108 
L 237.603289 -108 
L 241.681864 -108 
L 245.760439 -108 
L 249.839013 -108 
L 253.917588 -108 
L 257.996163 -108 
L 262.074737 -108 
L 266.153312 -108 
L 270.231887 -108 
L 274.310461 -108 
L 278.389036 -108 
L 282.467611 -108 
L 286.546185 -108 
L 290.62476 -108 
L 294.703335 -108 
L 298.78191 -108 
L 302.860484 -108 
L 306.939059 -108 
L 311.017634 -108 
L 315.096208 -108 
L 319.174783 -108 
L 323.253358 -108 
L 327.331932 -108 
L 331.410507 -108 
L 335.489082 -108 
L 339.567656 -108 
L 343.646231 -108 
L 347.724806 -108 
L 351.803381 -108 
L 355.881955 -108 
L 359.96053 -108 
L 364.039105 -108 
L 368.117679 -108 
L 372.196254 -108 
L 376.274829 -108 
L 380.353403 -108 
L 384.431978 -108 
L 388.510553 -108 
L 392.589127 -108 
L 396.667702 -108 
L 400.746277 -108 
L 404.824852 -108 
L 408.903426 -108 
L 412.982001 -108 
L 417.060576 -108 
L 421.13915 -108 
L 425.217725 -108 
L 429.2963 -108 
L 433.374874 -108 
L 437.453449 -108 
L 441.532024 -108 
L 445.610598 -108 
L 449.689173 -108 
L 453.767748 -108 
L 457.846323 -108 
L 461.924897 -108 
L 466.003472 -108 
L 470.082047 -108 
L 474.160621 -108 
L 478.239196 -108 
L 482.317771 -108 
L 486.396345 -108 
L 490.47492 -108 
L 494.553495 -108 
L 498.632069 -108 
L 502.710644 -108 
L 506.789219 -108 
L 510.867794 -108 
L 514.946368 -108 
L 519.024943 -108 
L 523.103518 -108 
L 527.182092 -108 
L 531.260667 -108 
L 535.339242 -108 
L 539.417816 -108 
L 543.496391 -108 
L 547.574966 -108 
L 551.65354 -108 
L 555.732115 -108 
L 559.81069 -108 
L 563.889265 -108 
L 567.967839 -108 
L 572.046414 -108 
L 576.124989 -108 
L 580.203563 -108 
L 584.282138 -108 
L 588.360713 -108 
L 592.439287 -108 
L 596.517862 -108 
L 600.596437 -108 
L 604.675011 -108 
L 608.753586 -108 
L 612.832161 -108 
L 616.910735 -108 
L 620.98931 -108 
L 625.067885 -108 
L 629.14646 -108 
L 633.225034 -108 
L 637.303609 -108 
L 641.382184 -108 
L 645.460758 -108 
L 649.539333 -108 
L 653.617908 -108 
L 657.696482 -108 
L 661.775057 -108 
L 665.853632 -108 
L 669.932206 -108 
L 674.010781 -108 
L 678.089356 -108 
L 682.167931 -108 
L 686.246505 -108 
L 690.32508 -108 
L 694.403655 -108 
L 698.482229 -108 
L 702.560804 -108 
L 706.639379 -108 
L 710.717953 -108 
L 714.796528 -108 
L 718.875103 -108 
L 722.953677 -108 
L 727.032252 -108 
L 731.110827 -108 
L 735.189402 -108 
L 739.267976 -108 
L 743.346551 -108 
L 747.425126 -108 
L 751.5037 -108 
L 755.582275 -108 
L 759.66085 -108 
L 763.739424 -108 
L 767.817999 -108 
L 771.896574 -108 
L 775.975148 -108 
L 780.053723 -108 
L 784.132298 -108 
L 788.210873 -108 
L 792.289447 -108 
L 796.368022 -108 
L 800.446597 -108 
L 804.525171 -108 
L 808.603746 -108 
L 812.682321 -108 
L 816.760895 -108 
L 820.83947 -108 
L 824.918045 -108 
L 828.996619 -108 
L 833.075194 -108 
L 837.153769 -108 
L 841.232344 -108 
L 845.310918 -108 
L 849.389493 -108 
L 853.468068 -108 
L 857.546642 -108 
L 861.625217 -108 
L 865.703792 -108 
L 869.782366 -108 
L 873.860941 -108 
L 877.939516 -108 
L 882.01809 -108 
L 886.096665 -108 
L 890.17524 -108 
L 894.253815 -108 
L 898.332389 -108 
L 902.410964 -108 
L 906.489539 -108 
L 910.568113 -108 
L 914.646688 -108 
L 918.725263 -108 
L 922.803837 -108 
L 926.882412 -108 
L 930.960987 -108 
L 935.039561 -108 
L 939.118136 -108 
L 943.196711 -108 
L 947.275286 -108 
L 951.35386 -108 
L 955.432435 -108 
L 959.51101 -108 
L 963.589584 -108 
L 967.668159 -108 
L 971.746734 -108 
L 975.825308 -108 
L 979.903883 -108 
L 983.982458 -108 
L 988.061032 -108 
L 992.139607 -108 
L 996.218182 -108 
L 996.218182 -108.098488 
L 996.218182 -108.098488 
L 992.139607 -109.749217 
L 988.061032 -116.481321 
L 983.982458 -122.087009 
L 979.903883 -118.160908 
L 975.825308 -112.61644 
L 971.746734 -122.151673 
L 967.668159 -144.663651 
L 963.589584 -165.120761 
L 959.51101 -186.393558 
L 955.432435 -210.388766 
L 951.35386 -261.539344 
L 947.275286 -290.677783 
L 943.196711 -318.58355 
L 939.118136 -331.083935 
L 935.039561 -277.481035 
L 930.960987 -245.199728 
L 926.882412 -291.57139 
L 922.803837 -293.001544 
L 918.725263 -275.38113 
L 914.646688 -297.088836 
L 910.568113 -249.954416 
L 906.489539 -171.772317 
L 902.410964 -144.440754 
L 898.332389 -143.790866 
L 894.253815 -151.604574 
L 890.17524 -145.460102 
L 886.096665 -135.942447 
L 882.01809 -133.982137 
L 877.939516 -139.893401 
L 873.860941 -144.896113 
L 869.782366 -135.520839 
L 865.703792 -134.616337 
L 861.625217 -140.340745 
L 857.546642 -144.857713 
L 853.468068 -140.844145 
L 849.389493 -134.502783 
L 845.310918 -133.587485 
L 841.232344 -135.28414 
L 837.153769 -140.211569 
L 833.075194 -135.828512 
L 828.996619 -135.269927 
L 824.918045 -131.966483 
L 820.83947 -117.94027 
L 816.760895 -123.465001 
L 812.682321 -139.524565 
L 808.603746 -149.354232 
L 804.525171 -142.545463 
L 800.446597 -133.737159 
L 796.368022 -133.371021 
L 792.289447 -136.351895 
L 788.210873 -129.285635 
L 784.132298 -119.709869 
L 780.053723 -112.019971 
L 775.975148 -108.433794 
L 771.896574 -108.322284 
L 767.817999 -111.285221 
L 763.739424 -116.583449 
L 759.66085 -113.543371 
L 755.582275 -108.884959 
L 751.5037 -108.047867 
L 747.425126 -108.634394 
L 743.346551 -115.809794 
L 739.267976 -132.296321 
L 735.189402 -127.159204 
L 731.110827 -111.864524 
L 727.032252 -108.9005 
L 722.953677 -112.992823 
L 718.875103 -116.741454 
L 714.796528 -112.069549 
L 710.717953 -112.242646 
L 706.639379 -122.004882 
L 702.560804 -122.52116 
L 698.482229 -112.293583 
L 694.403655 -108.367697 
L 690.32508 -108.571741 
L 686.246505 -112.552935 
L 682.167931 -118.76875 
L 678.089356 -125.738377 
L 674.010781 -133.528705 
L 669.932206 -121.287745 
L 665.853632 -110.125666 
L 661.775057 -109.636264 
L 657.696482 -116.988291 
L 653.617908 -123.923786 
L 649.539333 -117.103217 
L 645.460758 -109.590925 
L 641.382184 -108.239001 
L 637.303609 -110.280723 
L 633.225034 -115.909111 
L 629.14646 -114.782178 
L 625.067885 -109.437526 
L 620.98931 -108.075312 
L 616.910735 -108.000975 
L 612.832161 -108.000033 
L 608.753586 -108.006661 
L 604.675011 -108.361564 
L 600.596437 -112.850994 
L 596.517862 -124.087211 
L 592.439287 -121.186699 
L 588.360713 -110.675823 
L 584.282138 -108.342152 
L 580.203563 -110.63225 
L 576.124989 -116.209512 
L 572.046414 -114.332644 
L 567.967839 -109.207418 
L 563.889265 -108.056904 
L 559.81069 -108.001193 
L 555.732115 -108.048335 
L 551.65354 -109.089305 
L 547.574966 -114.068251 
L 543.496391 -116.355685 
L 539.417816 -110.843841 
L 535.339242 -108.23924 
L 531.260667 -108.004975 
L 527.182092 -108.000026 
L 523.103518 -108 
L 519.024943 -108 
L 514.946368 -108 
L 510.867794 -108 
L 506.789219 -108 
L 502.710644 -108 
L 498.632069 -108 
L 494.553495 -108 
L 490.47492 -108 
L 486.396345 -108 
L 482.317771 -108 
L 478.239196 -108 
L 474.160621 -108 
L 470.082047 -108 
L 466.003472 -108 
L 461.924897 -108 
L 457.846323 -108 
L 453.767748 -108 
L 449.689173 -108 
L 445.610598 -108 
L 441.532024 -108 
L 437.453449 -108 
L 433.374874 -108 
L 429.2963 -108 
L 425.217725 -108 
L 421.13915 -108 
L 417.060576 -108 
L 412.982001 -108 
L 408.903426 -108 
L 404.824852 -108 
L 400.746277 -108 
L 396.667702 -108 
L 392.589127 -108 
L 388.510553 -108 
L 384.431978 -108 
L 380.353403 -108 
L 376.274829 -108 
L 372.196254 -108 
L 368.117679 -108 
L 364.039105 -108 
L 359.96053 -108 
L 355.881955 -108 
L 351.803381 -108 
L 347.724806 -108 
L 343.646231 -108 
L 339.567656 -108 
L 335.489082 -108 
L 331.410507 -108 
L 327.331932 -108 
L 323.253358 -108 
L 319.174783 -108 
L 315.096208 -108 
L 311.017634 -108 
L 306.939059 -108 
L 302.860484 -108 
L 298.78191 -108 
L 294.703335 -108 
L 290.62476 -108 
L 286.546185 -108 
L 282.467611 -108 
L 278.389036 -108 
L 274.310461 -108 
L 270.231887 -108 
L 266.153312 -108 
L 262.074737 -108 
L 257.996163 -108 
L 253.917588 -108 
L 249.839013 -108 
L 245.760439 -108 
L 241.681864 -108 
L 237.603289 -108 
L 233.524714 -108 
L 229.44614 -108 
L 225.367565 -108 
L 221.28899 -108 
L 217.210416 -108 
L 213.131841 -108.000008 
L 209.053266 -108.002022 
L 204.974692 -108.127069 
L 200.896117 -109.973408 
L 196.817542 -115.575266 
L 192.738968 -115.187593 
L 188.660393 -109.685675 
L 184.581818 -108.097717 
z
" id="m455214d9a3" style="stroke:#1f77b4;"/>
    </defs>
    <g clip-path="url(#p525940a501)">
     <use style="fill:#1f77b4;fill-opacity:0.25;stroke:#1f77b4;" x="0" xlink:href="#m455214d9a3" y="864"/>
    </g>
   </g>
   <g id="matplotlib.axis_1">
    <g id="xtick_1">
     <g id="line2d_1">
      <defs>
       <path d="M 0 0 
L 0 3.5 
" id="m26697167f5" style="stroke:#000000;stroke-width:0.8;"/>
      </defs>
      <g>
       <use style="stroke:#000000;stroke-width:0.8;" x="145.145532" xlink:href="#m26697167f5" y="756"/>
      </g>
     </g>
     <g id="text_1">
      <!-- 95 -->
      <g transform="translate(138.783032 770.598438)scale(0.1 -0.1)">
       <defs>
        <path d="M 703 97 
L 703 672 
Q 941 559 1184 500 
Q 1428 441 1663 441 
Q 2288 441 2617 861 
Q 2947 1281 2994 2138 
Q 2813 1869 2534 1725 
Q 2256 1581 1919 1581 
Q 1219 1581 811 2004 
Q 403 2428 403 3163 
Q 403 3881 828 4315 
Q 1253 4750 1959 4750 
Q 2769 4750 3195 4129 
Q 3622 3509 3622 2328 
Q 3622 1225 3098 567 
Q 2575 -91 1691 -91 
Q 1453 -91 1209 -44 
Q 966 3 703 97 
z
M 1959 2075 
Q 2384 2075 2632 2365 
Q 2881 2656 2881 3163 
Q 2881 3666 2632 3958 
Q 2384 4250 1959 4250 
Q 1534 4250 1286 3958 
Q 1038 3666 1038 3163 
Q 1038 2656 1286 2365 
Q 1534 2075 1959 2075 
z
" id="DejaVuSans-39" transform="scale(0.015625)"/>
        <path d="M 691 4666 
L 3169 4666 
L 3169 4134 
L 1269 4134 
L 1269 2991 
Q 1406 3038 1543 3061 
Q 1681 3084 1819 3084 
Q 2600 3084 3056 2656 
Q 3513 2228 3513 1497 
Q 3513 744 3044 326 
Q 2575 -91 1722 -91 
Q 1428 -91 1123 -41 
Q 819 9 494 109 
L 494 744 
Q 775 591 1075 516 
Q 1375 441 1709 441 
Q 2250 441 2565 725 
Q 2881 1009 2881 1497 
Q 2881 1984 2565 2268 
Q 2250 2553 1709 2553 
Q 1456 2553 1204 2497 
Q 953 2441 691 2322 
L 691 4666 
z
" id="DejaVuSans-35" transform="scale(0.015625)"/>
       </defs>
       <use xlink:href="#DejaVuSans-39"/>
       <use x="63.623047" xlink:href="#DejaVuSans-35"/>
      </g>
     </g>
    </g>
    <g id="xtick_2">
     <g id="line2d_2">
      <g>
       <use style="stroke:#000000;stroke-width:0.8;" x="250.373816" xlink:href="#m26697167f5" y="756"/>
      </g>
     </g>
     <g id="text_2">
      <!-- 100 -->
      <g transform="translate(240.830066 770.598438)scale(0.1 -0.1)">
       <defs>
        <path d="M 794 531 
L 1825 531 
L 1825 4091 
L 703 3866 
L 703 4441 
L 1819 4666 
L 2450 4666 
L 2450 531 
L 3481 531 
L 3481 0 
L 794 0 
L 794 531 
z
" id="DejaVuSans-31" transform="scale(0.015625)"/>
        <path d="M 2034 4250 
Q 1547 4250 1301 3770 
Q 1056 3291 1056 2328 
Q 1056 1369 1301 889 
Q 1547 409 2034 409 
Q 2525 409 2770 889 
Q 3016 1369 3016 2328 
Q 3016 3291 2770 3770 
Q 2525 4250 2034 4250 
z
M 2034 4750 
Q 2819 4750 3233 4129 
Q 3647 3509 3647 2328 
Q 3647 1150 3233 529 
Q 2819 -91 2034 -91 
Q 1250 -91 836 529 
Q 422 1150 422 2328 
Q 422 3509 836 4129 
Q 1250 4750 2034 4750 
z
" id="DejaVuSans-30" transform="scale(0.015625)"/>
       </defs>
       <use xlink:href="#DejaVuSans-31"/>
       <use x="63.623047" xlink:href="#DejaVuSans-30"/>
       <use x="127.246094" xlink:href="#DejaVuSans-30"/>
      </g>
     </g>
    </g>
    <g id="xtick_3">
     <g id="line2d_3">
      <g>
       <use style="stroke:#000000;stroke-width:0.8;" x="355.602099" xlink:href="#m26697167f5" y="756"/>
      </g>
     </g>
     <g id="text_3">
      <!-- 105 -->
      <g transform="translate(346.058349 770.598438)scale(0.1 -0.1)">
       <use xlink:href="#DejaVuSans-31"/>
       <use x="63.623047" xlink:href="#DejaVuSans-30"/>
       <use x="127.246094" xlink:href="#DejaVuSans-35"/>
      </g>
     </g>
    </g>
    <g id="xtick_4">
     <g id="line2d_4">
      <g>
       <use style="stroke:#000000;stroke-width:0.8;" x="460.830382" xlink:href="#m26697167f5" y="756"/>
      </g>
     </g>
     <g id="text_4">
      <!-- 110 -->
      <g transform="translate(451.286632 770.598438)scale(0.1 -0.1)">
       <use xlink:href="#DejaVuSans-31"/>
       <use x="63.623047" xlink:href="#DejaVuSans-31"/>
       <use x="127.246094" xlink:href="#DejaVuSans-30"/>
      </g>
     </g>
    </g>
    <g id="xtick_5">
     <g id="line2d_5">
      <g>
       <use style="stroke:#000000;stroke-width:0.8;" x="566.058666" xlink:href="#m26697167f5" y="756"/>
      </g>
     </g>
     <g id="text_5">
      <!-- 115 -->
      <g transform="translate(556.514916 770.598438)scale(0.1 -0.1)">
       <use xlink:href="#DejaVuSans-31"/>
       <use x="63.623047" xlink:href="#DejaVuSans-31"/>
       <use x="127.246094" xlink:href="#DejaVuSans-35"/>
      </g>
     </g>
    </g>
    <g id="xtick_6">
     <g id="line2d_6">
      <g>
       <use style="stroke:#000000;stroke-width:0.8;" x="671.286949" xlink:href="#m26697167f5" y="756"/>
      </g>
     </g>
     <g id="text_6">
      <!-- 120 -->
      <g transform="translate(661.743199 770.598438)scale(0.1 -0.1)">
       <defs>
        <path d="M 1228 531 
L 3431 531 
L 3431 0 
L 469 0 
L 469 531 
Q 828 903 1448 1529 
Q 2069 2156 2228 2338 
Q 2531 2678 2651 2914 
Q 2772 3150 2772 3378 
Q 2772 3750 2511 3984 
Q 2250 4219 1831 4219 
Q 1534 4219 1204 4116 
Q 875 4013 500 3803 
L 500 4441 
Q 881 4594 1212 4672 
Q 1544 4750 1819 4750 
Q 2544 4750 2975 4387 
Q 3406 4025 3406 3419 
Q 3406 3131 3298 2873 
Q 3191 2616 2906 2266 
Q 2828 2175 2409 1742 
Q 1991 1309 1228 531 
z
" id="DejaVuSans-32" transform="scale(0.015625)"/>
       </defs>
       <use xlink:href="#DejaVuSans-31"/>
       <use x="63.623047" xlink:href="#DejaVuSans-32"/>
       <use x="127.246094" xlink:href="#DejaVuSans-30"/>
      </g>
     </g>
    </g>
    <g id="xtick_7">
     <g id="line2d_7">
      <g>
       <use style="stroke:#000000;stroke-width:0.8;" x="776.515232" xlink:href="#m26697167f5" y="756"/>
      </g>
     </g>
     <g id="text_7">
      <!-- 125 -->
      <g transform="translate(766.971482 770.598438)scale(0.1 -0.1)">
       <use xlink:href="#DejaVuSans-31"/>
       <use x="63.623047" xlink:href="#DejaVuSans-32"/>
       <use x="127.246094" xlink:href="#DejaVuSans-35"/>
      </g>
     </g>
    </g>
    <g id="xtick_8">
     <g id="line2d_8">
      <g>
       <use style="stroke:#000000;stroke-width:0.8;" x="881.743516" xlink:href="#m26697167f5" y="756"/>
      </g>
     </g>
     <g id="text_8">
      <!-- 130 -->
      <g transform="translate(872.199766 770.598438)scale(0.1 -0.1)">
       <defs>
        <path d="M 2597 2516 
Q 3050 2419 3304 2112 
Q 3559 1806 3559 1356 
Q 3559 666 3084 287 
Q 2609 -91 1734 -91 
Q 1441 -91 1130 -33 
Q 819 25 488 141 
L 488 750 
Q 750 597 1062 519 
Q 1375 441 1716 441 
Q 2309 441 2620 675 
Q 2931 909 2931 1356 
Q 2931 1769 2642 2001 
Q 2353 2234 1838 2234 
L 1294 2234 
L 1294 2753 
L 1863 2753 
Q 2328 2753 2575 2939 
Q 2822 3125 2822 3475 
Q 2822 3834 2567 4026 
Q 2313 4219 1838 4219 
Q 1578 4219 1281 4162 
Q 984 4106 628 3988 
L 628 4550 
Q 988 4650 1302 4700 
Q 1616 4750 1894 4750 
Q 2613 4750 3031 4423 
Q 3450 4097 3450 3541 
Q 3450 3153 3228 2886 
Q 3006 2619 2597 2516 
z
" id="DejaVuSans-33" transform="scale(0.015625)"/>
       </defs>
       <use xlink:href="#DejaVuSans-31"/>
       <use x="63.623047" xlink:href="#DejaVuSans-33"/>
       <use x="127.246094" xlink:href="#DejaVuSans-30"/>
      </g>
     </g>
    </g>
    <g id="xtick_9">
     <g id="line2d_9">
      <g>
       <use style="stroke:#000000;stroke-width:0.8;" x="986.971799" xlink:href="#m26697167f5" y="756"/>
      </g>
     </g>
     <g id="text_9">
      <!-- 135 -->
      <g transform="translate(977.428049 770.598438)scale(0.1 -0.1)">
       <use xlink:href="#DejaVuSans-31"/>
       <use x="63.623047" xlink:href="#DejaVuSans-33"/>
       <use x="127.246094" xlink:href="#DejaVuSans-35"/>
      </g>
     </g>
    </g>
    <g id="text_10">
     <!-- Image Score -->
     <g transform="translate(546.647812 787.315938)scale(0.14 -0.14)">
      <defs>
       <path d="M 628 4666 
L 1259 4666 
L 1259 0 
L 628 0 
L 628 4666 
z
" id="DejaVuSans-49" transform="scale(0.015625)"/>
       <path d="M 3328 2828 
Q 3544 3216 3844 3400 
Q 4144 3584 4550 3584 
Q 5097 3584 5394 3201 
Q 5691 2819 5691 2113 
L 5691 0 
L 5113 0 
L 5113 2094 
Q 5113 2597 4934 2840 
Q 4756 3084 4391 3084 
Q 3944 3084 3684 2787 
Q 3425 2491 3425 1978 
L 3425 0 
L 2847 0 
L 2847 2094 
Q 2847 2600 2669 2842 
Q 2491 3084 2119 3084 
Q 1678 3084 1418 2786 
Q 1159 2488 1159 1978 
L 1159 0 
L 581 0 
L 581 3500 
L 1159 3500 
L 1159 2956 
Q 1356 3278 1631 3431 
Q 1906 3584 2284 3584 
Q 2666 3584 2933 3390 
Q 3200 3197 3328 2828 
z
" id="DejaVuSans-6d" transform="scale(0.015625)"/>
       <path d="M 2194 1759 
Q 1497 1759 1228 1600 
Q 959 1441 959 1056 
Q 959 750 1161 570 
Q 1363 391 1709 391 
Q 2188 391 2477 730 
Q 2766 1069 2766 1631 
L 2766 1759 
L 2194 1759 
z
M 3341 1997 
L 3341 0 
L 2766 0 
L 2766 531 
Q 2569 213 2275 61 
Q 1981 -91 1556 -91 
Q 1019 -91 701 211 
Q 384 513 384 1019 
Q 384 1609 779 1909 
Q 1175 2209 1959 2209 
L 2766 2209 
L 2766 2266 
Q 2766 2663 2505 2880 
Q 2244 3097 1772 3097 
Q 1472 3097 1187 3025 
Q 903 2953 641 2809 
L 641 3341 
Q 956 3463 1253 3523 
Q 1550 3584 1831 3584 
Q 2591 3584 2966 3190 
Q 3341 2797 3341 1997 
z
" id="DejaVuSans-61" transform="scale(0.015625)"/>
       <path d="M 2906 1791 
Q 2906 2416 2648 2759 
Q 2391 3103 1925 3103 
Q 1463 3103 1205 2759 
Q 947 2416 947 1791 
Q 947 1169 1205 825 
Q 1463 481 1925 481 
Q 2391 481 2648 825 
Q 2906 1169 2906 1791 
z
M 3481 434 
Q 3481 -459 3084 -895 
Q 2688 -1331 1869 -1331 
Q 1566 -1331 1297 -1286 
Q 1028 -1241 775 -1147 
L 775 -588 
Q 1028 -725 1275 -790 
Q 1522 -856 1778 -856 
Q 2344 -856 2625 -561 
Q 2906 -266 2906 331 
L 2906 616 
Q 2728 306 2450 153 
Q 2172 0 1784 0 
Q 1141 0 747 490 
Q 353 981 353 1791 
Q 353 2603 747 3093 
Q 1141 3584 1784 3584 
Q 2172 3584 2450 3431 
Q 2728 3278 2906 2969 
L 2906 3500 
L 3481 3500 
L 3481 434 
z
" id="DejaVuSans-67" transform="scale(0.015625)"/>
       <path d="M 3597 1894 
L 3597 1613 
L 953 1613 
Q 991 1019 1311 708 
Q 1631 397 2203 397 
Q 2534 397 2845 478 
Q 3156 559 3463 722 
L 3463 178 
Q 3153 47 2828 -22 
Q 2503 -91 2169 -91 
Q 1331 -91 842 396 
Q 353 884 353 1716 
Q 353 2575 817 3079 
Q 1281 3584 2069 3584 
Q 2775 3584 3186 3129 
Q 3597 2675 3597 1894 
z
M 3022 2063 
Q 3016 2534 2758 2815 
Q 2500 3097 2075 3097 
Q 1594 3097 1305 2825 
Q 1016 2553 972 2059 
L 3022 2063 
z
" id="DejaVuSans-65" transform="scale(0.015625)"/>
       <path id="DejaVuSans-20" transform="scale(0.015625)"/>
       <path d="M 3425 4513 
L 3425 3897 
Q 3066 4069 2747 4153 
Q 2428 4238 2131 4238 
Q 1616 4238 1336 4038 
Q 1056 3838 1056 3469 
Q 1056 3159 1242 3001 
Q 1428 2844 1947 2747 
L 2328 2669 
Q 3034 2534 3370 2195 
Q 3706 1856 3706 1288 
Q 3706 609 3251 259 
Q 2797 -91 1919 -91 
Q 1588 -91 1214 -16 
Q 841 59 441 206 
L 441 856 
Q 825 641 1194 531 
Q 1563 422 1919 422 
Q 2459 422 2753 634 
Q 3047 847 3047 1241 
Q 3047 1584 2836 1778 
Q 2625 1972 2144 2069 
L 1759 2144 
Q 1053 2284 737 2584 
Q 422 2884 422 3419 
Q 422 4038 858 4394 
Q 1294 4750 2059 4750 
Q 2388 4750 2728 4690 
Q 3069 4631 3425 4513 
z
" id="DejaVuSans-53" transform="scale(0.015625)"/>
       <path d="M 3122 3366 
L 3122 2828 
Q 2878 2963 2633 3030 
Q 2388 3097 2138 3097 
Q 1578 3097 1268 2742 
Q 959 2388 959 1747 
Q 959 1106 1268 751 
Q 1578 397 2138 397 
Q 2388 397 2633 464 
Q 2878 531 3122 666 
L 3122 134 
Q 2881 22 2623 -34 
Q 2366 -91 2075 -91 
Q 1284 -91 818 406 
Q 353 903 353 1747 
Q 353 2603 823 3093 
Q 1294 3584 2113 3584 
Q 2378 3584 2631 3529 
Q 2884 3475 3122 3366 
z
" id="DejaVuSans-63" transform="scale(0.015625)"/>
       <path d="M 1959 3097 
Q 1497 3097 1228 2736 
Q 959 2375 959 1747 
Q 959 1119 1226 758 
Q 1494 397 1959 397 
Q 2419 397 2687 759 
Q 2956 1122 2956 1747 
Q 2956 2369 2687 2733 
Q 2419 3097 1959 3097 
z
M 1959 3584 
Q 2709 3584 3137 3096 
Q 3566 2609 3566 1747 
Q 3566 888 3137 398 
Q 2709 -91 1959 -91 
Q 1206 -91 779 398 
Q 353 888 353 1747 
Q 353 2609 779 3096 
Q 1206 3584 1959 3584 
z
" id="DejaVuSans-6f" transform="scale(0.015625)"/>
       <path d="M 2631 2963 
Q 2534 3019 2420 3045 
Q 2306 3072 2169 3072 
Q 1681 3072 1420 2755 
Q 1159 2438 1159 1844 
L 1159 0 
L 581 0 
L 581 3500 
L 1159 3500 
L 1159 2956 
Q 1341 3275 1631 3429 
Q 1922 3584 2338 3584 
Q 2397 3584 2469 3576 
Q 2541 3569 2628 3553 
L 2631 2963 
z
" id="DejaVuSans-72" transform="scale(0.015625)"/>
      </defs>
      <use xlink:href="#DejaVuSans-49"/>
      <use x="29.492188" xlink:href="#DejaVuSans-6d"/>
      <use x="126.904297" xlink:href="#DejaVuSans-61"/>
      <use x="188.183594" xlink:href="#DejaVuSans-67"/>
      <use x="251.660156" xlink:href="#DejaVuSans-65"/>
      <use x="313.183594" xlink:href="#DejaVuSans-20"/>
      <use x="344.970703" xlink:href="#DejaVuSans-53"/>
      <use x="408.447266" xlink:href="#DejaVuSans-63"/>
      <use x="463.427734" xlink:href="#DejaVuSans-6f"/>
      <use x="524.609375" xlink:href="#DejaVuSans-72"/>
      <use x="563.472656" xlink:href="#DejaVuSans-65"/>
     </g>
    </g>
   </g>
   <g id="matplotlib.axis_2">
    <g id="ytick_1">
     <g id="line2d_10">
      <defs>
       <path d="M 0 0 
L -3.5 0 
" id="m422c7b0a2c" style="stroke:#000000;stroke-width:0.8;"/>
      </defs>
      <g>
       <use style="stroke:#000000;stroke-width:0.8;" x="144" xlink:href="#m422c7b0a2c" y="756"/>
      </g>
     </g>
     <g id="text_11">
      <!-- 0.00 -->
      <g transform="translate(114.734375 759.799219)scale(0.1 -0.1)">
       <defs>
        <path d="M 684 794 
L 1344 794 
L 1344 0 
L 684 0 
L 684 794 
z
" id="DejaVuSans-2e" transform="scale(0.015625)"/>
       </defs>
       <use xlink:href="#DejaVuSans-30"/>
       <use x="63.623047" xlink:href="#DejaVuSans-2e"/>
       <use x="95.410156" xlink:href="#DejaVuSans-30"/>
       <use x="159.033203" xlink:href="#DejaVuSans-30"/>
      </g>
     </g>
    </g>
    <g id="ytick_2">
     <g id="line2d_11">
      <g>
       <use style="stroke:#000000;stroke-width:0.8;" x="144" xlink:href="#m422c7b0a2c" y="637.088159"/>
      </g>
     </g>
     <g id="text_12">
      <!-- 0.05 -->
      <g transform="translate(114.734375 640.887378)scale(0.1 -0.1)">
       <use xlink:href="#DejaVuSans-30"/>
       <use x="63.623047" xlink:href="#DejaVuSans-2e"/>
       <use x="95.410156" xlink:href="#DejaVuSans-30"/>
       <use x="159.033203" xlink:href="#DejaVuSans-35"/>
      </g>
     </g>
    </g>
    <g id="ytick_3">
     <g id="line2d_12">
      <g>
       <use style="stroke:#000000;stroke-width:0.8;" x="144" xlink:href="#m422c7b0a2c" y="518.176319"/>
      </g>
     </g>
     <g id="text_13">
      <!-- 0.10 -->
      <g transform="translate(114.734375 521.975537)scale(0.1 -0.1)">
       <use xlink:href="#DejaVuSans-30"/>
       <use x="63.623047" xlink:href="#DejaVuSans-2e"/>
       <use x="95.410156" xlink:href="#DejaVuSans-31"/>
       <use x="159.033203" xlink:href="#DejaVuSans-30"/>
      </g>
     </g>
    </g>
    <g id="ytick_4">
     <g id="line2d_13">
      <g>
       <use style="stroke:#000000;stroke-width:0.8;" x="144" xlink:href="#m422c7b0a2c" y="399.264478"/>
      </g>
     </g>
     <g id="text_14">
      <!-- 0.15 -->
      <g transform="translate(114.734375 403.063697)scale(0.1 -0.1)">
       <use xlink:href="#DejaVuSans-30"/>
       <use x="63.623047" xlink:href="#DejaVuSans-2e"/>
       <use x="95.410156" xlink:href="#DejaVuSans-31"/>
       <use x="159.033203" xlink:href="#DejaVuSans-35"/>
      </g>
     </g>
    </g>
    <g id="ytick_5">
     <g id="line2d_14">
      <g>
       <use style="stroke:#000000;stroke-width:0.8;" x="144" xlink:href="#m422c7b0a2c" y="280.352637"/>
      </g>
     </g>
     <g id="text_15">
      <!-- 0.20 -->
      <g transform="translate(114.734375 284.151856)scale(0.1 -0.1)">
       <use xlink:href="#DejaVuSans-30"/>
       <use x="63.623047" xlink:href="#DejaVuSans-2e"/>
       <use x="95.410156" xlink:href="#DejaVuSans-32"/>
       <use x="159.033203" xlink:href="#DejaVuSans-30"/>
      </g>
     </g>
    </g>
    <g id="ytick_6">
     <g id="line2d_15">
      <g>
       <use style="stroke:#000000;stroke-width:0.8;" x="144" xlink:href="#m422c7b0a2c" y="161.440797"/>
      </g>
     </g>
     <g id="text_16">
      <!-- 0.25 -->
      <g transform="translate(114.734375 165.240015)scale(0.1 -0.1)">
       <use xlink:href="#DejaVuSans-30"/>
       <use x="63.623047" xlink:href="#DejaVuSans-2e"/>
       <use x="95.410156" xlink:href="#DejaVuSans-32"/>
       <use x="159.033203" xlink:href="#DejaVuSans-35"/>
      </g>
     </g>
    </g>
    <g id="text_17">
     <!-- Density -->
     <g transform="translate(107.822812 456.452031)rotate(-90)scale(0.14 -0.14)">
      <defs>
       <path d="M 1259 4147 
L 1259 519 
L 2022 519 
Q 2988 519 3436 956 
Q 3884 1394 3884 2338 
Q 3884 3275 3436 3711 
Q 2988 4147 2022 4147 
L 1259 4147 
z
M 628 4666 
L 1925 4666 
Q 3281 4666 3915 4102 
Q 4550 3538 4550 2338 
Q 4550 1131 3912 565 
Q 3275 0 1925 0 
L 628 0 
L 628 4666 
z
" id="DejaVuSans-44" transform="scale(0.015625)"/>
       <path d="M 3513 2113 
L 3513 0 
L 2938 0 
L 2938 2094 
Q 2938 2591 2744 2837 
Q 2550 3084 2163 3084 
Q 1697 3084 1428 2787 
Q 1159 2491 1159 1978 
L 1159 0 
L 581 0 
L 581 3500 
L 1159 3500 
L 1159 2956 
Q 1366 3272 1645 3428 
Q 1925 3584 2291 3584 
Q 2894 3584 3203 3211 
Q 3513 2838 3513 2113 
z
" id="DejaVuSans-6e" transform="scale(0.015625)"/>
       <path d="M 2834 3397 
L 2834 2853 
Q 2591 2978 2328 3040 
Q 2066 3103 1784 3103 
Q 1356 3103 1142 2972 
Q 928 2841 928 2578 
Q 928 2378 1081 2264 
Q 1234 2150 1697 2047 
L 1894 2003 
Q 2506 1872 2764 1633 
Q 3022 1394 3022 966 
Q 3022 478 2636 193 
Q 2250 -91 1575 -91 
Q 1294 -91 989 -36 
Q 684 19 347 128 
L 347 722 
Q 666 556 975 473 
Q 1284 391 1588 391 
Q 1994 391 2212 530 
Q 2431 669 2431 922 
Q 2431 1156 2273 1281 
Q 2116 1406 1581 1522 
L 1381 1569 
Q 847 1681 609 1914 
Q 372 2147 372 2553 
Q 372 3047 722 3315 
Q 1072 3584 1716 3584 
Q 2034 3584 2315 3537 
Q 2597 3491 2834 3397 
z
" id="DejaVuSans-73" transform="scale(0.015625)"/>
       <path d="M 603 3500 
L 1178 3500 
L 1178 0 
L 603 0 
L 603 3500 
z
M 603 4863 
L 1178 4863 
L 1178 4134 
L 603 4134 
L 603 4863 
z
" id="DejaVuSans-69" transform="scale(0.015625)"/>
       <path d="M 1172 4494 
L 1172 3500 
L 2356 3500 
L 2356 3053 
L 1172 3053 
L 1172 1153 
Q 1172 725 1289 603 
Q 1406 481 1766 481 
L 2356 481 
L 2356 0 
L 1766 0 
Q 1100 0 847 248 
Q 594 497 594 1153 
L 594 3053 
L 172 3053 
L 172 3500 
L 594 3500 
L 594 4494 
L 1172 4494 
z
" id="DejaVuSans-74" transform="scale(0.015625)"/>
       <path d="M 2059 -325 
Q 1816 -950 1584 -1140 
Q 1353 -1331 966 -1331 
L 506 -1331 
L 506 -850 
L 844 -850 
Q 1081 -850 1212 -737 
Q 1344 -625 1503 -206 
L 1606 56 
L 191 3500 
L 800 3500 
L 1894 763 
L 2988 3500 
L 3597 3500 
L 2059 -325 
z
" id="DejaVuSans-79" transform="scale(0.015625)"/>
      </defs>
      <use xlink:href="#DejaVuSans-44"/>
      <use x="77.001953" xlink:href="#DejaVuSans-65"/>
      <use x="138.525391" xlink:href="#DejaVuSans-6e"/>
      <use x="201.904297" xlink:href="#DejaVuSans-73"/>
      <use x="254.003906" xlink:href="#DejaVuSans-69"/>
      <use x="281.787109" xlink:href="#DejaVuSans-74"/>
      <use x="320.996094" xlink:href="#DejaVuSans-79"/>
     </g>
    </g>
   </g>
   <g id="patch_3">
    <path d="M 144 756 
L 144 103.68 
" style="fill:none;stroke:#000000;stroke-linecap:square;stroke-linejoin:miter;stroke-width:0.8;"/>
   </g>
   <g id="patch_4">
    <path d="M 1036.8 756 
L 1036.8 103.68 
" style="fill:none;stroke:#000000;stroke-linecap:square;stroke-linejoin:miter;stroke-width:0.8;"/>
   </g>
   <g id="patch_5">
    <path d="M 144 756 
L 1036.8 756 
" style="fill:none;stroke:#000000;stroke-linecap:square;stroke-linejoin:miter;stroke-width:0.8;"/>
   </g>
   <g id="patch_6">
    <path d="M 144 103.68 
L 1036.8 103.68 
" style="fill:none;stroke:#000000;stroke-linecap:square;stroke-linejoin:miter;stroke-width:0.8;"/>
   </g>
   <g id="text_18">
    <!-- Quality of image -->
    <g transform="translate(515.811094 97.68)scale(0.18 -0.18)">
     <defs>
      <path d="M 2522 4238 
Q 1834 4238 1429 3725 
Q 1025 3213 1025 2328 
Q 1025 1447 1429 934 
Q 1834 422 2522 422 
Q 3209 422 3611 934 
Q 4013 1447 4013 2328 
Q 4013 3213 3611 3725 
Q 3209 4238 2522 4238 
z
M 3406 84 
L 4238 -825 
L 3475 -825 
L 2784 -78 
Q 2681 -84 2626 -87 
Q 2572 -91 2522 -91 
Q 1538 -91 948 567 
Q 359 1225 359 2328 
Q 359 3434 948 4092 
Q 1538 4750 2522 4750 
Q 3503 4750 4090 4092 
Q 4678 3434 4678 2328 
Q 4678 1516 4351 937 
Q 4025 359 3406 84 
z
" id="DejaVuSans-51" transform="scale(0.015625)"/>
      <path d="M 544 1381 
L 544 3500 
L 1119 3500 
L 1119 1403 
Q 1119 906 1312 657 
Q 1506 409 1894 409 
Q 2359 409 2629 706 
Q 2900 1003 2900 1516 
L 2900 3500 
L 3475 3500 
L 3475 0 
L 2900 0 
L 2900 538 
Q 2691 219 2414 64 
Q 2138 -91 1772 -91 
Q 1169 -91 856 284 
Q 544 659 544 1381 
z
M 1991 3584 
L 1991 3584 
z
" id="DejaVuSans-75" transform="scale(0.015625)"/>
      <path d="M 603 4863 
L 1178 4863 
L 1178 0 
L 603 0 
L 603 4863 
z
" id="DejaVuSans-6c" transform="scale(0.015625)"/>
      <path d="M 2375 4863 
L 2375 4384 
L 1825 4384 
Q 1516 4384 1395 4259 
Q 1275 4134 1275 3809 
L 1275 3500 
L 2222 3500 
L 2222 3053 
L 1275 3053 
L 1275 0 
L 697 0 
L 697 3053 
L 147 3053 
L 147 3500 
L 697 3500 
L 697 3744 
Q 697 4328 969 4595 
Q 1241 4863 1831 4863 
L 2375 4863 
z
" id="DejaVuSans-66" transform="scale(0.015625)"/>
     </defs>
     <use xlink:href="#DejaVuSans-51"/>
     <use x="78.710938" xlink:href="#DejaVuSans-75"/>
     <use x="142.089844" xlink:href="#DejaVuSans-61"/>
     <use x="203.369141" xlink:href="#DejaVuSans-6c"/>
     <use x="231.152344" xlink:href="#DejaVuSans-69"/>
     <use x="258.935547" xlink:href="#DejaVuSans-74"/>
     <use x="298.144531" xlink:href="#DejaVuSans-79"/>
     <use x="357.324219" xlink:href="#DejaVuSans-20"/>
     <use x="389.111328" xlink:href="#DejaVuSans-6f"/>
     <use x="450.292969" xlink:href="#DejaVuSans-66"/>
     <use x="485.498047" xlink:href="#DejaVuSans-20"/>
     <use x="517.285156" xlink:href="#DejaVuSans-69"/>
     <use x="545.068359" xlink:href="#DejaVuSans-6d"/>
     <use x="642.480469" xlink:href="#DejaVuSans-61"/>
     <use x="703.759766" xlink:href="#DejaVuSans-67"/>
     <use x="767.236328" xlink:href="#DejaVuSans-65"/>
    </g>
   </g>
   <g id="legend_1">
    <g id="patch_7">
     <path d="M 913.240625 173.135 
L 1029.8 173.135 
Q 1031.8 173.135 1031.8 171.135 
L 1031.8 110.68 
Q 1031.8 108.68 1029.8 108.68 
L 913.240625 108.68 
Q 911.240625 108.68 911.240625 110.68 
L 911.240625 171.135 
Q 911.240625 173.135 913.240625 173.135 
z
" style="fill:#ffffff;opacity:0.8;stroke:#cccccc;stroke-linejoin:miter;"/>
    </g>
    <g id="text_19">
     <!-- pneumonia -->
     <g transform="translate(915.240625 127.876875)scale(0.2 -0.2)">
      <defs>
       <path d="M 1159 525 
L 1159 -1331 
L 581 -1331 
L 581 3500 
L 1159 3500 
L 1159 2969 
Q 1341 3281 1617 3432 
Q 1894 3584 2278 3584 
Q 2916 3584 3314 3078 
Q 3713 2572 3713 1747 
Q 3713 922 3314 415 
Q 2916 -91 2278 -91 
Q 1894 -91 1617 61 
Q 1341 213 1159 525 
z
M 3116 1747 
Q 3116 2381 2855 2742 
Q 2594 3103 2138 3103 
Q 1681 3103 1420 2742 
Q 1159 2381 1159 1747 
Q 1159 1113 1420 752 
Q 1681 391 2138 391 
Q 2594 391 2855 752 
Q 3116 1113 3116 1747 
z
" id="DejaVuSans-70" transform="scale(0.015625)"/>
      </defs>
      <use xlink:href="#DejaVuSans-70"/>
      <use x="63.476562" xlink:href="#DejaVuSans-6e"/>
      <use x="126.855469" xlink:href="#DejaVuSans-65"/>
      <use x="188.378906" xlink:href="#DejaVuSans-75"/>
      <use x="251.757812" xlink:href="#DejaVuSans-6d"/>
      <use x="349.169922" xlink:href="#DejaVuSans-6f"/>
      <use x="410.351562" xlink:href="#DejaVuSans-6e"/>
      <use x="473.730469" xlink:href="#DejaVuSans-69"/>
      <use x="501.513672" xlink:href="#DejaVuSans-61"/>
     </g>
    </g>
    <g id="patch_8">
     <path d="M 939.944844 147.674062 
L 959.944844 147.674062 
L 959.944844 140.674062 
L 939.944844 140.674062 
z
" style="fill:#1f77b4;fill-opacity:0.25;stroke:#1f77b4;stroke-linejoin:miter;"/>
    </g>
    <g id="text_20">
     <!-- False -->
     <g transform="translate(967.944844 147.674062)scale(0.14 -0.14)">
      <defs>
       <path d="M 628 4666 
L 3309 4666 
L 3309 4134 
L 1259 4134 
L 1259 2759 
L 3109 2759 
L 3109 2228 
L 1259 2228 
L 1259 0 
L 628 0 
L 628 4666 
z
" id="DejaVuSans-46" transform="scale(0.015625)"/>
      </defs>
      <use xlink:href="#DejaVuSans-46"/>
      <use x="48.394531" xlink:href="#DejaVuSans-61"/>
      <use x="109.673828" xlink:href="#DejaVuSans-6c"/>
      <use x="137.457031" xlink:href="#DejaVuSans-73"/>
      <use x="189.556641" xlink:href="#DejaVuSans-65"/>
     </g>
    </g>
    <g id="patch_9">
     <path d="M 939.944844 166.223438 
L 959.944844 166.223438 
L 959.944844 159.223438 
L 939.944844 159.223438 
z
" style="fill:#ff7f0e;fill-opacity:0.25;stroke:#ff7f0e;stroke-linejoin:miter;"/>
    </g>
    <g id="text_21">
     <!-- True -->
     <g transform="translate(967.944844 166.223438)scale(0.14 -0.14)">
      <defs>
       <path d="M -19 4666 
L 3928 4666 
L 3928 4134 
L 2272 4134 
L 2272 0 
L 1638 0 
L 1638 4134 
L -19 4134 
L -19 4666 
z
" id="DejaVuSans-54" transform="scale(0.015625)"/>
      </defs>
      <use xlink:href="#DejaVuSans-54"/>
      <use x="46.333984" xlink:href="#DejaVuSans-72"/>
      <use x="87.447266" xlink:href="#DejaVuSans-75"/>
      <use x="150.826172" xlink:href="#DejaVuSans-65"/>
     </g>
    </g>
   </g>
  </g>
 </g>
 <defs>
  <clipPath id="p525940a501">
   <rect height="652.32" width="892.8" x="144" y="103.68"/>
  </clipPath>
 </defs>
</svg>
