<?xml version="1.0" encoding="utf-8" standalone="no"?>
<!DOCTYPE svg PUBLIC "-//W3C//DTD SVG 1.1//EN"
  "http://www.w3.org/Graphics/SVG/1.1/DTD/svg11.dtd">
<svg height="864pt" version="1.1" viewBox="0 0 1152 864" width="1152pt" xmlns="http://www.w3.org/2000/svg" xmlns:xlink="http://www.w3.org/1999/xlink">
 <metadata>
  <rdf:RDF xmlns:cc="http://creativecommons.org/ns#" xmlns:dc="http://purl.org/dc/elements/1.1/" xmlns:rdf="http://www.w3.org/1999/02/22-rdf-syntax-ns#">
   <cc:Work>
    <dc:type rdf:resource="http://purl.org/dc/dcmitype/StillImage"/>
    <dc:date>2022-04-09T18:36:34.448279</dc:date>
    <dc:format>image/svg+xml</dc:format>
    <dc:creator>
     <cc:Agent>
      <dc:title>Matplotlib v3.4.3, https://matplotlib.org/</dc:title>
     </cc:Agent>
    </dc:creator>
   </cc:Work>
  </rdf:RDF>
 </metadata>
 <defs>
  <style type="text/css">*{stroke-linecap:butt;stroke-linejoin:round;}</style>
 </defs>
 <g id="figure_1">
  <g id="patch_1">
   <path d="M 0 864 
L 1152 864 
L 1152 0 
L 0 0 
z
" style="fill:none;"/>
  </g>
  <g id="axes_1">
   <g id="patch_2">
    <path d="M 144 756 
L 1036.8 756 
L 1036.8 103.68 
L 144 103.68 
z
" style="fill:#ffffff;"/>
   </g>
   <g id="PolyCollection_1">
    <defs>
     <path d="M 479.051901 -108.069064 
L 479.051901 -108 
L 481.617293 -108 
L 484.182685 -108 
L 486.748077 -108 
L 489.313469 -108 
L 491.878862 -108 
L 494.444254 -108 
L 497.009646 -108 
L 499.575038 -108 
L 502.14043 -108 
L 504.705822 -108 
L 507.271214 -108 
L 509.836606 -108 
L 512.401998 -108 
L 514.96739 -108 
L 517.532783 -108 
L 520.098175 -108 
L 522.663567 -108 
L 525.228959 -108 
L 527.794351 -108 
L 530.359743 -108 
L 532.925135 -108 
L 535.490527 -108 
L 538.055919 -108 
L 540.621312 -108 
L 543.186704 -108 
L 545.752096 -108 
L 548.317488 -108 
L 550.88288 -108 
L 553.448272 -108 
L 556.013664 -108 
L 558.579056 -108 
L 561.144448 -108 
L 563.70984 -108 
L 566.275233 -108 
L 568.840625 -108 
L 571.406017 -108 
L 573.971409 -108 
L 576.536801 -108 
L 579.102193 -108 
L 581.667585 -108 
L 584.232977 -108 
L 586.798369 -108 
L 589.363762 -108 
L 591.929154 -108 
L 594.494546 -108 
L 597.059938 -108 
L 599.62533 -108 
L 602.190722 -108 
L 604.756114 -108 
L 607.321506 -108 
L 609.886898 -108 
L 612.452291 -108 
L 615.017683 -108 
L 617.583075 -108 
L 620.148467 -108 
L 622.713859 -108 
L 625.279251 -108 
L 627.844643 -108 
L 630.410035 -108 
L 632.975427 -108 
L 635.540819 -108 
L 638.106212 -108 
L 640.671604 -108 
L 643.236996 -108 
L 645.802388 -108 
L 648.36778 -108 
L 650.933172 -108 
L 653.498564 -108 
L 656.063956 -108 
L 658.629348 -108 
L 661.194741 -108 
L 663.760133 -108 
L 666.325525 -108 
L 668.890917 -108 
L 671.456309 -108 
L 674.021701 -108 
L 676.587093 -108 
L 679.152485 -108 
L 681.717877 -108 
L 684.283269 -108 
L 686.848662 -108 
L 689.414054 -108 
L 691.979446 -108 
L 694.544838 -108 
L 697.11023 -108 
L 699.675622 -108 
L 702.241014 -108 
L 704.806406 -108 
L 707.371798 -108 
L 709.937191 -108 
L 712.502583 -108 
L 715.067975 -108 
L 717.633367 -108 
L 720.198759 -108 
L 722.764151 -108 
L 725.329543 -108 
L 727.894935 -108 
L 730.460327 -108 
L 733.02572 -108 
L 735.591112 -108 
L 738.156504 -108 
L 740.721896 -108 
L 743.287288 -108 
L 745.85268 -108 
L 748.418072 -108 
L 750.983464 -108 
L 753.548856 -108 
L 756.114248 -108 
L 758.679641 -108 
L 761.245033 -108 
L 763.810425 -108 
L 766.375817 -108 
L 768.941209 -108 
L 771.506601 -108 
L 774.071993 -108 
L 776.637385 -108 
L 779.202777 -108 
L 781.76817 -108 
L 784.333562 -108 
L 786.898954 -108 
L 789.464346 -108 
L 792.029738 -108 
L 794.59513 -108 
L 797.160522 -108 
L 799.725914 -108 
L 802.291306 -108 
L 804.856698 -108 
L 807.422091 -108 
L 809.987483 -108 
L 812.552875 -108 
L 815.118267 -108 
L 817.683659 -108 
L 820.249051 -108 
L 822.814443 -108 
L 825.379835 -108 
L 827.945227 -108 
L 830.51062 -108 
L 833.076012 -108 
L 835.641404 -108 
L 838.206796 -108 
L 840.772188 -108 
L 843.33758 -108 
L 845.902972 -108 
L 848.468364 -108 
L 851.033756 -108 
L 853.599149 -108 
L 856.164541 -108 
L 858.729933 -108 
L 861.295325 -108 
L 863.860717 -108 
L 866.426109 -108 
L 868.991501 -108 
L 871.556893 -108 
L 874.122285 -108 
L 876.687677 -108 
L 879.25307 -108 
L 881.818462 -108 
L 884.383854 -108 
L 886.949246 -108 
L 889.514638 -108 
L 892.08003 -108 
L 894.645422 -108 
L 897.210814 -108 
L 899.776206 -108 
L 902.341599 -108 
L 904.906991 -108 
L 907.472383 -108 
L 910.037775 -108 
L 912.603167 -108 
L 915.168559 -108 
L 917.733951 -108 
L 920.299343 -108 
L 922.864735 -108 
L 925.430128 -108 
L 927.99552 -108 
L 930.560912 -108 
L 933.126304 -108 
L 935.691696 -108 
L 938.257088 -108 
L 940.82248 -108 
L 943.387872 -108 
L 945.953264 -108 
L 948.518656 -108 
L 951.084049 -108 
L 953.649441 -108 
L 956.214833 -108 
L 958.780225 -108 
L 961.345617 -108 
L 963.911009 -108 
L 966.476401 -108 
L 969.041793 -108 
L 971.607185 -108 
L 974.172578 -108 
L 976.73797 -108 
L 979.303362 -108 
L 981.868754 -108 
L 984.434146 -108 
L 986.999538 -108 
L 989.56493 -108 
L 989.56493 -108.069066 
L 989.56493 -108.069066 
L 986.999538 -108.402923 
L 984.434146 -109.520161 
L 981.868754 -111.716762 
L 979.303362 -113.950384 
L 976.73797 -114.553161 
L 974.172578 -113.986144 
L 971.607185 -114.320494 
L 969.041793 -115.748155 
L 966.476401 -117.159449 
L 963.911009 -119.313203 
L 961.345617 -124.481835 
L 958.780225 -133.618301 
L 956.214833 -143.214948 
L 953.649441 -146.40776 
L 951.084049 -141.017941 
L 948.518656 -133.005875 
L 945.953264 -129.757756 
L 943.387872 -133.498321 
L 940.82248 -141.091137 
L 938.257088 -147.940829 
L 935.691696 -152.136244 
L 933.126304 -154.132539 
L 930.560912 -153.048229 
L 927.99552 -146.781489 
L 925.430128 -137.214306 
L 922.864735 -131.352327 
L 920.299343 -133.370366 
L 917.733951 -138.878572 
L 915.168559 -139.423567 
L 912.603167 -131.911842 
L 910.037775 -122.234595 
L 907.472383 -117.388292 
L 904.906991 -117.727436 
L 902.341599 -119.607548 
L 899.776206 -120.640939 
L 897.210814 -120.089952 
L 894.645422 -118.082244 
L 892.08003 -116.698637 
L 889.514638 -119.249086 
L 886.949246 -125.729598 
L 884.383854 -130.672949 
L 881.818462 -128.804691 
L 879.25307 -121.694136 
L 876.687677 -115.589754 
L 874.122285 -113.960622 
L 871.556893 -115.061898 
L 868.991501 -115.979648 
L 866.426109 -116.138649 
L 863.860717 -115.777778 
L 861.295325 -114.677592 
L 858.729933 -113.863028 
L 856.164541 -114.387596 
L 853.599149 -115.059358 
L 851.033756 -114.852886 
L 848.468364 -114.770554 
L 845.902972 -114.912815 
L 843.33758 -113.856659 
L 840.772188 -112.030536 
L 838.206796 -111.761656 
L 835.641404 -114.005272 
L 833.076012 -117.101014 
L 830.51062 -118.524024 
L 827.945227 -117.123743 
L 825.379835 -113.91303 
L 822.814443 -111.416784 
L 820.249051 -112.204841 
L 817.683659 -117.53037 
L 815.118267 -125.43036 
L 812.552875 -130.323083 
L 809.987483 -128.112534 
L 807.422091 -121.039174 
L 804.856698 -114.946792 
L 802.291306 -113.602367 
L 799.725914 -116.452019 
L 797.160522 -119.547943 
L 794.59513 -119.033672 
L 792.029738 -115.12632 
L 789.464346 -111.08966 
L 786.898954 -108.893857 
L 784.333562 -108.171449 
L 781.76817 -108.021669 
L 779.202777 -108.001795 
L 776.637385 -108.000097 
L 774.071993 -108.000005 
L 771.506601 -108.000066 
L 768.941209 -108.001357 
L 766.375817 -108.018202 
L 763.810425 -108.15818 
L 761.245033 -108.890766 
L 758.679641 -111.250615 
L 756.114248 -115.687333 
L 753.548856 -119.781632 
L 750.983464 -119.702016 
L 748.418072 -115.532537 
L 745.85268 -111.142254 
L 743.287288 -108.849471 
L 740.721896 -108.148815 
L 738.156504 -108.016893 
L 735.591112 -108.001243 
L 733.02572 -108.000059 
L 730.460327 -108.000002 
L 727.894935 -108 
L 725.329543 -108 
L 722.764151 -108 
L 720.198759 -108 
L 717.633367 -108 
L 715.067975 -108 
L 712.502583 -108 
L 709.937191 -108 
L 707.371798 -108 
L 704.806406 -108 
L 702.241014 -108 
L 699.675622 -108 
L 697.11023 -108 
L 694.544838 -108 
L 691.979446 -108 
L 689.414054 -108 
L 686.848662 -108 
L 684.283269 -108 
L 681.717877 -108 
L 679.152485 -108.000009 
L 676.587093 -108.000213 
L 674.021701 -108.00343 
L 671.456309 -108.035633 
L 668.890917 -108.23926 
L 666.325525 -109.038424 
L 663.760133 -110.913189 
L 661.194741 -113.282644 
L 658.629348 -114.191881 
L 656.063956 -112.691185 
L 653.498564 -110.297372 
L 650.933172 -108.727225 
L 648.36778 -108.148797 
L 645.802388 -108.019679 
L 643.236996 -108.001682 
L 640.671604 -108.000093 
L 638.106212 -108.000003 
L 635.540819 -108 
L 632.975427 -108 
L 630.410035 -108 
L 627.844643 -108 
L 625.279251 -108 
L 622.713859 -108 
L 620.148467 -108 
L 617.583075 -108 
L 615.017683 -108 
L 612.452291 -108 
L 609.886898 -108 
L 607.321506 -108 
L 604.756114 -108 
L 602.190722 -108 
L 599.62533 -108 
L 597.059938 -108 
L 594.494546 -108 
L 591.929154 -108 
L 589.363762 -108 
L 586.798369 -108 
L 584.232977 -108 
L 581.667585 -108 
L 579.102193 -108 
L 576.536801 -108 
L 573.971409 -108 
L 571.406017 -108 
L 568.840625 -108 
L 566.275233 -108 
L 563.70984 -108 
L 561.144448 -108 
L 558.579056 -108 
L 556.013664 -108 
L 553.448272 -108 
L 550.88288 -108 
L 548.317488 -108 
L 545.752096 -108 
L 543.186704 -108 
L 540.621312 -108 
L 538.055919 -108 
L 535.490527 -108 
L 532.925135 -108 
L 530.359743 -108 
L 527.794351 -108 
L 525.228959 -108 
L 522.663567 -108 
L 520.098175 -108 
L 517.532783 -108 
L 514.96739 -108 
L 512.401998 -108.000001 
L 509.836606 -108.000033 
L 507.271214 -108.000694 
L 504.705822 -108.009338 
L 502.14043 -108.081278 
L 499.575038 -108.457256 
L 497.009646 -109.662783 
L 494.444254 -111.908412 
L 491.878862 -113.938186 
L 489.313469 -113.83171 
L 486.748077 -111.701918 
L 484.182685 -109.51896 
L 481.617293 -108.40286 
L 479.051901 -108.069064 
z
" id="m58592c2e44" style="stroke:#ff7f0e;"/>
    </defs>
    <g clip-path="url(#p609cd37e5a)">
     <use style="fill:#ff7f0e;fill-opacity:0.25;stroke:#ff7f0e;" x="0" xlink:href="#m58592c2e44" y="864"/>
    </g>
   </g>
   <g id="PolyCollection_2">
    <defs>
     <path d="M 184.581818 -108.097278 
L 184.581818 -108 
L 188.660393 -108 
L 192.738968 -108 
L 196.817542 -108 
L 200.896117 -108 
L 204.974692 -108 
L 209.053266 -108 
L 213.131841 -108 
L 217.210416 -108 
L 221.28899 -108 
L 225.367565 -108 
L 229.44614 -108 
L 233.524714 -108 
L 237.603289 -108 
L 241.681864 -108 
L 245.760439 -108 
L 249.839013 -108 
L 253.917588 -108 
L 257.996163 -108 
L 262.074737 -108 
L 266.153312 -108 
L 270.231887 -108 
L 274.310461 -108 
L 278.389036 -108 
L 282.467611 -108 
L 286.546185 -108 
L 290.62476 -108 
L 294.703335 -108 
L 298.78191 -108 
L 302.860484 -108 
L 306.939059 -108 
L 311.017634 -108 
L 315.096208 -108 
L 319.174783 -108 
L 323.253358 -108 
L 327.331932 -108 
L 331.410507 -108 
L 335.489082 -108 
L 339.567656 -108 
L 343.646231 -108 
L 347.724806 -108 
L 351.803381 -108 
L 355.881955 -108 
L 359.96053 -108 
L 364.039105 -108 
L 368.117679 -108 
L 372.196254 -108 
L 376.274829 -108 
L 380.353403 -108 
L 384.431978 -108 
L 388.510553 -108 
L 392.589127 -108 
L 396.667702 -108 
L 400.746277 -108 
L 404.824852 -108 
L 408.903426 -108 
L 412.982001 -108 
L 417.060576 -108 
L 421.13915 -108 
L 425.217725 -108 
L 429.2963 -108 
L 433.374874 -108 
L 437.453449 -108 
L 441.532024 -108 
L 445.610598 -108 
L 449.689173 -108 
L 453.767748 -108 
L 457.846323 -108 
L 461.924897 -108 
L 466.003472 -108 
L 470.082047 -108 
L 474.160621 -108 
L 478.239196 -108 
L 482.317771 -108 
L 486.396345 -108 
L 490.47492 -108 
L 494.553495 -108 
L 498.632069 -108 
L 502.710644 -108 
L 506.789219 -108 
L 510.867794 -108 
L 514.946368 -108 
L 519.024943 -108 
L 523.103518 -108 
L 527.182092 -108 
L 531.260667 -108 
L 535.339242 -108 
L 539.417816 -108 
L 543.496391 -108 
L 547.574966 -108 
L 551.65354 -108 
L 555.732115 -108 
L 559.81069 -108 
L 563.889265 -108 
L 567.967839 -108 
L 572.046414 -108 
L 576.124989 -108 
L 580.203563 -108 
L 584.282138 -108 
L 588.360713 -108 
L 592.439287 -108 
L 596.517862 -108 
L 600.596437 -108 
L 604.675011 -108 
L 608.753586 -108 
L 612.832161 -108 
L 616.910735 -108 
L 620.98931 -108 
L 625.067885 -108 
L 629.14646 -108 
L 633.225034 -108 
L 637.303609 -108 
L 641.382184 -108 
L 645.460758 -108 
L 649.539333 -108 
L 653.617908 -108 
L 657.696482 -108 
L 661.775057 -108 
L 665.853632 -108 
L 669.932206 -108 
L 674.010781 -108 
L 678.089356 -108 
L 682.167931 -108 
L 686.246505 -108 
L 690.32508 -108 
L 694.403655 -108 
L 698.482229 -108 
L 702.560804 -108 
L 706.639379 -108 
L 710.717953 -108 
L 714.796528 -108 
L 718.875103 -108 
L 722.953677 -108 
L 727.032252 -108 
L 731.110827 -108 
L 735.189402 -108 
L 739.267976 -108 
L 743.346551 -108 
L 747.425126 -108 
L 751.5037 -108 
L 755.582275 -108 
L 759.66085 -108 
L 763.739424 -108 
L 767.817999 -108 
L 771.896574 -108 
L 775.975148 -108 
L 780.053723 -108 
L 784.132298 -108 
L 788.210873 -108 
L 792.289447 -108 
L 796.368022 -108 
L 800.446597 -108 
L 804.525171 -108 
L 808.603746 -108 
L 812.682321 -108 
L 816.760895 -108 
L 820.83947 -108 
L 824.918045 -108 
L 828.996619 -108 
L 833.075194 -108 
L 837.153769 -108 
L 841.232344 -108 
L 845.310918 -108 
L 849.389493 -108 
L 853.468068 -108 
L 857.546642 -108 
L 861.625217 -108 
L 865.703792 -108 
L 869.782366 -108 
L 873.860941 -108 
L 877.939516 -108 
L 882.01809 -108 
L 886.096665 -108 
L 890.17524 -108 
L 894.253815 -108 
L 898.332389 -108 
L 902.410964 -108 
L 906.489539 -108 
L 910.568113 -108 
L 914.646688 -108 
L 918.725263 -108 
L 922.803837 -108 
L 926.882412 -108 
L 930.960987 -108 
L 935.039561 -108 
L 939.118136 -108 
L 943.196711 -108 
L 947.275286 -108 
L 951.35386 -108 
L 955.432435 -108 
L 959.51101 -108 
L 963.589584 -108 
L 967.668159 -108 
L 971.746734 -108 
L 975.825308 -108 
L 979.903883 -108 
L 983.982458 -108 
L 988.061032 -108 
L 992.139607 -108 
L 996.218182 -108 
L 996.218182 -108.097446 
L 996.218182 -108.097446 
L 992.139607 -110.812107 
L 988.061032 -119.066437 
L 983.982458 -124.143432 
L 979.903883 -122.421083 
L 975.825308 -140.999765 
L 971.746734 -198.001238 
L 967.668159 -218.245454 
L 963.589584 -268.812342 
L 959.51101 -331.546891 
L 955.432435 -413.443844 
L 951.35386 -455.714686 
L 947.275286 -416.147864 
L 943.196711 -552.217329 
L 939.118136 -729.257143 
L 935.039561 -639.879856 
L 930.960987 -630.750747 
L 926.882412 -626.325634 
L 922.803837 -443.308044 
L 918.725263 -439.811278 
L 914.646688 -454.675954 
L 910.568113 -357.429731 
L 906.489539 -270.992959 
L 902.410964 -277.352701 
L 898.332389 -294.399078 
L 894.253815 -270.169566 
L 890.17524 -200.027686 
L 886.096665 -184.273631 
L 882.01809 -170.846402 
L 877.939516 -184.741393 
L 873.860941 -197.813284 
L 869.782366 -200.619402 
L 865.703792 -192.618354 
L 861.625217 -207.983233 
L 857.546642 -210.194545 
L 853.468068 -201.062795 
L 849.389493 -185.058166 
L 845.310918 -171.584489 
L 841.232344 -186.511948 
L 837.153769 -200.576205 
L 833.075194 -169.451323 
L 828.996619 -171.333333 
L 824.918045 -167.706698 
L 820.83947 -139.584327 
L 816.760895 -147.515922 
L 812.682321 -165.620757 
L 808.603746 -173.650049 
L 804.525171 -164.941825 
L 800.446597 -149.504689 
L 796.368022 -144.703755 
L 792.289447 -148.981257 
L 788.210873 -144.075961 
L 784.132298 -144.390517 
L 780.053723 -147.879797 
L 775.975148 -146.867959 
L 771.896574 -126.675347 
L 767.817999 -134.167452 
L 763.739424 -126.621191 
L 759.66085 -111.579354 
L 755.582275 -111.449224 
L 751.5037 -132.278001 
L 747.425126 -136.648221 
L 743.346551 -138.131962 
L 739.267976 -164.177188 
L 735.189402 -146.48749 
L 731.110827 -125.352647 
L 727.032252 -116.595903 
L 722.953677 -115.420117 
L 718.875103 -128.239286 
L 714.796528 -123.948021 
L 710.717953 -119.591325 
L 706.639379 -129.357777 
L 702.560804 -125.703523 
L 698.482229 -117.04165 
L 694.403655 -109.197847 
L 690.32508 -108.215376 
L 686.246505 -111.870771 
L 682.167931 -117.369552 
L 678.089356 -121.892029 
L 674.010781 -131.896409 
L 669.932206 -117.465588 
L 665.853632 -122.738825 
L 661.775057 -127.009862 
L 657.696482 -124.97813 
L 653.617908 -130.204413 
L 649.539333 -130.911343 
L 645.460758 -123.44309 
L 641.382184 -113.70239 
L 637.303609 -109.621448 
L 633.225034 -115.766036 
L 629.14646 -114.846078 
L 625.067885 -116.431293 
L 620.98931 -113.017577 
L 616.910735 -108.352019 
L 612.832161 -108.002772 
L 608.753586 -108.001228 
L 604.675011 -108.290853 
L 600.596437 -116.659396 
L 596.517862 -143.728725 
L 592.439287 -133.431734 
L 588.360713 -112.036765 
L 584.282138 -111.206823 
L 580.203563 -125.471137 
L 576.124989 -125.45937 
L 572.046414 -115.903694 
L 567.967839 -116.844967 
L 563.889265 -112.271514 
L 559.81069 -108.242558 
L 555.732115 -108.003321 
L 551.65354 -108.265146 
L 547.574966 -112.440042 
L 543.496391 -116.336044 
L 539.417816 -109.754699 
L 535.339242 -108.041411 
L 531.260667 -108.000217 
L 527.182092 -108.049272 
L 523.103518 -110.596379 
L 519.024943 -124.503377 
L 514.946368 -125.978137 
L 510.867794 -114.861302 
L 506.789219 -110.315643 
L 502.710644 -116.345359 
L 498.632069 -112.432806 
L 494.553495 -108.264165 
L 490.47492 -108.001765 
L 486.396345 -108.000004 
L 482.317771 -108.003274 
L 478.239196 -108.390995 
L 474.160621 -113.23537 
L 470.082047 -115.859469 
L 466.003472 -109.322845 
L 461.924897 -108.024963 
L 457.846323 -108.000054 
L 453.767748 -108.001218 
L 449.689173 -108.207904 
L 445.610598 -111.97971 
L 441.532024 -116.552122 
L 437.453449 -110.883749 
L 433.374874 -114.946346 
L 429.2963 -114.424833 
L 425.217725 -108.671576 
L 421.13915 -108.009272 
L 417.060576 -108.227666 
L 412.982001 -112.14779 
L 408.903426 -116.472768 
L 404.824852 -109.940455 
L 400.746277 -108.049825 
L 396.667702 -108.000143 
L 392.589127 -108 
L 388.510553 -108 
L 384.431978 -108 
L 380.353403 -108 
L 376.274829 -108 
L 372.196254 -108 
L 368.117679 -108 
L 364.039105 -108 
L 359.96053 -108 
L 355.881955 -108 
L 351.803381 -108 
L 347.724806 -108 
L 343.646231 -108 
L 339.567656 -108 
L 335.489082 -108 
L 331.410507 -108 
L 327.331932 -108 
L 323.253358 -108 
L 319.174783 -108 
L 315.096208 -108 
L 311.017634 -108 
L 306.939059 -108 
L 302.860484 -108 
L 298.78191 -108 
L 294.703335 -108 
L 290.62476 -108 
L 286.546185 -108 
L 282.467611 -108 
L 278.389036 -108 
L 274.310461 -108 
L 270.231887 -108 
L 266.153312 -108 
L 262.074737 -108 
L 257.996163 -108.000005 
L 253.917588 -108.004677 
L 249.839013 -108.488363 
L 245.760439 -113.716977 
L 241.681864 -115.503426 
L 237.603289 -109.104136 
L 233.524714 -108.018216 
L 229.44614 -108.000034 
L 225.367565 -108 
L 221.28899 -108 
L 217.210416 -108 
L 213.131841 -108 
L 209.053266 -108 
L 204.974692 -108.000556 
L 200.896117 -108.124337 
L 196.817542 -111.114932 
L 192.738968 -116.749197 
L 188.660393 -110.755228 
L 184.581818 -108.097278 
z
" id="mdcf9ac5a70" style="stroke:#1f77b4;"/>
    </defs>
    <g clip-path="url(#p609cd37e5a)">
     <use style="fill:#1f77b4;fill-opacity:0.25;stroke:#1f77b4;" x="0" xlink:href="#mdcf9ac5a70" y="864"/>
    </g>
   </g>
   <g id="matplotlib.axis_1">
    <g id="xtick_1">
     <g id="line2d_1">
      <defs>
       <path d="M 0 0 
L 0 3.5 
" id="m9f940c226c" style="stroke:#000000;stroke-width:0.8;"/>
      </defs>
      <g>
       <use style="stroke:#000000;stroke-width:0.8;" x="248.586943" xlink:href="#m9f940c226c" y="756"/>
      </g>
     </g>
     <g id="text_1">
      <!-- 100 -->
      <g transform="translate(239.043193 770.598438)scale(0.1 -0.1)">
       <defs>
        <path d="M 794 531 
L 1825 531 
L 1825 4091 
L 703 3866 
L 703 4441 
L 1819 4666 
L 2450 4666 
L 2450 531 
L 3481 531 
L 3481 0 
L 794 0 
L 794 531 
z
" id="DejaVuSans-31" transform="scale(0.015625)"/>
        <path d="M 2034 4250 
Q 1547 4250 1301 3770 
Q 1056 3291 1056 2328 
Q 1056 1369 1301 889 
Q 1547 409 2034 409 
Q 2525 409 2770 889 
Q 3016 1369 3016 2328 
Q 3016 3291 2770 3770 
Q 2525 4250 2034 4250 
z
M 2034 4750 
Q 2819 4750 3233 4129 
Q 3647 3509 3647 2328 
Q 3647 1150 3233 529 
Q 2819 -91 2034 -91 
Q 1250 -91 836 529 
Q 422 1150 422 2328 
Q 422 3509 836 4129 
Q 1250 4750 2034 4750 
z
" id="DejaVuSans-30" transform="scale(0.015625)"/>
       </defs>
       <use xlink:href="#DejaVuSans-31"/>
       <use x="63.623047" xlink:href="#DejaVuSans-30"/>
       <use x="127.246094" xlink:href="#DejaVuSans-30"/>
      </g>
     </g>
    </g>
    <g id="xtick_2">
     <g id="line2d_2">
      <g>
       <use style="stroke:#000000;stroke-width:0.8;" x="354.368212" xlink:href="#m9f940c226c" y="756"/>
      </g>
     </g>
     <g id="text_2">
      <!-- 105 -->
      <g transform="translate(344.824462 770.598438)scale(0.1 -0.1)">
       <defs>
        <path d="M 691 4666 
L 3169 4666 
L 3169 4134 
L 1269 4134 
L 1269 2991 
Q 1406 3038 1543 3061 
Q 1681 3084 1819 3084 
Q 2600 3084 3056 2656 
Q 3513 2228 3513 1497 
Q 3513 744 3044 326 
Q 2575 -91 1722 -91 
Q 1428 -91 1123 -41 
Q 819 9 494 109 
L 494 744 
Q 775 591 1075 516 
Q 1375 441 1709 441 
Q 2250 441 2565 725 
Q 2881 1009 2881 1497 
Q 2881 1984 2565 2268 
Q 2250 2553 1709 2553 
Q 1456 2553 1204 2497 
Q 953 2441 691 2322 
L 691 4666 
z
" id="DejaVuSans-35" transform="scale(0.015625)"/>
       </defs>
       <use xlink:href="#DejaVuSans-31"/>
       <use x="63.623047" xlink:href="#DejaVuSans-30"/>
       <use x="127.246094" xlink:href="#DejaVuSans-35"/>
      </g>
     </g>
    </g>
    <g id="xtick_3">
     <g id="line2d_3">
      <g>
       <use style="stroke:#000000;stroke-width:0.8;" x="460.149481" xlink:href="#m9f940c226c" y="756"/>
      </g>
     </g>
     <g id="text_3">
      <!-- 110 -->
      <g transform="translate(450.605731 770.598438)scale(0.1 -0.1)">
       <use xlink:href="#DejaVuSans-31"/>
       <use x="63.623047" xlink:href="#DejaVuSans-31"/>
       <use x="127.246094" xlink:href="#DejaVuSans-30"/>
      </g>
     </g>
    </g>
    <g id="xtick_4">
     <g id="line2d_4">
      <g>
       <use style="stroke:#000000;stroke-width:0.8;" x="565.930749" xlink:href="#m9f940c226c" y="756"/>
      </g>
     </g>
     <g id="text_4">
      <!-- 115 -->
      <g transform="translate(556.386999 770.598438)scale(0.1 -0.1)">
       <use xlink:href="#DejaVuSans-31"/>
       <use x="63.623047" xlink:href="#DejaVuSans-31"/>
       <use x="127.246094" xlink:href="#DejaVuSans-35"/>
      </g>
     </g>
    </g>
    <g id="xtick_5">
     <g id="line2d_5">
      <g>
       <use style="stroke:#000000;stroke-width:0.8;" x="671.712018" xlink:href="#m9f940c226c" y="756"/>
      </g>
     </g>
     <g id="text_5">
      <!-- 120 -->
      <g transform="translate(662.168268 770.598438)scale(0.1 -0.1)">
       <defs>
        <path d="M 1228 531 
L 3431 531 
L 3431 0 
L 469 0 
L 469 531 
Q 828 903 1448 1529 
Q 2069 2156 2228 2338 
Q 2531 2678 2651 2914 
Q 2772 3150 2772 3378 
Q 2772 3750 2511 3984 
Q 2250 4219 1831 4219 
Q 1534 4219 1204 4116 
Q 875 4013 500 3803 
L 500 4441 
Q 881 4594 1212 4672 
Q 1544 4750 1819 4750 
Q 2544 4750 2975 4387 
Q 3406 4025 3406 3419 
Q 3406 3131 3298 2873 
Q 3191 2616 2906 2266 
Q 2828 2175 2409 1742 
Q 1991 1309 1228 531 
z
" id="DejaVuSans-32" transform="scale(0.015625)"/>
       </defs>
       <use xlink:href="#DejaVuSans-31"/>
       <use x="63.623047" xlink:href="#DejaVuSans-32"/>
       <use x="127.246094" xlink:href="#DejaVuSans-30"/>
      </g>
     </g>
    </g>
    <g id="xtick_6">
     <g id="line2d_6">
      <g>
       <use style="stroke:#000000;stroke-width:0.8;" x="777.493287" xlink:href="#m9f940c226c" y="756"/>
      </g>
     </g>
     <g id="text_6">
      <!-- 125 -->
      <g transform="translate(767.949537 770.598438)scale(0.1 -0.1)">
       <use xlink:href="#DejaVuSans-31"/>
       <use x="63.623047" xlink:href="#DejaVuSans-32"/>
       <use x="127.246094" xlink:href="#DejaVuSans-35"/>
      </g>
     </g>
    </g>
    <g id="xtick_7">
     <g id="line2d_7">
      <g>
       <use style="stroke:#000000;stroke-width:0.8;" x="883.274556" xlink:href="#m9f940c226c" y="756"/>
      </g>
     </g>
     <g id="text_7">
      <!-- 130 -->
      <g transform="translate(873.730806 770.598438)scale(0.1 -0.1)">
       <defs>
        <path d="M 2597 2516 
Q 3050 2419 3304 2112 
Q 3559 1806 3559 1356 
Q 3559 666 3084 287 
Q 2609 -91 1734 -91 
Q 1441 -91 1130 -33 
Q 819 25 488 141 
L 488 750 
Q 750 597 1062 519 
Q 1375 441 1716 441 
Q 2309 441 2620 675 
Q 2931 909 2931 1356 
Q 2931 1769 2642 2001 
Q 2353 2234 1838 2234 
L 1294 2234 
L 1294 2753 
L 1863 2753 
Q 2328 2753 2575 2939 
Q 2822 3125 2822 3475 
Q 2822 3834 2567 4026 
Q 2313 4219 1838 4219 
Q 1578 4219 1281 4162 
Q 984 4106 628 3988 
L 628 4550 
Q 988 4650 1302 4700 
Q 1616 4750 1894 4750 
Q 2613 4750 3031 4423 
Q 3450 4097 3450 3541 
Q 3450 3153 3228 2886 
Q 3006 2619 2597 2516 
z
" id="DejaVuSans-33" transform="scale(0.015625)"/>
       </defs>
       <use xlink:href="#DejaVuSans-31"/>
       <use x="63.623047" xlink:href="#DejaVuSans-33"/>
       <use x="127.246094" xlink:href="#DejaVuSans-30"/>
      </g>
     </g>
    </g>
    <g id="xtick_8">
     <g id="line2d_8">
      <g>
       <use style="stroke:#000000;stroke-width:0.8;" x="989.055825" xlink:href="#m9f940c226c" y="756"/>
      </g>
     </g>
     <g id="text_8">
      <!-- 135 -->
      <g transform="translate(979.512075 770.598438)scale(0.1 -0.1)">
       <use xlink:href="#DejaVuSans-31"/>
       <use x="63.623047" xlink:href="#DejaVuSans-33"/>
       <use x="127.246094" xlink:href="#DejaVuSans-35"/>
      </g>
     </g>
    </g>
    <g id="text_9">
     <!-- Image Score -->
     <g transform="translate(546.647812 787.315938)scale(0.14 -0.14)">
      <defs>
       <path d="M 628 4666 
L 1259 4666 
L 1259 0 
L 628 0 
L 628 4666 
z
" id="DejaVuSans-49" transform="scale(0.015625)"/>
       <path d="M 3328 2828 
Q 3544 3216 3844 3400 
Q 4144 3584 4550 3584 
Q 5097 3584 5394 3201 
Q 5691 2819 5691 2113 
L 5691 0 
L 5113 0 
L 5113 2094 
Q 5113 2597 4934 2840 
Q 4756 3084 4391 3084 
Q 3944 3084 3684 2787 
Q 3425 2491 3425 1978 
L 3425 0 
L 2847 0 
L 2847 2094 
Q 2847 2600 2669 2842 
Q 2491 3084 2119 3084 
Q 1678 3084 1418 2786 
Q 1159 2488 1159 1978 
L 1159 0 
L 581 0 
L 581 3500 
L 1159 3500 
L 1159 2956 
Q 1356 3278 1631 3431 
Q 1906 3584 2284 3584 
Q 2666 3584 2933 3390 
Q 3200 3197 3328 2828 
z
" id="DejaVuSans-6d" transform="scale(0.015625)"/>
       <path d="M 2194 1759 
Q 1497 1759 1228 1600 
Q 959 1441 959 1056 
Q 959 750 1161 570 
Q 1363 391 1709 391 
Q 2188 391 2477 730 
Q 2766 1069 2766 1631 
L 2766 1759 
L 2194 1759 
z
M 3341 1997 
L 3341 0 
L 2766 0 
L 2766 531 
Q 2569 213 2275 61 
Q 1981 -91 1556 -91 
Q 1019 -91 701 211 
Q 384 513 384 1019 
Q 384 1609 779 1909 
Q 1175 2209 1959 2209 
L 2766 2209 
L 2766 2266 
Q 2766 2663 2505 2880 
Q 2244 3097 1772 3097 
Q 1472 3097 1187 3025 
Q 903 2953 641 2809 
L 641 3341 
Q 956 3463 1253 3523 
Q 1550 3584 1831 3584 
Q 2591 3584 2966 3190 
Q 3341 2797 3341 1997 
z
" id="DejaVuSans-61" transform="scale(0.015625)"/>
       <path d="M 2906 1791 
Q 2906 2416 2648 2759 
Q 2391 3103 1925 3103 
Q 1463 3103 1205 2759 
Q 947 2416 947 1791 
Q 947 1169 1205 825 
Q 1463 481 1925 481 
Q 2391 481 2648 825 
Q 2906 1169 2906 1791 
z
M 3481 434 
Q 3481 -459 3084 -895 
Q 2688 -1331 1869 -1331 
Q 1566 -1331 1297 -1286 
Q 1028 -1241 775 -1147 
L 775 -588 
Q 1028 -725 1275 -790 
Q 1522 -856 1778 -856 
Q 2344 -856 2625 -561 
Q 2906 -266 2906 331 
L 2906 616 
Q 2728 306 2450 153 
Q 2172 0 1784 0 
Q 1141 0 747 490 
Q 353 981 353 1791 
Q 353 2603 747 3093 
Q 1141 3584 1784 3584 
Q 2172 3584 2450 3431 
Q 2728 3278 2906 2969 
L 2906 3500 
L 3481 3500 
L 3481 434 
z
" id="DejaVuSans-67" transform="scale(0.015625)"/>
       <path d="M 3597 1894 
L 3597 1613 
L 953 1613 
Q 991 1019 1311 708 
Q 1631 397 2203 397 
Q 2534 397 2845 478 
Q 3156 559 3463 722 
L 3463 178 
Q 3153 47 2828 -22 
Q 2503 -91 2169 -91 
Q 1331 -91 842 396 
Q 353 884 353 1716 
Q 353 2575 817 3079 
Q 1281 3584 2069 3584 
Q 2775 3584 3186 3129 
Q 3597 2675 3597 1894 
z
M 3022 2063 
Q 3016 2534 2758 2815 
Q 2500 3097 2075 3097 
Q 1594 3097 1305 2825 
Q 1016 2553 972 2059 
L 3022 2063 
z
" id="DejaVuSans-65" transform="scale(0.015625)"/>
       <path id="DejaVuSans-20" transform="scale(0.015625)"/>
       <path d="M 3425 4513 
L 3425 3897 
Q 3066 4069 2747 4153 
Q 2428 4238 2131 4238 
Q 1616 4238 1336 4038 
Q 1056 3838 1056 3469 
Q 1056 3159 1242 3001 
Q 1428 2844 1947 2747 
L 2328 2669 
Q 3034 2534 3370 2195 
Q 3706 1856 3706 1288 
Q 3706 609 3251 259 
Q 2797 -91 1919 -91 
Q 1588 -91 1214 -16 
Q 841 59 441 206 
L 441 856 
Q 825 641 1194 531 
Q 1563 422 1919 422 
Q 2459 422 2753 634 
Q 3047 847 3047 1241 
Q 3047 1584 2836 1778 
Q 2625 1972 2144 2069 
L 1759 2144 
Q 1053 2284 737 2584 
Q 422 2884 422 3419 
Q 422 4038 858 4394 
Q 1294 4750 2059 4750 
Q 2388 4750 2728 4690 
Q 3069 4631 3425 4513 
z
" id="DejaVuSans-53" transform="scale(0.015625)"/>
       <path d="M 3122 3366 
L 3122 2828 
Q 2878 2963 2633 3030 
Q 2388 3097 2138 3097 
Q 1578 3097 1268 2742 
Q 959 2388 959 1747 
Q 959 1106 1268 751 
Q 1578 397 2138 397 
Q 2388 397 2633 464 
Q 2878 531 3122 666 
L 3122 134 
Q 2881 22 2623 -34 
Q 2366 -91 2075 -91 
Q 1284 -91 818 406 
Q 353 903 353 1747 
Q 353 2603 823 3093 
Q 1294 3584 2113 3584 
Q 2378 3584 2631 3529 
Q 2884 3475 3122 3366 
z
" id="DejaVuSans-63" transform="scale(0.015625)"/>
       <path d="M 1959 3097 
Q 1497 3097 1228 2736 
Q 959 2375 959 1747 
Q 959 1119 1226 758 
Q 1494 397 1959 397 
Q 2419 397 2687 759 
Q 2956 1122 2956 1747 
Q 2956 2369 2687 2733 
Q 2419 3097 1959 3097 
z
M 1959 3584 
Q 2709 3584 3137 3096 
Q 3566 2609 3566 1747 
Q 3566 888 3137 398 
Q 2709 -91 1959 -91 
Q 1206 -91 779 398 
Q 353 888 353 1747 
Q 353 2609 779 3096 
Q 1206 3584 1959 3584 
z
" id="DejaVuSans-6f" transform="scale(0.015625)"/>
       <path d="M 2631 2963 
Q 2534 3019 2420 3045 
Q 2306 3072 2169 3072 
Q 1681 3072 1420 2755 
Q 1159 2438 1159 1844 
L 1159 0 
L 581 0 
L 581 3500 
L 1159 3500 
L 1159 2956 
Q 1341 3275 1631 3429 
Q 1922 3584 2338 3584 
Q 2397 3584 2469 3576 
Q 2541 3569 2628 3553 
L 2631 2963 
z
" id="DejaVuSans-72" transform="scale(0.015625)"/>
      </defs>
      <use xlink:href="#DejaVuSans-49"/>
      <use x="29.492188" xlink:href="#DejaVuSans-6d"/>
      <use x="126.904297" xlink:href="#DejaVuSans-61"/>
      <use x="188.183594" xlink:href="#DejaVuSans-67"/>
      <use x="251.660156" xlink:href="#DejaVuSans-65"/>
      <use x="313.183594" xlink:href="#DejaVuSans-20"/>
      <use x="344.970703" xlink:href="#DejaVuSans-53"/>
      <use x="408.447266" xlink:href="#DejaVuSans-63"/>
      <use x="463.427734" xlink:href="#DejaVuSans-6f"/>
      <use x="524.609375" xlink:href="#DejaVuSans-72"/>
      <use x="563.472656" xlink:href="#DejaVuSans-65"/>
     </g>
    </g>
   </g>
   <g id="matplotlib.axis_2">
    <g id="ytick_1">
     <g id="line2d_9">
      <defs>
       <path d="M 0 0 
L -3.5 0 
" id="ma7d92032c7" style="stroke:#000000;stroke-width:0.8;"/>
      </defs>
      <g>
       <use style="stroke:#000000;stroke-width:0.8;" x="144" xlink:href="#ma7d92032c7" y="756"/>
      </g>
     </g>
     <g id="text_10">
      <!-- 0.00 -->
      <g transform="translate(114.734375 759.799219)scale(0.1 -0.1)">
       <defs>
        <path d="M 684 794 
L 1344 794 
L 1344 0 
L 684 0 
L 684 794 
z
" id="DejaVuSans-2e" transform="scale(0.015625)"/>
       </defs>
       <use xlink:href="#DejaVuSans-30"/>
       <use x="63.623047" xlink:href="#DejaVuSans-2e"/>
       <use x="95.410156" xlink:href="#DejaVuSans-30"/>
       <use x="159.033203" xlink:href="#DejaVuSans-30"/>
      </g>
     </g>
    </g>
    <g id="ytick_2">
     <g id="line2d_10">
      <g>
       <use style="stroke:#000000;stroke-width:0.8;" x="144" xlink:href="#ma7d92032c7" y="661.886463"/>
      </g>
     </g>
     <g id="text_11">
      <!-- 0.05 -->
      <g transform="translate(114.734375 665.685682)scale(0.1 -0.1)">
       <use xlink:href="#DejaVuSans-30"/>
       <use x="63.623047" xlink:href="#DejaVuSans-2e"/>
       <use x="95.410156" xlink:href="#DejaVuSans-30"/>
       <use x="159.033203" xlink:href="#DejaVuSans-35"/>
      </g>
     </g>
    </g>
    <g id="ytick_3">
     <g id="line2d_11">
      <g>
       <use style="stroke:#000000;stroke-width:0.8;" x="144" xlink:href="#ma7d92032c7" y="567.772927"/>
      </g>
     </g>
     <g id="text_12">
      <!-- 0.10 -->
      <g transform="translate(114.734375 571.572145)scale(0.1 -0.1)">
       <use xlink:href="#DejaVuSans-30"/>
       <use x="63.623047" xlink:href="#DejaVuSans-2e"/>
       <use x="95.410156" xlink:href="#DejaVuSans-31"/>
       <use x="159.033203" xlink:href="#DejaVuSans-30"/>
      </g>
     </g>
    </g>
    <g id="ytick_4">
     <g id="line2d_12">
      <g>
       <use style="stroke:#000000;stroke-width:0.8;" x="144" xlink:href="#ma7d92032c7" y="473.65939"/>
      </g>
     </g>
     <g id="text_13">
      <!-- 0.15 -->
      <g transform="translate(114.734375 477.458609)scale(0.1 -0.1)">
       <use xlink:href="#DejaVuSans-30"/>
       <use x="63.623047" xlink:href="#DejaVuSans-2e"/>
       <use x="95.410156" xlink:href="#DejaVuSans-31"/>
       <use x="159.033203" xlink:href="#DejaVuSans-35"/>
      </g>
     </g>
    </g>
    <g id="ytick_5">
     <g id="line2d_13">
      <g>
       <use style="stroke:#000000;stroke-width:0.8;" x="144" xlink:href="#ma7d92032c7" y="379.545853"/>
      </g>
     </g>
     <g id="text_14">
      <!-- 0.20 -->
      <g transform="translate(114.734375 383.345072)scale(0.1 -0.1)">
       <use xlink:href="#DejaVuSans-30"/>
       <use x="63.623047" xlink:href="#DejaVuSans-2e"/>
       <use x="95.410156" xlink:href="#DejaVuSans-32"/>
       <use x="159.033203" xlink:href="#DejaVuSans-30"/>
      </g>
     </g>
    </g>
    <g id="ytick_6">
     <g id="line2d_14">
      <g>
       <use style="stroke:#000000;stroke-width:0.8;" x="144" xlink:href="#ma7d92032c7" y="285.432316"/>
      </g>
     </g>
     <g id="text_15">
      <!-- 0.25 -->
      <g transform="translate(114.734375 289.231535)scale(0.1 -0.1)">
       <use xlink:href="#DejaVuSans-30"/>
       <use x="63.623047" xlink:href="#DejaVuSans-2e"/>
       <use x="95.410156" xlink:href="#DejaVuSans-32"/>
       <use x="159.033203" xlink:href="#DejaVuSans-35"/>
      </g>
     </g>
    </g>
    <g id="ytick_7">
     <g id="line2d_15">
      <g>
       <use style="stroke:#000000;stroke-width:0.8;" x="144" xlink:href="#ma7d92032c7" y="191.31878"/>
      </g>
     </g>
     <g id="text_16">
      <!-- 0.30 -->
      <g transform="translate(114.734375 195.117998)scale(0.1 -0.1)">
       <use xlink:href="#DejaVuSans-30"/>
       <use x="63.623047" xlink:href="#DejaVuSans-2e"/>
       <use x="95.410156" xlink:href="#DejaVuSans-33"/>
       <use x="159.033203" xlink:href="#DejaVuSans-30"/>
      </g>
     </g>
    </g>
    <g id="text_17">
     <!-- Density -->
     <g transform="translate(107.822812 456.452031)rotate(-90)scale(0.14 -0.14)">
      <defs>
       <path d="M 1259 4147 
L 1259 519 
L 2022 519 
Q 2988 519 3436 956 
Q 3884 1394 3884 2338 
Q 3884 3275 3436 3711 
Q 2988 4147 2022 4147 
L 1259 4147 
z
M 628 4666 
L 1925 4666 
Q 3281 4666 3915 4102 
Q 4550 3538 4550 2338 
Q 4550 1131 3912 565 
Q 3275 0 1925 0 
L 628 0 
L 628 4666 
z
" id="DejaVuSans-44" transform="scale(0.015625)"/>
       <path d="M 3513 2113 
L 3513 0 
L 2938 0 
L 2938 2094 
Q 2938 2591 2744 2837 
Q 2550 3084 2163 3084 
Q 1697 3084 1428 2787 
Q 1159 2491 1159 1978 
L 1159 0 
L 581 0 
L 581 3500 
L 1159 3500 
L 1159 2956 
Q 1366 3272 1645 3428 
Q 1925 3584 2291 3584 
Q 2894 3584 3203 3211 
Q 3513 2838 3513 2113 
z
" id="DejaVuSans-6e" transform="scale(0.015625)"/>
       <path d="M 2834 3397 
L 2834 2853 
Q 2591 2978 2328 3040 
Q 2066 3103 1784 3103 
Q 1356 3103 1142 2972 
Q 928 2841 928 2578 
Q 928 2378 1081 2264 
Q 1234 2150 1697 2047 
L 1894 2003 
Q 2506 1872 2764 1633 
Q 3022 1394 3022 966 
Q 3022 478 2636 193 
Q 2250 -91 1575 -91 
Q 1294 -91 989 -36 
Q 684 19 347 128 
L 347 722 
Q 666 556 975 473 
Q 1284 391 1588 391 
Q 1994 391 2212 530 
Q 2431 669 2431 922 
Q 2431 1156 2273 1281 
Q 2116 1406 1581 1522 
L 1381 1569 
Q 847 1681 609 1914 
Q 372 2147 372 2553 
Q 372 3047 722 3315 
Q 1072 3584 1716 3584 
Q 2034 3584 2315 3537 
Q 2597 3491 2834 3397 
z
" id="DejaVuSans-73" transform="scale(0.015625)"/>
       <path d="M 603 3500 
L 1178 3500 
L 1178 0 
L 603 0 
L 603 3500 
z
M 603 4863 
L 1178 4863 
L 1178 4134 
L 603 4134 
L 603 4863 
z
" id="DejaVuSans-69" transform="scale(0.015625)"/>
       <path d="M 1172 4494 
L 1172 3500 
L 2356 3500 
L 2356 3053 
L 1172 3053 
L 1172 1153 
Q 1172 725 1289 603 
Q 1406 481 1766 481 
L 2356 481 
L 2356 0 
L 1766 0 
Q 1100 0 847 248 
Q 594 497 594 1153 
L 594 3053 
L 172 3053 
L 172 3500 
L 594 3500 
L 594 4494 
L 1172 4494 
z
" id="DejaVuSans-74" transform="scale(0.015625)"/>
       <path d="M 2059 -325 
Q 1816 -950 1584 -1140 
Q 1353 -1331 966 -1331 
L 506 -1331 
L 506 -850 
L 844 -850 
Q 1081 -850 1212 -737 
Q 1344 -625 1503 -206 
L 1606 56 
L 191 3500 
L 800 3500 
L 1894 763 
L 2988 3500 
L 3597 3500 
L 2059 -325 
z
" id="DejaVuSans-79" transform="scale(0.015625)"/>
      </defs>
      <use xlink:href="#DejaVuSans-44"/>
      <use x="77.001953" xlink:href="#DejaVuSans-65"/>
      <use x="138.525391" xlink:href="#DejaVuSans-6e"/>
      <use x="201.904297" xlink:href="#DejaVuSans-73"/>
      <use x="254.003906" xlink:href="#DejaVuSans-69"/>
      <use x="281.787109" xlink:href="#DejaVuSans-74"/>
      <use x="320.996094" xlink:href="#DejaVuSans-79"/>
     </g>
    </g>
   </g>
   <g id="patch_3">
    <path d="M 144 756 
L 144 103.68 
" style="fill:none;stroke:#000000;stroke-linecap:square;stroke-linejoin:miter;stroke-width:0.8;"/>
   </g>
   <g id="patch_4">
    <path d="M 1036.8 756 
L 1036.8 103.68 
" style="fill:none;stroke:#000000;stroke-linecap:square;stroke-linejoin:miter;stroke-width:0.8;"/>
   </g>
   <g id="patch_5">
    <path d="M 144 756 
L 1036.8 756 
" style="fill:none;stroke:#000000;stroke-linecap:square;stroke-linejoin:miter;stroke-width:0.8;"/>
   </g>
   <g id="patch_6">
    <path d="M 144 103.68 
L 1036.8 103.68 
" style="fill:none;stroke:#000000;stroke-linecap:square;stroke-linejoin:miter;stroke-width:0.8;"/>
   </g>
   <g id="text_18">
    <!-- Quality of image -->
    <g transform="translate(515.811094 97.68)scale(0.18 -0.18)">
     <defs>
      <path d="M 2522 4238 
Q 1834 4238 1429 3725 
Q 1025 3213 1025 2328 
Q 1025 1447 1429 934 
Q 1834 422 2522 422 
Q 3209 422 3611 934 
Q 4013 1447 4013 2328 
Q 4013 3213 3611 3725 
Q 3209 4238 2522 4238 
z
M 3406 84 
L 4238 -825 
L 3475 -825 
L 2784 -78 
Q 2681 -84 2626 -87 
Q 2572 -91 2522 -91 
Q 1538 -91 948 567 
Q 359 1225 359 2328 
Q 359 3434 948 4092 
Q 1538 4750 2522 4750 
Q 3503 4750 4090 4092 
Q 4678 3434 4678 2328 
Q 4678 1516 4351 937 
Q 4025 359 3406 84 
z
" id="DejaVuSans-51" transform="scale(0.015625)"/>
      <path d="M 544 1381 
L 544 3500 
L 1119 3500 
L 1119 1403 
Q 1119 906 1312 657 
Q 1506 409 1894 409 
Q 2359 409 2629 706 
Q 2900 1003 2900 1516 
L 2900 3500 
L 3475 3500 
L 3475 0 
L 2900 0 
L 2900 538 
Q 2691 219 2414 64 
Q 2138 -91 1772 -91 
Q 1169 -91 856 284 
Q 544 659 544 1381 
z
M 1991 3584 
L 1991 3584 
z
" id="DejaVuSans-75" transform="scale(0.015625)"/>
      <path d="M 603 4863 
L 1178 4863 
L 1178 0 
L 603 0 
L 603 4863 
z
" id="DejaVuSans-6c" transform="scale(0.015625)"/>
      <path d="M 2375 4863 
L 2375 4384 
L 1825 4384 
Q 1516 4384 1395 4259 
Q 1275 4134 1275 3809 
L 1275 3500 
L 2222 3500 
L 2222 3053 
L 1275 3053 
L 1275 0 
L 697 0 
L 697 3053 
L 147 3053 
L 147 3500 
L 697 3500 
L 697 3744 
Q 697 4328 969 4595 
Q 1241 4863 1831 4863 
L 2375 4863 
z
" id="DejaVuSans-66" transform="scale(0.015625)"/>
     </defs>
     <use xlink:href="#DejaVuSans-51"/>
     <use x="78.710938" xlink:href="#DejaVuSans-75"/>
     <use x="142.089844" xlink:href="#DejaVuSans-61"/>
     <use x="203.369141" xlink:href="#DejaVuSans-6c"/>
     <use x="231.152344" xlink:href="#DejaVuSans-69"/>
     <use x="258.935547" xlink:href="#DejaVuSans-74"/>
     <use x="298.144531" xlink:href="#DejaVuSans-79"/>
     <use x="357.324219" xlink:href="#DejaVuSans-20"/>
     <use x="389.111328" xlink:href="#DejaVuSans-6f"/>
     <use x="450.292969" xlink:href="#DejaVuSans-66"/>
     <use x="485.498047" xlink:href="#DejaVuSans-20"/>
     <use x="517.285156" xlink:href="#DejaVuSans-69"/>
     <use x="545.068359" xlink:href="#DejaVuSans-6d"/>
     <use x="642.480469" xlink:href="#DejaVuSans-61"/>
     <use x="703.759766" xlink:href="#DejaVuSans-67"/>
     <use x="767.236328" xlink:href="#DejaVuSans-65"/>
    </g>
   </g>
   <g id="legend_1">
    <g id="patch_7">
     <path d="M 946.803125 173.135 
L 1029.8 173.135 
Q 1031.8 173.135 1031.8 171.135 
L 1031.8 110.68 
Q 1031.8 108.68 1029.8 108.68 
L 946.803125 108.68 
Q 944.803125 108.68 944.803125 110.68 
L 944.803125 171.135 
Q 944.803125 173.135 946.803125 173.135 
z
" style="fill:#ffffff;opacity:0.8;stroke:#cccccc;stroke-linejoin:miter;"/>
    </g>
    <g id="text_19">
     <!-- atypical -->
     <g transform="translate(948.803125 127.876875)scale(0.2 -0.2)">
      <defs>
       <path d="M 1159 525 
L 1159 -1331 
L 581 -1331 
L 581 3500 
L 1159 3500 
L 1159 2969 
Q 1341 3281 1617 3432 
Q 1894 3584 2278 3584 
Q 2916 3584 3314 3078 
Q 3713 2572 3713 1747 
Q 3713 922 3314 415 
Q 2916 -91 2278 -91 
Q 1894 -91 1617 61 
Q 1341 213 1159 525 
z
M 3116 1747 
Q 3116 2381 2855 2742 
Q 2594 3103 2138 3103 
Q 1681 3103 1420 2742 
Q 1159 2381 1159 1747 
Q 1159 1113 1420 752 
Q 1681 391 2138 391 
Q 2594 391 2855 752 
Q 3116 1113 3116 1747 
z
" id="DejaVuSans-70" transform="scale(0.015625)"/>
      </defs>
      <use xlink:href="#DejaVuSans-61"/>
      <use x="61.279297" xlink:href="#DejaVuSans-74"/>
      <use x="100.488281" xlink:href="#DejaVuSans-79"/>
      <use x="159.667969" xlink:href="#DejaVuSans-70"/>
      <use x="223.144531" xlink:href="#DejaVuSans-69"/>
      <use x="250.927734" xlink:href="#DejaVuSans-63"/>
      <use x="305.908203" xlink:href="#DejaVuSans-61"/>
      <use x="367.1875" xlink:href="#DejaVuSans-6c"/>
     </g>
    </g>
    <g id="patch_8">
     <path d="M 956.726094 147.674062 
L 976.726094 147.674062 
L 976.726094 140.674062 
L 956.726094 140.674062 
z
" style="fill:#1f77b4;fill-opacity:0.25;stroke:#1f77b4;stroke-linejoin:miter;"/>
    </g>
    <g id="text_20">
     <!-- False -->
     <g transform="translate(984.726094 147.674062)scale(0.14 -0.14)">
      <defs>
       <path d="M 628 4666 
L 3309 4666 
L 3309 4134 
L 1259 4134 
L 1259 2759 
L 3109 2759 
L 3109 2228 
L 1259 2228 
L 1259 0 
L 628 0 
L 628 4666 
z
" id="DejaVuSans-46" transform="scale(0.015625)"/>
      </defs>
      <use xlink:href="#DejaVuSans-46"/>
      <use x="48.394531" xlink:href="#DejaVuSans-61"/>
      <use x="109.673828" xlink:href="#DejaVuSans-6c"/>
      <use x="137.457031" xlink:href="#DejaVuSans-73"/>
      <use x="189.556641" xlink:href="#DejaVuSans-65"/>
     </g>
    </g>
    <g id="patch_9">
     <path d="M 956.726094 166.223438 
L 976.726094 166.223438 
L 976.726094 159.223438 
L 956.726094 159.223438 
z
" style="fill:#ff7f0e;fill-opacity:0.25;stroke:#ff7f0e;stroke-linejoin:miter;"/>
    </g>
    <g id="text_21">
     <!-- True -->
     <g transform="translate(984.726094 166.223438)scale(0.14 -0.14)">
      <defs>
       <path d="M -19 4666 
L 3928 4666 
L 3928 4134 
L 2272 4134 
L 2272 0 
L 1638 0 
L 1638 4134 
L -19 4134 
L -19 4666 
z
" id="DejaVuSans-54" transform="scale(0.015625)"/>
      </defs>
      <use xlink:href="#DejaVuSans-54"/>
      <use x="46.333984" xlink:href="#DejaVuSans-72"/>
      <use x="87.447266" xlink:href="#DejaVuSans-75"/>
      <use x="150.826172" xlink:href="#DejaVuSans-65"/>
     </g>
    </g>
   </g>
  </g>
 </g>
 <defs>
  <clipPath id="p609cd37e5a">
   <rect height="652.32" width="892.8" x="144" y="103.68"/>
  </clipPath>
 </defs>
</svg>
