<?xml version="1.0" encoding="utf-8" standalone="no"?>
<!DOCTYPE svg PUBLIC "-//W3C//DTD SVG 1.1//EN"
  "http://www.w3.org/Graphics/SVG/1.1/DTD/svg11.dtd">
<svg height="864pt" version="1.1" viewBox="0 0 1152 864" width="1152pt" xmlns="http://www.w3.org/2000/svg" xmlns:xlink="http://www.w3.org/1999/xlink">
 <metadata>
  <rdf:RDF xmlns:cc="http://creativecommons.org/ns#" xmlns:dc="http://purl.org/dc/elements/1.1/" xmlns:rdf="http://www.w3.org/1999/02/22-rdf-syntax-ns#">
   <cc:Work>
    <dc:type rdf:resource="http://purl.org/dc/dcmitype/StillImage"/>
    <dc:date>2022-04-10T17:58:02.624213</dc:date>
    <dc:format>image/svg+xml</dc:format>
    <dc:creator>
     <cc:Agent>
      <dc:title>Matplotlib v3.4.3, https://matplotlib.org/</dc:title>
     </cc:Agent>
    </dc:creator>
   </cc:Work>
  </rdf:RDF>
 </metadata>
 <defs>
  <style type="text/css">*{stroke-linecap:butt;stroke-linejoin:round;}</style>
 </defs>
 <g id="figure_1">
  <g id="patch_1">
   <path d="M 0 864 
L 1152 864 
L 1152 0 
L 0 0 
z
" style="fill:none;"/>
  </g>
  <g id="axes_1">
   <g id="patch_2">
    <path d="M 144 756 
L 1036.8 756 
L 1036.8 103.68 
L 144 103.68 
z
" style="fill:#ffffff;"/>
   </g>
   <g id="matplotlib.axis_1">
    <g id="xtick_1">
     <g id="line2d_1">
      <defs>
       <path d="M 0 0 
L 0 3.5 
" id="m65feba07c4" style="stroke:#000000;stroke-width:0.8;"/>
      </defs>
      <g>
       <use style="stroke:#000000;stroke-width:0.8;" x="184.581818" xlink:href="#m65feba07c4" y="756"/>
      </g>
     </g>
     <g id="text_1">
      <!-- 0 -->
      <g transform="translate(181.400568 770.598438)scale(0.1 -0.1)">
       <defs>
        <path d="M 2034 4250 
Q 1547 4250 1301 3770 
Q 1056 3291 1056 2328 
Q 1056 1369 1301 889 
Q 1547 409 2034 409 
Q 2525 409 2770 889 
Q 3016 1369 3016 2328 
Q 3016 3291 2770 3770 
Q 2525 4250 2034 4250 
z
M 2034 4750 
Q 2819 4750 3233 4129 
Q 3647 3509 3647 2328 
Q 3647 1150 3233 529 
Q 2819 -91 2034 -91 
Q 1250 -91 836 529 
Q 422 1150 422 2328 
Q 422 3509 836 4129 
Q 1250 4750 2034 4750 
z
" id="DejaVuSans-30" transform="scale(0.015625)"/>
       </defs>
       <use xlink:href="#DejaVuSans-30"/>
      </g>
     </g>
    </g>
    <g id="xtick_2">
     <g id="line2d_2">
      <g>
       <use style="stroke:#000000;stroke-width:0.8;" x="285.650939" xlink:href="#m65feba07c4" y="756"/>
      </g>
     </g>
     <g id="text_2">
      <!-- 500 -->
      <g transform="translate(276.107189 770.598438)scale(0.1 -0.1)">
       <defs>
        <path d="M 691 4666 
L 3169 4666 
L 3169 4134 
L 1269 4134 
L 1269 2991 
Q 1406 3038 1543 3061 
Q 1681 3084 1819 3084 
Q 2600 3084 3056 2656 
Q 3513 2228 3513 1497 
Q 3513 744 3044 326 
Q 2575 -91 1722 -91 
Q 1428 -91 1123 -41 
Q 819 9 494 109 
L 494 744 
Q 775 591 1075 516 
Q 1375 441 1709 441 
Q 2250 441 2565 725 
Q 2881 1009 2881 1497 
Q 2881 1984 2565 2268 
Q 2250 2553 1709 2553 
Q 1456 2553 1204 2497 
Q 953 2441 691 2322 
L 691 4666 
z
" id="DejaVuSans-35" transform="scale(0.015625)"/>
       </defs>
       <use xlink:href="#DejaVuSans-35"/>
       <use x="63.623047" xlink:href="#DejaVuSans-30"/>
       <use x="127.246094" xlink:href="#DejaVuSans-30"/>
      </g>
     </g>
    </g>
    <g id="xtick_3">
     <g id="line2d_3">
      <g>
       <use style="stroke:#000000;stroke-width:0.8;" x="386.72006" xlink:href="#m65feba07c4" y="756"/>
      </g>
     </g>
     <g id="text_3">
      <!-- 1000 -->
      <g transform="translate(373.99506 770.598438)scale(0.1 -0.1)">
       <defs>
        <path d="M 794 531 
L 1825 531 
L 1825 4091 
L 703 3866 
L 703 4441 
L 1819 4666 
L 2450 4666 
L 2450 531 
L 3481 531 
L 3481 0 
L 794 0 
L 794 531 
z
" id="DejaVuSans-31" transform="scale(0.015625)"/>
       </defs>
       <use xlink:href="#DejaVuSans-31"/>
       <use x="63.623047" xlink:href="#DejaVuSans-30"/>
       <use x="127.246094" xlink:href="#DejaVuSans-30"/>
       <use x="190.869141" xlink:href="#DejaVuSans-30"/>
      </g>
     </g>
    </g>
    <g id="xtick_4">
     <g id="line2d_4">
      <g>
       <use style="stroke:#000000;stroke-width:0.8;" x="487.78918" xlink:href="#m65feba07c4" y="756"/>
      </g>
     </g>
     <g id="text_4">
      <!-- 1500 -->
      <g transform="translate(475.06418 770.598438)scale(0.1 -0.1)">
       <use xlink:href="#DejaVuSans-31"/>
       <use x="63.623047" xlink:href="#DejaVuSans-35"/>
       <use x="127.246094" xlink:href="#DejaVuSans-30"/>
       <use x="190.869141" xlink:href="#DejaVuSans-30"/>
      </g>
     </g>
    </g>
    <g id="xtick_5">
     <g id="line2d_5">
      <g>
       <use style="stroke:#000000;stroke-width:0.8;" x="588.858301" xlink:href="#m65feba07c4" y="756"/>
      </g>
     </g>
     <g id="text_5">
      <!-- 2000 -->
      <g transform="translate(576.133301 770.598438)scale(0.1 -0.1)">
       <defs>
        <path d="M 1228 531 
L 3431 531 
L 3431 0 
L 469 0 
L 469 531 
Q 828 903 1448 1529 
Q 2069 2156 2228 2338 
Q 2531 2678 2651 2914 
Q 2772 3150 2772 3378 
Q 2772 3750 2511 3984 
Q 2250 4219 1831 4219 
Q 1534 4219 1204 4116 
Q 875 4013 500 3803 
L 500 4441 
Q 881 4594 1212 4672 
Q 1544 4750 1819 4750 
Q 2544 4750 2975 4387 
Q 3406 4025 3406 3419 
Q 3406 3131 3298 2873 
Q 3191 2616 2906 2266 
Q 2828 2175 2409 1742 
Q 1991 1309 1228 531 
z
" id="DejaVuSans-32" transform="scale(0.015625)"/>
       </defs>
       <use xlink:href="#DejaVuSans-32"/>
       <use x="63.623047" xlink:href="#DejaVuSans-30"/>
       <use x="127.246094" xlink:href="#DejaVuSans-30"/>
       <use x="190.869141" xlink:href="#DejaVuSans-30"/>
      </g>
     </g>
    </g>
    <g id="xtick_6">
     <g id="line2d_6">
      <g>
       <use style="stroke:#000000;stroke-width:0.8;" x="689.927422" xlink:href="#m65feba07c4" y="756"/>
      </g>
     </g>
     <g id="text_6">
      <!-- 2500 -->
      <g transform="translate(677.202422 770.598438)scale(0.1 -0.1)">
       <use xlink:href="#DejaVuSans-32"/>
       <use x="63.623047" xlink:href="#DejaVuSans-35"/>
       <use x="127.246094" xlink:href="#DejaVuSans-30"/>
       <use x="190.869141" xlink:href="#DejaVuSans-30"/>
      </g>
     </g>
    </g>
    <g id="xtick_7">
     <g id="line2d_7">
      <g>
       <use style="stroke:#000000;stroke-width:0.8;" x="790.996543" xlink:href="#m65feba07c4" y="756"/>
      </g>
     </g>
     <g id="text_7">
      <!-- 3000 -->
      <g transform="translate(778.271543 770.598438)scale(0.1 -0.1)">
       <defs>
        <path d="M 2597 2516 
Q 3050 2419 3304 2112 
Q 3559 1806 3559 1356 
Q 3559 666 3084 287 
Q 2609 -91 1734 -91 
Q 1441 -91 1130 -33 
Q 819 25 488 141 
L 488 750 
Q 750 597 1062 519 
Q 1375 441 1716 441 
Q 2309 441 2620 675 
Q 2931 909 2931 1356 
Q 2931 1769 2642 2001 
Q 2353 2234 1838 2234 
L 1294 2234 
L 1294 2753 
L 1863 2753 
Q 2328 2753 2575 2939 
Q 2822 3125 2822 3475 
Q 2822 3834 2567 4026 
Q 2313 4219 1838 4219 
Q 1578 4219 1281 4162 
Q 984 4106 628 3988 
L 628 4550 
Q 988 4650 1302 4700 
Q 1616 4750 1894 4750 
Q 2613 4750 3031 4423 
Q 3450 4097 3450 3541 
Q 3450 3153 3228 2886 
Q 3006 2619 2597 2516 
z
" id="DejaVuSans-33" transform="scale(0.015625)"/>
       </defs>
       <use xlink:href="#DejaVuSans-33"/>
       <use x="63.623047" xlink:href="#DejaVuSans-30"/>
       <use x="127.246094" xlink:href="#DejaVuSans-30"/>
       <use x="190.869141" xlink:href="#DejaVuSans-30"/>
      </g>
     </g>
    </g>
    <g id="xtick_8">
     <g id="line2d_8">
      <g>
       <use style="stroke:#000000;stroke-width:0.8;" x="892.065663" xlink:href="#m65feba07c4" y="756"/>
      </g>
     </g>
     <g id="text_8">
      <!-- 3500 -->
      <g transform="translate(879.340663 770.598438)scale(0.1 -0.1)">
       <use xlink:href="#DejaVuSans-33"/>
       <use x="63.623047" xlink:href="#DejaVuSans-35"/>
       <use x="127.246094" xlink:href="#DejaVuSans-30"/>
       <use x="190.869141" xlink:href="#DejaVuSans-30"/>
      </g>
     </g>
    </g>
    <g id="xtick_9">
     <g id="line2d_9">
      <g>
       <use style="stroke:#000000;stroke-width:0.8;" x="993.134784" xlink:href="#m65feba07c4" y="756"/>
      </g>
     </g>
     <g id="text_9">
      <!-- 4000 -->
      <g transform="translate(980.409784 770.598438)scale(0.1 -0.1)">
       <defs>
        <path d="M 2419 4116 
L 825 1625 
L 2419 1625 
L 2419 4116 
z
M 2253 4666 
L 3047 4666 
L 3047 1625 
L 3713 1625 
L 3713 1100 
L 3047 1100 
L 3047 0 
L 2419 0 
L 2419 1100 
L 313 1100 
L 313 1709 
L 2253 4666 
z
" id="DejaVuSans-34" transform="scale(0.015625)"/>
       </defs>
       <use xlink:href="#DejaVuSans-34"/>
       <use x="63.623047" xlink:href="#DejaVuSans-30"/>
       <use x="127.246094" xlink:href="#DejaVuSans-30"/>
       <use x="190.869141" xlink:href="#DejaVuSans-30"/>
      </g>
     </g>
    </g>
    <g id="text_10">
     <!-- grayscale value -->
     <g transform="translate(535.262969 787.315938)scale(0.14 -0.14)">
      <defs>
       <path d="M 2906 1791 
Q 2906 2416 2648 2759 
Q 2391 3103 1925 3103 
Q 1463 3103 1205 2759 
Q 947 2416 947 1791 
Q 947 1169 1205 825 
Q 1463 481 1925 481 
Q 2391 481 2648 825 
Q 2906 1169 2906 1791 
z
M 3481 434 
Q 3481 -459 3084 -895 
Q 2688 -1331 1869 -1331 
Q 1566 -1331 1297 -1286 
Q 1028 -1241 775 -1147 
L 775 -588 
Q 1028 -725 1275 -790 
Q 1522 -856 1778 -856 
Q 2344 -856 2625 -561 
Q 2906 -266 2906 331 
L 2906 616 
Q 2728 306 2450 153 
Q 2172 0 1784 0 
Q 1141 0 747 490 
Q 353 981 353 1791 
Q 353 2603 747 3093 
Q 1141 3584 1784 3584 
Q 2172 3584 2450 3431 
Q 2728 3278 2906 2969 
L 2906 3500 
L 3481 3500 
L 3481 434 
z
" id="DejaVuSans-67" transform="scale(0.015625)"/>
       <path d="M 2631 2963 
Q 2534 3019 2420 3045 
Q 2306 3072 2169 3072 
Q 1681 3072 1420 2755 
Q 1159 2438 1159 1844 
L 1159 0 
L 581 0 
L 581 3500 
L 1159 3500 
L 1159 2956 
Q 1341 3275 1631 3429 
Q 1922 3584 2338 3584 
Q 2397 3584 2469 3576 
Q 2541 3569 2628 3553 
L 2631 2963 
z
" id="DejaVuSans-72" transform="scale(0.015625)"/>
       <path d="M 2194 1759 
Q 1497 1759 1228 1600 
Q 959 1441 959 1056 
Q 959 750 1161 570 
Q 1363 391 1709 391 
Q 2188 391 2477 730 
Q 2766 1069 2766 1631 
L 2766 1759 
L 2194 1759 
z
M 3341 1997 
L 3341 0 
L 2766 0 
L 2766 531 
Q 2569 213 2275 61 
Q 1981 -91 1556 -91 
Q 1019 -91 701 211 
Q 384 513 384 1019 
Q 384 1609 779 1909 
Q 1175 2209 1959 2209 
L 2766 2209 
L 2766 2266 
Q 2766 2663 2505 2880 
Q 2244 3097 1772 3097 
Q 1472 3097 1187 3025 
Q 903 2953 641 2809 
L 641 3341 
Q 956 3463 1253 3523 
Q 1550 3584 1831 3584 
Q 2591 3584 2966 3190 
Q 3341 2797 3341 1997 
z
" id="DejaVuSans-61" transform="scale(0.015625)"/>
       <path d="M 2059 -325 
Q 1816 -950 1584 -1140 
Q 1353 -1331 966 -1331 
L 506 -1331 
L 506 -850 
L 844 -850 
Q 1081 -850 1212 -737 
Q 1344 -625 1503 -206 
L 1606 56 
L 191 3500 
L 800 3500 
L 1894 763 
L 2988 3500 
L 3597 3500 
L 2059 -325 
z
" id="DejaVuSans-79" transform="scale(0.015625)"/>
       <path d="M 2834 3397 
L 2834 2853 
Q 2591 2978 2328 3040 
Q 2066 3103 1784 3103 
Q 1356 3103 1142 2972 
Q 928 2841 928 2578 
Q 928 2378 1081 2264 
Q 1234 2150 1697 2047 
L 1894 2003 
Q 2506 1872 2764 1633 
Q 3022 1394 3022 966 
Q 3022 478 2636 193 
Q 2250 -91 1575 -91 
Q 1294 -91 989 -36 
Q 684 19 347 128 
L 347 722 
Q 666 556 975 473 
Q 1284 391 1588 391 
Q 1994 391 2212 530 
Q 2431 669 2431 922 
Q 2431 1156 2273 1281 
Q 2116 1406 1581 1522 
L 1381 1569 
Q 847 1681 609 1914 
Q 372 2147 372 2553 
Q 372 3047 722 3315 
Q 1072 3584 1716 3584 
Q 2034 3584 2315 3537 
Q 2597 3491 2834 3397 
z
" id="DejaVuSans-73" transform="scale(0.015625)"/>
       <path d="M 3122 3366 
L 3122 2828 
Q 2878 2963 2633 3030 
Q 2388 3097 2138 3097 
Q 1578 3097 1268 2742 
Q 959 2388 959 1747 
Q 959 1106 1268 751 
Q 1578 397 2138 397 
Q 2388 397 2633 464 
Q 2878 531 3122 666 
L 3122 134 
Q 2881 22 2623 -34 
Q 2366 -91 2075 -91 
Q 1284 -91 818 406 
Q 353 903 353 1747 
Q 353 2603 823 3093 
Q 1294 3584 2113 3584 
Q 2378 3584 2631 3529 
Q 2884 3475 3122 3366 
z
" id="DejaVuSans-63" transform="scale(0.015625)"/>
       <path d="M 603 4863 
L 1178 4863 
L 1178 0 
L 603 0 
L 603 4863 
z
" id="DejaVuSans-6c" transform="scale(0.015625)"/>
       <path d="M 3597 1894 
L 3597 1613 
L 953 1613 
Q 991 1019 1311 708 
Q 1631 397 2203 397 
Q 2534 397 2845 478 
Q 3156 559 3463 722 
L 3463 178 
Q 3153 47 2828 -22 
Q 2503 -91 2169 -91 
Q 1331 -91 842 396 
Q 353 884 353 1716 
Q 353 2575 817 3079 
Q 1281 3584 2069 3584 
Q 2775 3584 3186 3129 
Q 3597 2675 3597 1894 
z
M 3022 2063 
Q 3016 2534 2758 2815 
Q 2500 3097 2075 3097 
Q 1594 3097 1305 2825 
Q 1016 2553 972 2059 
L 3022 2063 
z
" id="DejaVuSans-65" transform="scale(0.015625)"/>
       <path id="DejaVuSans-20" transform="scale(0.015625)"/>
       <path d="M 191 3500 
L 800 3500 
L 1894 563 
L 2988 3500 
L 3597 3500 
L 2284 0 
L 1503 0 
L 191 3500 
z
" id="DejaVuSans-76" transform="scale(0.015625)"/>
       <path d="M 544 1381 
L 544 3500 
L 1119 3500 
L 1119 1403 
Q 1119 906 1312 657 
Q 1506 409 1894 409 
Q 2359 409 2629 706 
Q 2900 1003 2900 1516 
L 2900 3500 
L 3475 3500 
L 3475 0 
L 2900 0 
L 2900 538 
Q 2691 219 2414 64 
Q 2138 -91 1772 -91 
Q 1169 -91 856 284 
Q 544 659 544 1381 
z
M 1991 3584 
L 1991 3584 
z
" id="DejaVuSans-75" transform="scale(0.015625)"/>
      </defs>
      <use xlink:href="#DejaVuSans-67"/>
      <use x="63.476562" xlink:href="#DejaVuSans-72"/>
      <use x="104.589844" xlink:href="#DejaVuSans-61"/>
      <use x="165.869141" xlink:href="#DejaVuSans-79"/>
      <use x="225.048828" xlink:href="#DejaVuSans-73"/>
      <use x="277.148438" xlink:href="#DejaVuSans-63"/>
      <use x="332.128906" xlink:href="#DejaVuSans-61"/>
      <use x="393.408203" xlink:href="#DejaVuSans-6c"/>
      <use x="421.191406" xlink:href="#DejaVuSans-65"/>
      <use x="482.714844" xlink:href="#DejaVuSans-20"/>
      <use x="514.501953" xlink:href="#DejaVuSans-76"/>
      <use x="573.681641" xlink:href="#DejaVuSans-61"/>
      <use x="634.960938" xlink:href="#DejaVuSans-6c"/>
      <use x="662.744141" xlink:href="#DejaVuSans-75"/>
      <use x="726.123047" xlink:href="#DejaVuSans-65"/>
     </g>
    </g>
   </g>
   <g id="matplotlib.axis_2">
    <g id="ytick_1">
     <g id="line2d_10">
      <defs>
       <path d="M 0 0 
L -3.5 0 
" id="m9ddad00e18" style="stroke:#000000;stroke-width:0.8;"/>
      </defs>
      <g>
       <use style="stroke:#000000;stroke-width:0.8;" x="144" xlink:href="#m9ddad00e18" y="732.171188"/>
      </g>
     </g>
     <g id="text_11">
      <!-- 0.000 -->
      <g transform="translate(108.371875 735.970407)scale(0.1 -0.1)">
       <defs>
        <path d="M 684 794 
L 1344 794 
L 1344 0 
L 684 0 
L 684 794 
z
" id="DejaVuSans-2e" transform="scale(0.015625)"/>
       </defs>
       <use xlink:href="#DejaVuSans-30"/>
       <use x="63.623047" xlink:href="#DejaVuSans-2e"/>
       <use x="95.410156" xlink:href="#DejaVuSans-30"/>
       <use x="159.033203" xlink:href="#DejaVuSans-30"/>
       <use x="222.65625" xlink:href="#DejaVuSans-30"/>
      </g>
     </g>
    </g>
    <g id="ytick_2">
     <g id="line2d_11">
      <g>
       <use style="stroke:#000000;stroke-width:0.8;" x="144" xlink:href="#m9ddad00e18" y="655.547352"/>
      </g>
     </g>
     <g id="text_12">
      <!-- 0.005 -->
      <g transform="translate(108.371875 659.346571)scale(0.1 -0.1)">
       <use xlink:href="#DejaVuSans-30"/>
       <use x="63.623047" xlink:href="#DejaVuSans-2e"/>
       <use x="95.410156" xlink:href="#DejaVuSans-30"/>
       <use x="159.033203" xlink:href="#DejaVuSans-30"/>
       <use x="222.65625" xlink:href="#DejaVuSans-35"/>
      </g>
     </g>
    </g>
    <g id="ytick_3">
     <g id="line2d_12">
      <g>
       <use style="stroke:#000000;stroke-width:0.8;" x="144" xlink:href="#m9ddad00e18" y="578.923515"/>
      </g>
     </g>
     <g id="text_13">
      <!-- 0.010 -->
      <g transform="translate(108.371875 582.722734)scale(0.1 -0.1)">
       <use xlink:href="#DejaVuSans-30"/>
       <use x="63.623047" xlink:href="#DejaVuSans-2e"/>
       <use x="95.410156" xlink:href="#DejaVuSans-30"/>
       <use x="159.033203" xlink:href="#DejaVuSans-31"/>
       <use x="222.65625" xlink:href="#DejaVuSans-30"/>
      </g>
     </g>
    </g>
    <g id="ytick_4">
     <g id="line2d_13">
      <g>
       <use style="stroke:#000000;stroke-width:0.8;" x="144" xlink:href="#m9ddad00e18" y="502.299679"/>
      </g>
     </g>
     <g id="text_14">
      <!-- 0.015 -->
      <g transform="translate(108.371875 506.098898)scale(0.1 -0.1)">
       <use xlink:href="#DejaVuSans-30"/>
       <use x="63.623047" xlink:href="#DejaVuSans-2e"/>
       <use x="95.410156" xlink:href="#DejaVuSans-30"/>
       <use x="159.033203" xlink:href="#DejaVuSans-31"/>
       <use x="222.65625" xlink:href="#DejaVuSans-35"/>
      </g>
     </g>
    </g>
    <g id="ytick_5">
     <g id="line2d_14">
      <g>
       <use style="stroke:#000000;stroke-width:0.8;" x="144" xlink:href="#m9ddad00e18" y="425.675843"/>
      </g>
     </g>
     <g id="text_15">
      <!-- 0.020 -->
      <g transform="translate(108.371875 429.475062)scale(0.1 -0.1)">
       <use xlink:href="#DejaVuSans-30"/>
       <use x="63.623047" xlink:href="#DejaVuSans-2e"/>
       <use x="95.410156" xlink:href="#DejaVuSans-30"/>
       <use x="159.033203" xlink:href="#DejaVuSans-32"/>
       <use x="222.65625" xlink:href="#DejaVuSans-30"/>
      </g>
     </g>
    </g>
    <g id="ytick_6">
     <g id="line2d_15">
      <g>
       <use style="stroke:#000000;stroke-width:0.8;" x="144" xlink:href="#m9ddad00e18" y="349.052006"/>
      </g>
     </g>
     <g id="text_16">
      <!-- 0.025 -->
      <g transform="translate(108.371875 352.851225)scale(0.1 -0.1)">
       <use xlink:href="#DejaVuSans-30"/>
       <use x="63.623047" xlink:href="#DejaVuSans-2e"/>
       <use x="95.410156" xlink:href="#DejaVuSans-30"/>
       <use x="159.033203" xlink:href="#DejaVuSans-32"/>
       <use x="222.65625" xlink:href="#DejaVuSans-35"/>
      </g>
     </g>
    </g>
    <g id="ytick_7">
     <g id="line2d_16">
      <g>
       <use style="stroke:#000000;stroke-width:0.8;" x="144" xlink:href="#m9ddad00e18" y="272.42817"/>
      </g>
     </g>
     <g id="text_17">
      <!-- 0.030 -->
      <g transform="translate(108.371875 276.227389)scale(0.1 -0.1)">
       <use xlink:href="#DejaVuSans-30"/>
       <use x="63.623047" xlink:href="#DejaVuSans-2e"/>
       <use x="95.410156" xlink:href="#DejaVuSans-30"/>
       <use x="159.033203" xlink:href="#DejaVuSans-33"/>
       <use x="222.65625" xlink:href="#DejaVuSans-30"/>
      </g>
     </g>
    </g>
    <g id="ytick_8">
     <g id="line2d_17">
      <g>
       <use style="stroke:#000000;stroke-width:0.8;" x="144" xlink:href="#m9ddad00e18" y="195.804334"/>
      </g>
     </g>
     <g id="text_18">
      <!-- 0.035 -->
      <g transform="translate(108.371875 199.603552)scale(0.1 -0.1)">
       <use xlink:href="#DejaVuSans-30"/>
       <use x="63.623047" xlink:href="#DejaVuSans-2e"/>
       <use x="95.410156" xlink:href="#DejaVuSans-30"/>
       <use x="159.033203" xlink:href="#DejaVuSans-33"/>
       <use x="222.65625" xlink:href="#DejaVuSans-35"/>
      </g>
     </g>
    </g>
    <g id="ytick_9">
     <g id="line2d_18">
      <g>
       <use style="stroke:#000000;stroke-width:0.8;" x="144" xlink:href="#m9ddad00e18" y="119.180497"/>
      </g>
     </g>
     <g id="text_19">
      <!-- 0.040 -->
      <g transform="translate(108.371875 122.979716)scale(0.1 -0.1)">
       <use xlink:href="#DejaVuSans-30"/>
       <use x="63.623047" xlink:href="#DejaVuSans-2e"/>
       <use x="95.410156" xlink:href="#DejaVuSans-30"/>
       <use x="159.033203" xlink:href="#DejaVuSans-34"/>
       <use x="222.65625" xlink:href="#DejaVuSans-30"/>
      </g>
     </g>
    </g>
    <g id="text_20">
     <!-- density -->
     <g transform="translate(101.460313 455.505937)rotate(-90)scale(0.14 -0.14)">
      <defs>
       <path d="M 2906 2969 
L 2906 4863 
L 3481 4863 
L 3481 0 
L 2906 0 
L 2906 525 
Q 2725 213 2448 61 
Q 2172 -91 1784 -91 
Q 1150 -91 751 415 
Q 353 922 353 1747 
Q 353 2572 751 3078 
Q 1150 3584 1784 3584 
Q 2172 3584 2448 3432 
Q 2725 3281 2906 2969 
z
M 947 1747 
Q 947 1113 1208 752 
Q 1469 391 1925 391 
Q 2381 391 2643 752 
Q 2906 1113 2906 1747 
Q 2906 2381 2643 2742 
Q 2381 3103 1925 3103 
Q 1469 3103 1208 2742 
Q 947 2381 947 1747 
z
" id="DejaVuSans-64" transform="scale(0.015625)"/>
       <path d="M 3513 2113 
L 3513 0 
L 2938 0 
L 2938 2094 
Q 2938 2591 2744 2837 
Q 2550 3084 2163 3084 
Q 1697 3084 1428 2787 
Q 1159 2491 1159 1978 
L 1159 0 
L 581 0 
L 581 3500 
L 1159 3500 
L 1159 2956 
Q 1366 3272 1645 3428 
Q 1925 3584 2291 3584 
Q 2894 3584 3203 3211 
Q 3513 2838 3513 2113 
z
" id="DejaVuSans-6e" transform="scale(0.015625)"/>
       <path d="M 603 3500 
L 1178 3500 
L 1178 0 
L 603 0 
L 603 3500 
z
M 603 4863 
L 1178 4863 
L 1178 4134 
L 603 4134 
L 603 4863 
z
" id="DejaVuSans-69" transform="scale(0.015625)"/>
       <path d="M 1172 4494 
L 1172 3500 
L 2356 3500 
L 2356 3053 
L 1172 3053 
L 1172 1153 
Q 1172 725 1289 603 
Q 1406 481 1766 481 
L 2356 481 
L 2356 0 
L 1766 0 
Q 1100 0 847 248 
Q 594 497 594 1153 
L 594 3053 
L 172 3053 
L 172 3500 
L 594 3500 
L 594 4494 
L 1172 4494 
z
" id="DejaVuSans-74" transform="scale(0.015625)"/>
      </defs>
      <use xlink:href="#DejaVuSans-64"/>
      <use x="63.476562" xlink:href="#DejaVuSans-65"/>
      <use x="125" xlink:href="#DejaVuSans-6e"/>
      <use x="188.378906" xlink:href="#DejaVuSans-73"/>
      <use x="240.478516" xlink:href="#DejaVuSans-69"/>
      <use x="268.261719" xlink:href="#DejaVuSans-74"/>
      <use x="307.470703" xlink:href="#DejaVuSans-79"/>
     </g>
    </g>
   </g>
   <g id="line2d_19">
    <path clip-path="url(#p29b24669f9)" d="M 184.581818 214.406707 
L 187.764706 678.501894 
L 190.947594 690.307824 
L 194.130481 690.213373 
L 197.313369 687.474669 
L 200.496257 690.872442 
L 203.679144 692.487991 
L 206.862032 693.353686 
L 210.04492 695.940618 
L 213.227807 701.097 
L 216.410695 703.666065 
L 219.593583 703.736713 
L 222.776471 705.908781 
L 225.959358 708.993734 
L 229.142246 711.148552 
L 232.325134 710.675853 
L 235.508021 709.822293 
L 238.690909 711.393622 
L 241.873797 711.313083 
L 245.056684 710.956862 
L 248.239572 712.903354 
L 251.42246 714.041655 
L 254.605348 714.861179 
L 257.788235 713.984076 
L 260.971123 715.409257 
L 264.154011 715.551092 
L 267.336898 715.270167 
L 270.519786 715.45074 
L 280.068449 714.429918 
L 283.251337 714.504604 
L 289.617112 713.270456 
L 292.8 713.28503 
L 302.348663 709.587726 
L 305.531551 710.183976 
L 308.714439 709.52338 
L 311.897326 709.445437 
L 318.263102 708.644468 
L 321.445989 707.721966 
L 327.811765 706.331286 
L 330.994652 705.461755 
L 334.17754 705.026376 
L 337.360428 703.875404 
L 340.543316 703.212168 
L 343.726203 702.188534 
L 350.091979 700.727251 
L 353.274866 699.375843 
L 359.640642 698.230512 
L 366.006417 695.434471 
L 369.189305 695.232317 
L 372.372193 693.662038 
L 375.55508 693.124974 
L 378.737968 692.371936 
L 381.920856 691.34649 
L 385.103743 690.470904 
L 388.286631 689.989017 
L 391.469519 689.979091 
L 394.652406 688.958415 
L 397.835294 687.581871 
L 401.018182 688.249818 
L 407.383957 686.109256 
L 410.566845 686.036149 
L 413.749733 685.082136 
L 416.93262 684.428869 
L 420.115508 684.201705 
L 423.298396 682.857341 
L 426.481283 683.069395 
L 429.664171 680.996157 
L 432.847059 680.279355 
L 436.029947 680.406526 
L 439.212834 678.759747 
L 445.57861 678.733278 
L 448.761497 676.467237 
L 451.944385 677.363584 
L 455.127273 676.350659 
L 464.675936 674.67004 
L 467.858824 673.693812 
L 471.041711 673.109378 
L 474.224599 674.003741 
L 480.590374 671.274265 
L 483.773262 673.091605 
L 486.95615 671.477194 
L 490.139037 671.962086 
L 493.321925 670.794873 
L 496.504813 671.400516 
L 499.687701 669.236073 
L 502.870588 670.072669 
L 506.053476 669.725137 
L 509.236364 665.757541 
L 512.419251 667.609118 
L 515.602139 668.077481 
L 518.785027 667.728813 
L 521.967914 666.829034 
L 525.150802 664.800358 
L 528.33369 664.267032 
L 531.516578 661.923351 
L 534.699465 660.31393 
L 537.882353 658.32052 
L 541.065241 657.85608 
L 544.248128 653.896781 
L 547.431016 652.312787 
L 550.613904 650.505688 
L 553.796791 649.605397 
L 556.979679 646.562087 
L 560.162567 646.666684 
L 563.345455 643.591804 
L 566.528342 642.85188 
L 569.71123 641.816423 
L 572.894118 642.506193 
L 576.077005 640.246959 
L 579.259893 642.44391 
L 582.442781 640.702528 
L 585.625668 641.736955 
L 588.808556 641.843099 
L 591.991444 641.119248 
L 595.174332 642.827105 
L 598.357219 643.197679 
L 601.540107 643.211423 
L 604.722995 642.348051 
L 607.905882 641.254903 
L 611.08877 641.07784 
L 614.271658 638.353623 
L 617.454545 637.310321 
L 620.637433 634.767839 
L 623.820321 632.775122 
L 627.003209 629.987592 
L 630.186096 628.608457 
L 633.368984 626.289337 
L 636.551872 626.759051 
L 639.734759 626.973557 
L 642.917647 630.241146 
L 646.100535 629.707913 
L 649.283422 630.780729 
L 652.46631 630.763553 
L 658.832086 631.99486 
L 662.014973 633.856791 
L 665.197861 631.490278 
L 668.380749 632.026314 
L 671.563636 633.912112 
L 674.746524 632.345804 
L 677.929412 632.177824 
L 681.112299 633.881573 
L 684.295187 633.311145 
L 687.478075 632.615963 
L 690.660963 634.328007 
L 693.84385 632.965195 
L 697.026738 633.438417 
L 700.209626 632.406563 
L 703.392513 633.864085 
L 706.575401 633.115846 
L 709.758289 634.729822 
L 712.941176 632.904983 
L 716.124064 635.255668 
L 719.306952 636.205373 
L 722.48984 637.354934 
L 725.672727 636.673093 
L 728.855615 637.817638 
L 732.038503 639.599595 
L 735.22139 637.760443 
L 738.404278 640.896053 
L 741.587166 640.014481 
L 744.770053 640.997489 
L 747.952941 642.460603 
L 751.135829 642.720824 
L 754.318717 641.612271 
L 757.501604 644.767485 
L 760.684492 644.329664 
L 763.86738 646.720947 
L 767.050267 644.475981 
L 770.233155 647.959918 
L 773.416043 650.1534 
L 776.59893 648.949624 
L 779.781818 651.080858 
L 782.964706 648.740952 
L 786.147594 651.272825 
L 789.330481 652.768104 
L 792.513369 651.517533 
L 795.696257 652.116514 
L 798.879144 653.062388 
L 802.062032 650.281934 
L 805.24492 653.283817 
L 808.427807 653.815841 
L 811.610695 655.070464 
L 814.793583 654.091132 
L 817.976471 655.007192 
L 821.159358 656.125963 
L 824.342246 656.464926 
L 827.525134 655.945449 
L 830.708021 655.124899 
L 833.890909 656.758034 
L 837.073797 656.848358 
L 840.256684 657.441972 
L 843.439572 657.073111 
L 846.62246 659.475749 
L 849.805348 658.747454 
L 852.988235 659.985402 
L 856.171123 661.56173 
L 859.354011 662.837154 
L 862.536898 665.484409 
L 865.719786 664.484756 
L 868.902674 667.399801 
L 872.085561 669.953432 
L 875.268449 671.72152 
L 878.451337 674.556201 
L 881.634225 676.866807 
L 884.817112 679.454377 
L 888 682.200917 
L 891.182888 682.085718 
L 894.365775 685.420749 
L 897.548663 687.34934 
L 900.731551 687.452705 
L 903.914439 688.048031 
L 907.097326 690.386066 
L 910.280214 691.710919 
L 913.463102 694.47529 
L 919.828877 700.387421 
L 923.011765 704.27736 
L 926.194652 705.691883 
L 929.37754 707.708717 
L 932.560428 708.451959 
L 935.743316 711.016482 
L 938.926203 711.643617 
L 945.291979 714.263268 
L 951.657754 716.713606 
L 958.023529 717.7634 
L 961.206417 718.627824 
L 964.389305 719.828266 
L 967.572193 720.021882 
L 970.75508 719.418057 
L 973.937968 719.755735 
L 977.120856 720.427734 
L 980.303743 722.561893 
L 983.486631 723.600841 
L 986.669519 724.831406 
L 989.852406 725.522752 
L 993.035294 726.349091 
L 996.218182 694.696432 
L 996.218182 694.696432 
" style="fill:none;stroke:#1f77b4;stroke-linecap:square;stroke-width:1.5;"/>
   </g>
   <g id="line2d_20">
    <path clip-path="url(#p29b24669f9)" d="M 184.581818 133.330909 
L 187.764706 667.406102 
L 190.947594 677.604899 
L 194.130481 688.272573 
L 197.313369 697.075061 
L 200.496257 704.10799 
L 203.679144 705.401581 
L 206.862032 705.534 
L 210.04492 708.357994 
L 213.227807 710.228385 
L 216.410695 712.846456 
L 219.593583 715.093001 
L 222.776471 715.345738 
L 225.959358 715.955343 
L 229.142246 716.439874 
L 235.508021 717.060694 
L 238.690909 716.749149 
L 241.873797 717.489174 
L 245.056684 717.305875 
L 248.239572 717.368844 
L 251.42246 717.260826 
L 254.605348 716.740034 
L 260.971123 716.701748 
L 264.154011 716.107352 
L 267.336898 716.409336 
L 270.519786 716.562518 
L 273.702674 716.246163 
L 276.885561 716.224659 
L 283.251337 715.770717 
L 286.434225 715.835383 
L 305.531551 713.721644 
L 308.714439 713.27018 
L 311.897326 713.109742 
L 315.080214 712.455046 
L 318.263102 712.105275 
L 321.445989 711.447016 
L 324.628877 711.037369 
L 327.811765 710.260672 
L 334.17754 709.740451 
L 337.360428 708.879509 
L 340.543316 708.542144 
L 343.726203 707.7511 
L 346.909091 707.100693 
L 350.091979 706.589202 
L 353.274866 705.341946 
L 356.457754 705.066373 
L 359.640642 704.625839 
L 362.823529 703.880661 
L 366.006417 702.733189 
L 369.189305 702.338913 
L 372.372193 701.205719 
L 375.55508 700.847252 
L 378.737968 699.920348 
L 381.920856 699.233934 
L 385.103743 698.845195 
L 391.469519 697.682738 
L 394.652406 696.226296 
L 397.835294 694.995145 
L 401.018182 695.109391 
L 404.20107 694.992012 
L 407.383957 694.297573 
L 410.566845 694.371697 
L 416.93262 693.149331 
L 420.115508 693.155735 
L 423.298396 692.619647 
L 426.481283 692.522637 
L 429.664171 691.631275 
L 432.847059 691.305349 
L 436.029947 691.852794 
L 439.212834 690.732048 
L 442.395722 690.669452 
L 445.57861 690.351155 
L 448.761497 689.218597 
L 455.127273 688.609724 
L 458.31016 688.533406 
L 461.493048 687.578218 
L 467.858824 686.092688 
L 471.041711 685.959357 
L 474.224599 685.699422 
L 477.407487 684.354104 
L 480.590374 683.130448 
L 483.773262 684.603401 
L 486.95615 683.438713 
L 490.139037 682.719509 
L 493.321925 681.6368 
L 496.504813 682.791161 
L 499.687701 680.70821 
L 502.870588 680.350699 
L 506.053476 679.69127 
L 509.236364 672.351974 
L 512.419251 676.922361 
L 515.602139 676.479155 
L 518.785027 675.44209 
L 521.967914 673.672694 
L 525.150802 670.367235 
L 528.33369 668.957659 
L 531.516578 665.965496 
L 534.699465 664.012078 
L 537.882353 661.659417 
L 541.065241 660.276334 
L 544.248128 655.944198 
L 547.431016 652.979362 
L 550.613904 649.773188 
L 553.796791 646.357628 
L 556.979679 642.536556 
L 560.162567 640.290025 
L 563.345455 636.733776 
L 566.528342 635.637573 
L 569.71123 634.034432 
L 572.894118 634.287338 
L 576.077005 631.996511 
L 579.259893 632.584294 
L 582.442781 631.201156 
L 585.625668 631.779956 
L 588.808556 630.036003 
L 591.991444 630.460723 
L 595.174332 630.750295 
L 598.357219 630.06718 
L 601.540107 630.157779 
L 604.722995 629.002001 
L 607.905882 627.351647 
L 611.08877 627.13294 
L 614.271658 623.838178 
L 617.454545 624.343277 
L 620.637433 623.767807 
L 623.820321 621.408738 
L 627.003209 620.361418 
L 630.186096 618.970872 
L 633.368984 616.709857 
L 636.551872 615.574302 
L 639.734759 613.345538 
L 642.917647 613.897414 
L 646.100535 614.731873 
L 649.283422 613.252806 
L 652.46631 615.232752 
L 655.649198 615.753283 
L 658.832086 616.112294 
L 662.014973 616.97932 
L 665.197861 616.165156 
L 668.380749 616.479201 
L 671.563636 618.765245 
L 674.746524 616.050454 
L 677.929412 617.986331 
L 681.112299 617.254614 
L 684.295187 620.009943 
L 687.478075 618.32652 
L 690.660963 621.481351 
L 693.84385 621.350126 
L 697.026738 621.359128 
L 700.209626 622.407673 
L 703.392513 622.405489 
L 706.575401 623.565911 
L 709.758289 625.340959 
L 712.941176 625.266174 
L 716.124064 626.562549 
L 719.306952 627.64219 
L 722.48984 628.860926 
L 725.672727 629.821169 
L 728.855615 631.526795 
L 732.038503 632.174846 
L 735.22139 633.090794 
L 738.404278 634.94528 
L 741.587166 633.903301 
L 744.770053 635.464849 
L 747.952941 636.878343 
L 751.135829 638.988011 
L 754.318717 637.017847 
L 757.501604 639.303852 
L 760.684492 639.982748 
L 763.86738 641.754163 
L 767.050267 640.439246 
L 773.416043 645.700877 
L 776.59893 645.895016 
L 779.781818 646.982085 
L 782.964706 647.901573 
L 786.147594 649.698758 
L 789.330481 650.980759 
L 792.513369 651.366764 
L 795.696257 652.842697 
L 802.062032 652.693315 
L 805.24492 654.04384 
L 808.427807 655.163082 
L 811.610695 654.838925 
L 814.793583 655.598262 
L 817.976471 656.019799 
L 821.159358 657.580374 
L 824.342246 657.911535 
L 827.525134 657.626322 
L 830.708021 657.114789 
L 833.890909 658.785483 
L 837.073797 659.214375 
L 840.256684 660.56116 
L 843.439572 661.573947 
L 846.62246 663.854545 
L 849.805348 664.64039 
L 852.988235 666.079 
L 856.171123 667.690572 
L 859.354011 669.481166 
L 862.536898 671.510806 
L 865.719786 668.497664 
L 868.902674 670.463242 
L 872.085561 672.903748 
L 875.268449 674.200966 
L 878.451337 677.034218 
L 881.634225 679.043524 
L 884.817112 682.323625 
L 888 684.898051 
L 891.182888 686.659496 
L 897.548663 691.799937 
L 900.731551 692.12478 
L 903.914439 693.517339 
L 907.097326 694.583019 
L 910.280214 696.184853 
L 916.645989 700.667191 
L 919.828877 702.406679 
L 923.011765 704.350558 
L 926.194652 705.124417 
L 929.37754 706.664183 
L 932.560428 708.006898 
L 938.926203 709.457341 
L 942.109091 710.600701 
L 945.291979 711.364652 
L 948.474866 710.944458 
L 951.657754 713.441876 
L 958.023529 714.421531 
L 961.206417 715.234634 
L 977.120856 720.096147 
L 980.303743 720.005312 
L 983.486631 718.694154 
L 986.669519 720.093723 
L 989.852406 720.671703 
L 993.035294 719.94003 
L 996.218182 675.611522 
L 996.218182 675.611522 
" style="fill:none;stroke:#ff7f0e;stroke-linecap:square;stroke-width:1.5;"/>
   </g>
   <g id="patch_3">
    <path d="M 144 756 
L 144 103.68 
" style="fill:none;stroke:#000000;stroke-linecap:square;stroke-linejoin:miter;stroke-width:0.8;"/>
   </g>
   <g id="patch_4">
    <path d="M 1036.8 756 
L 1036.8 103.68 
" style="fill:none;stroke:#000000;stroke-linecap:square;stroke-linejoin:miter;stroke-width:0.8;"/>
   </g>
   <g id="patch_5">
    <path d="M 144 756 
L 1036.8 756 
" style="fill:none;stroke:#000000;stroke-linecap:square;stroke-linejoin:miter;stroke-width:0.8;"/>
   </g>
   <g id="patch_6">
    <path d="M 144 103.68 
L 1036.8 103.68 
" style="fill:none;stroke:#000000;stroke-linecap:square;stroke-linejoin:miter;stroke-width:0.8;"/>
   </g>
   <g id="text_21">
    <!-- Mean Grayscale Histogram normalized -->
    <g transform="translate(396.503125 97.68)scale(0.2 -0.2)">
     <defs>
      <path d="M 628 4666 
L 1569 4666 
L 2759 1491 
L 3956 4666 
L 4897 4666 
L 4897 0 
L 4281 0 
L 4281 4097 
L 3078 897 
L 2444 897 
L 1241 4097 
L 1241 0 
L 628 0 
L 628 4666 
z
" id="DejaVuSans-4d" transform="scale(0.015625)"/>
      <path d="M 3809 666 
L 3809 1919 
L 2778 1919 
L 2778 2438 
L 4434 2438 
L 4434 434 
Q 4069 175 3628 42 
Q 3188 -91 2688 -91 
Q 1594 -91 976 548 
Q 359 1188 359 2328 
Q 359 3472 976 4111 
Q 1594 4750 2688 4750 
Q 3144 4750 3555 4637 
Q 3966 4525 4313 4306 
L 4313 3634 
Q 3963 3931 3569 4081 
Q 3175 4231 2741 4231 
Q 1884 4231 1454 3753 
Q 1025 3275 1025 2328 
Q 1025 1384 1454 906 
Q 1884 428 2741 428 
Q 3075 428 3337 486 
Q 3600 544 3809 666 
z
" id="DejaVuSans-47" transform="scale(0.015625)"/>
      <path d="M 628 4666 
L 1259 4666 
L 1259 2753 
L 3553 2753 
L 3553 4666 
L 4184 4666 
L 4184 0 
L 3553 0 
L 3553 2222 
L 1259 2222 
L 1259 0 
L 628 0 
L 628 4666 
z
" id="DejaVuSans-48" transform="scale(0.015625)"/>
      <path d="M 1959 3097 
Q 1497 3097 1228 2736 
Q 959 2375 959 1747 
Q 959 1119 1226 758 
Q 1494 397 1959 397 
Q 2419 397 2687 759 
Q 2956 1122 2956 1747 
Q 2956 2369 2687 2733 
Q 2419 3097 1959 3097 
z
M 1959 3584 
Q 2709 3584 3137 3096 
Q 3566 2609 3566 1747 
Q 3566 888 3137 398 
Q 2709 -91 1959 -91 
Q 1206 -91 779 398 
Q 353 888 353 1747 
Q 353 2609 779 3096 
Q 1206 3584 1959 3584 
z
" id="DejaVuSans-6f" transform="scale(0.015625)"/>
      <path d="M 3328 2828 
Q 3544 3216 3844 3400 
Q 4144 3584 4550 3584 
Q 5097 3584 5394 3201 
Q 5691 2819 5691 2113 
L 5691 0 
L 5113 0 
L 5113 2094 
Q 5113 2597 4934 2840 
Q 4756 3084 4391 3084 
Q 3944 3084 3684 2787 
Q 3425 2491 3425 1978 
L 3425 0 
L 2847 0 
L 2847 2094 
Q 2847 2600 2669 2842 
Q 2491 3084 2119 3084 
Q 1678 3084 1418 2786 
Q 1159 2488 1159 1978 
L 1159 0 
L 581 0 
L 581 3500 
L 1159 3500 
L 1159 2956 
Q 1356 3278 1631 3431 
Q 1906 3584 2284 3584 
Q 2666 3584 2933 3390 
Q 3200 3197 3328 2828 
z
" id="DejaVuSans-6d" transform="scale(0.015625)"/>
      <path d="M 353 3500 
L 3084 3500 
L 3084 2975 
L 922 459 
L 3084 459 
L 3084 0 
L 275 0 
L 275 525 
L 2438 3041 
L 353 3041 
L 353 3500 
z
" id="DejaVuSans-7a" transform="scale(0.015625)"/>
     </defs>
     <use xlink:href="#DejaVuSans-4d"/>
     <use x="86.279297" xlink:href="#DejaVuSans-65"/>
     <use x="147.802734" xlink:href="#DejaVuSans-61"/>
     <use x="209.082031" xlink:href="#DejaVuSans-6e"/>
     <use x="272.460938" xlink:href="#DejaVuSans-20"/>
     <use x="304.248047" xlink:href="#DejaVuSans-47"/>
     <use x="381.738281" xlink:href="#DejaVuSans-72"/>
     <use x="422.851562" xlink:href="#DejaVuSans-61"/>
     <use x="484.130859" xlink:href="#DejaVuSans-79"/>
     <use x="543.310547" xlink:href="#DejaVuSans-73"/>
     <use x="595.410156" xlink:href="#DejaVuSans-63"/>
     <use x="650.390625" xlink:href="#DejaVuSans-61"/>
     <use x="711.669922" xlink:href="#DejaVuSans-6c"/>
     <use x="739.453125" xlink:href="#DejaVuSans-65"/>
     <use x="800.976562" xlink:href="#DejaVuSans-20"/>
     <use x="832.763672" xlink:href="#DejaVuSans-48"/>
     <use x="907.958984" xlink:href="#DejaVuSans-69"/>
     <use x="935.742188" xlink:href="#DejaVuSans-73"/>
     <use x="987.841797" xlink:href="#DejaVuSans-74"/>
     <use x="1027.050781" xlink:href="#DejaVuSans-6f"/>
     <use x="1088.232422" xlink:href="#DejaVuSans-67"/>
     <use x="1151.708984" xlink:href="#DejaVuSans-72"/>
     <use x="1192.822266" xlink:href="#DejaVuSans-61"/>
     <use x="1254.101562" xlink:href="#DejaVuSans-6d"/>
     <use x="1351.513672" xlink:href="#DejaVuSans-20"/>
     <use x="1383.300781" xlink:href="#DejaVuSans-6e"/>
     <use x="1446.679688" xlink:href="#DejaVuSans-6f"/>
     <use x="1507.861328" xlink:href="#DejaVuSans-72"/>
     <use x="1547.224609" xlink:href="#DejaVuSans-6d"/>
     <use x="1644.636719" xlink:href="#DejaVuSans-61"/>
     <use x="1705.916016" xlink:href="#DejaVuSans-6c"/>
     <use x="1733.699219" xlink:href="#DejaVuSans-69"/>
     <use x="1761.482422" xlink:href="#DejaVuSans-7a"/>
     <use x="1813.972656" xlink:href="#DejaVuSans-65"/>
     <use x="1875.496094" xlink:href="#DejaVuSans-64"/>
    </g>
   </g>
   <g id="legend_1">
    <g id="patch_7">
     <path d="M 945.197187 148.77875 
L 1029.8 148.77875 
Q 1031.8 148.77875 1031.8 146.77875 
L 1031.8 110.68 
Q 1031.8 108.68 1029.8 108.68 
L 945.197187 108.68 
Q 943.197187 108.68 943.197187 110.68 
L 943.197187 146.77875 
Q 943.197187 148.77875 945.197187 148.77875 
z
" style="fill:#ffffff;opacity:0.8;stroke:#cccccc;stroke-linejoin:miter;"/>
    </g>
    <g id="line2d_21">
     <path d="M 947.197187 119.817812 
L 967.197187 119.817812 
" style="fill:none;stroke:#1f77b4;stroke-linecap:square;stroke-width:1.5;"/>
    </g>
    <g id="line2d_22"/>
    <g id="text_22">
     <!-- healthy -->
     <g transform="translate(975.197187 123.317812)scale(0.14 -0.14)">
      <defs>
       <path d="M 3513 2113 
L 3513 0 
L 2938 0 
L 2938 2094 
Q 2938 2591 2744 2837 
Q 2550 3084 2163 3084 
Q 1697 3084 1428 2787 
Q 1159 2491 1159 1978 
L 1159 0 
L 581 0 
L 581 4863 
L 1159 4863 
L 1159 2956 
Q 1366 3272 1645 3428 
Q 1925 3584 2291 3584 
Q 2894 3584 3203 3211 
Q 3513 2838 3513 2113 
z
" id="DejaVuSans-68" transform="scale(0.015625)"/>
      </defs>
      <use xlink:href="#DejaVuSans-68"/>
      <use x="63.378906" xlink:href="#DejaVuSans-65"/>
      <use x="124.902344" xlink:href="#DejaVuSans-61"/>
      <use x="186.181641" xlink:href="#DejaVuSans-6c"/>
      <use x="213.964844" xlink:href="#DejaVuSans-74"/>
      <use x="253.173828" xlink:href="#DejaVuSans-68"/>
      <use x="316.552734" xlink:href="#DejaVuSans-79"/>
     </g>
    </g>
    <g id="line2d_23">
     <path d="M 947.197187 138.367188 
L 967.197187 138.367188 
" style="fill:none;stroke:#ff7f0e;stroke-linecap:square;stroke-width:1.5;"/>
    </g>
    <g id="line2d_24"/>
    <g id="text_23">
     <!-- sick -->
     <g transform="translate(975.197187 141.867188)scale(0.14 -0.14)">
      <defs>
       <path d="M 581 4863 
L 1159 4863 
L 1159 1991 
L 2875 3500 
L 3609 3500 
L 1753 1863 
L 3688 0 
L 2938 0 
L 1159 1709 
L 1159 0 
L 581 0 
L 581 4863 
z
" id="DejaVuSans-6b" transform="scale(0.015625)"/>
      </defs>
      <use xlink:href="#DejaVuSans-73"/>
      <use x="52.099609" xlink:href="#DejaVuSans-69"/>
      <use x="79.882812" xlink:href="#DejaVuSans-63"/>
      <use x="134.863281" xlink:href="#DejaVuSans-6b"/>
     </g>
    </g>
   </g>
  </g>
 </g>
 <defs>
  <clipPath id="p29b24669f9">
   <rect height="652.32" width="892.8" x="144" y="103.68"/>
  </clipPath>
 </defs>
</svg>
